{
copyright = "Copyright (c) 2015, Cadson Demak (info@cadsondemak.com)";
customParameters = (
{
name = vendorID;
value = CDK;
},
{
name = description;
value = "Copyright (c) 2015, Cadson Demak (info@cadsondemak.com)";
},
{
name = license;

glyphs = (
{
glyphname = A;
lastChange = "2015-10-21 12:18:57 +0000";
layers = (
{
layerId = "09C3AFA4-7ACC-471D-A867-1713CECD7BC9";
name = "Regular Italic";
paths = (
{
closed = 1;
nodes = (
"174 0 LINE",
"179 26 LINE",
"161 26 LINE SMOOTH",
"140 26 OFFCURVE",
"120 36 OFFCURVE",
"120 55 CURVE SMOOTH",
"120 60 OFFCURVE",
"121 66 OFFCURVE",
"125 73 CURVE SMOOTH",
"416 591 LINE",
"491 73 LINE SMOOTH",
"495 43 OFFCURVE",
"475 26 OFFCURVE",
"439 26 CURVE SMOOTH",
"422 26 LINE",
"418 0 LINE",
"660 0 LINE",
"665 26 LINE",
"648 26 LINE SMOOTH",
"625 26 OFFCURVE",
"600 38 OFFCURVE",
"595 61 CURVE",
"489 714 LINE",
"413 684 LINE",
"59 62 LINE SMOOTH",
"45 40 OFFCURVE",
"10 26 OFFCURVE",
"-14 26 CURVE SMOOTH",
"-29 26 LINE",
"-34 0 LINE"
);
},
{
closed = 1;
nodes = (
"498 210 LINE",
"507 250 LINE",
"194 250 LINE",
"185 210 LINE"
);
}
);
width = 704;
}
);
leftKerningGroup = A;
note = A;
rightKerningGroup = A;
unicode = 0041;
},
{
glyphname = Aacute;
lastChange = "2015-10-21 12:18:56 +0000";
layers = (
{
layerId = "09C3AFA4-7ACC-471D-A867-1713CECD7BC9";
name = "Regular Italic";
paths = (
{
closed = 1;
nodes = (
"174 0 LINE",
"179 26 LINE",
"161 26 LINE SMOOTH",
"140 26 OFFCURVE",
"120 36 OFFCURVE",
"120 55 CURVE SMOOTH",
"120 60 OFFCURVE",
"121 66 OFFCURVE",
"125 73 CURVE SMOOTH",
"416 591 LINE",
"491 73 LINE SMOOTH",
"495 43 OFFCURVE",
"475 26 OFFCURVE",
"439 26 CURVE SMOOTH",
"422 26 LINE",
"418 0 LINE",
"660 0 LINE",
"665 26 LINE",
"648 26 LINE SMOOTH",
"625 26 OFFCURVE",
"600 38 OFFCURVE",
"595 61 CURVE",
"489 714 LINE",
"413 684 LINE",
"59 62 LINE SMOOTH",
"45 40 OFFCURVE",
"10 26 OFFCURVE",
"-14 26 CURVE SMOOTH",
"-29 26 LINE",
"-34 0 LINE"
);
},
{
closed = 1;
nodes = (
"498 210 LINE",
"507 250 LINE",
"194 250 LINE",
"185 210 LINE"
);
},
{
closed = 1;
nodes = (
"550 865 LINE SMOOTH",
"574 877 OFFCURVE",
"588 890 OFFCURVE",
"591 907 CURVE",
"595 922 OFFCURVE",
"587 937 OFFCURVE",
"565 937 CURVE SMOOTH",
"545 937 OFFCURVE",
"527 921 OFFCURVE",
"518 914 CURVE SMOOTH",
"386 807 LINE",
"397 782 LINE"
);
}
);
width = 704;
}
);
leftKerningGroup = A;
note = Aacute;
rightKerningGroup = A;
unicode = 00C1;
},
{
glyphname = Abreve;
lastChange = "2015-10-21 12:18:57 +0000";
layers = (
{
layerId = "09C3AFA4-7ACC-471D-A867-1713CECD7BC9";
name = "Regular Italic";
paths = (
{
closed = 1;
nodes = (
"174 0 LINE",
"179 26 LINE",
"161 26 LINE SMOOTH",
"140 26 OFFCURVE",
"120 36 OFFCURVE",
"120 55 CURVE SMOOTH",
"120 60 OFFCURVE",
"121 66 OFFCURVE",
"125 73 CURVE SMOOTH",
"416 591 LINE",
"491 73 LINE SMOOTH",
"495 43 OFFCURVE",
"475 26 OFFCURVE",
"439 26 CURVE SMOOTH",
"422 26 LINE",
"418 0 LINE",
"660 0 LINE",
"665 26 LINE",
"648 26 LINE SMOOTH",
"625 26 OFFCURVE",
"600 38 OFFCURVE",
"595 61 CURVE",
"489 714 LINE",
"413 684 LINE",
"59 62 LINE SMOOTH",
"45 40 OFFCURVE",
"10 26 OFFCURVE",
"-14 26 CURVE SMOOTH",
"-29 26 LINE",
"-34 0 LINE"
);
},
{
closed = 1;
nodes = (
"498 210 LINE",
"507 250 LINE",
"194 250 LINE",
"185 210 LINE"
);
},
{
closed = 1;
nodes = (
"566 776 OFFCURVE",
"617 832 OFFCURVE",
"636 907 CURVE",
"605 907 LINE",
"588 848 OFFCURVE",
"541 822 OFFCURVE",
"480 822 CURVE SMOOTH",
"419 822 OFFCURVE",
"383 848 OFFCURVE",
"388 907 CURVE",
"356 907 LINE",
"355 897 OFFCURVE",
"354 888 OFFCURVE",
"354 879 CURVE SMOOTH",
"354 817 OFFCURVE",
"386 776 OFFCURVE",
"471 776 CURVE SMOOTH"
);
}
);
width = 704;
}
);
leftKerningGroup = A;
note = Abreve;
rightKerningGroup = A;
unicode = 0102;
},
{
glyphname = Abreveacute;
lastChange = "2015-10-21 12:18:57 +0000";
layers = (
{
layerId = "09C3AFA4-7ACC-471D-A867-1713CECD7BC9";
name = "Regular Italic";
paths = (
{
closed = 1;
nodes = (
"174 0 LINE",
"179 26 LINE",
"161 26 LINE SMOOTH",
"140 26 OFFCURVE",
"120 36 OFFCURVE",
"120 55 CURVE SMOOTH",
"120 60 OFFCURVE",
"121 66 OFFCURVE",
"125 73 CURVE SMOOTH",
"416 591 LINE",
"491 73 LINE SMOOTH",
"495 43 OFFCURVE",
"475 26 OFFCURVE",
"439 26 CURVE SMOOTH",
"422 26 LINE",
"418 0 LINE",
"660 0 LINE",
"665 26 LINE",
"648 26 LINE SMOOTH",
"625 26 OFFCURVE",
"600 38 OFFCURVE",
"595 61 CURVE",
"489 714 LINE",
"413 684 LINE",
"59 62 LINE SMOOTH",
"45 40 OFFCURVE",
"10 26 OFFCURVE",
"-14 26 CURVE SMOOTH",
"-29 26 LINE",
"-34 0 LINE"
);
},
{
closed = 1;
nodes = (
"498 210 LINE",
"507 250 LINE",
"194 250 LINE",
"185 210 LINE"
);
},
{
closed = 1;
nodes = (
"567 778 OFFCURVE",
"618 834 OFFCURVE",
"636 909 CURVE",
"606 909 LINE",
"588 851 OFFCURVE",
"542 825 OFFCURVE",
"480 825 CURVE SMOOTH",
"424 825 OFFCURVE",
"388 847 OFFCURVE",
"388 896 CURVE SMOOTH",
"388 900 OFFCURVE",
"388 904 OFFCURVE",
"389 909 CURVE",
"358 909 LINE",
"356 897 OFFCURVE",
"355 886 OFFCURVE",
"355 876 CURVE SMOOTH",
"355 816 OFFCURVE",
"388 778 OFFCURVE",
"470 778 CURVE SMOOTH"
);
},
{
closed = 1;
nodes = (
"604 965 LINE SMOOTH",
"631 978 OFFCURVE",
"648 995 OFFCURVE",
"648 1013 CURVE SMOOTH",
"648 1026 OFFCURVE",
"638 1039 OFFCURVE",
"621 1039 CURVE SMOOTH",
"602 1039 OFFCURVE",
"583 1023 OFFCURVE",
"571 1013 CURVE SMOOTH",
"461 920 LINE",
"473 898 LINE"
);
}
);
width = 704;
}
);
leftKerningGroup = A;
note = Abreveacute;
rightKerningGroup = A;
unicode = 1EAE;
},
{
glyphname = Abrevedotbelow;
lastChange = "2015-10-21 12:18:57 +0000";
layers = (
{
layerId = "09C3AFA4-7ACC-471D-A867-1713CECD7BC9";
name = "Regular Italic";
paths = (
{
closed = 1;
nodes = (
"174 0 LINE",
"179 26 LINE",
"161 26 LINE SMOOTH",
"140 26 OFFCURVE",
"120 36 OFFCURVE",
"120 55 CURVE SMOOTH",
"120 60 OFFCURVE",
"121 66 OFFCURVE",
"125 73 CURVE SMOOTH",
"416 591 LINE",
"491 73 LINE SMOOTH",
"495 43 OFFCURVE",
"475 26 OFFCURVE",
"439 26 CURVE SMOOTH",
"422 26 LINE",
"418 0 LINE",
"660 0 LINE",
"665 26 LINE",
"648 26 LINE SMOOTH",
"625 26 OFFCURVE",
"600 38 OFFCURVE",
"595 61 CURVE",
"489 714 LINE",
"413 684 LINE",
"59 62 LINE SMOOTH",
"45 40 OFFCURVE",
"10 26 OFFCURVE",
"-14 26 CURVE SMOOTH",
"-29 26 LINE",
"-34 0 LINE"
);
},
{
closed = 1;
nodes = (
"311 -159 OFFCURVE",
"335 -134 OFFCURVE",
"335 -100 CURVE SMOOTH",
"335 -78 OFFCURVE",
"322 -64 OFFCURVE",
"300 -64 CURVE SMOOTH",
"269 -64 OFFCURVE",
"244 -90 OFFCURVE",
"244 -124 CURVE SMOOTH",
"244 -145 OFFCURVE",
"257 -159 OFFCURVE",
"280 -159 CURVE SMOOTH"
);
},
{
closed = 1;
nodes = (
"498 210 LINE",
"507 250 LINE",
"194 250 LINE",
"185 210 LINE"
);
},
{
closed = 1;
nodes = (
"566 778 OFFCURVE",
"617 834 OFFCURVE",
"636 909 CURVE",
"605 909 LINE",
"588 850 OFFCURVE",
"541 824 OFFCURVE",
"480 824 CURVE SMOOTH",
"419 824 OFFCURVE",
"383 850 OFFCURVE",
"388 909 CURVE",
"356 909 LINE",
"355 899 OFFCURVE",
"354 890 OFFCURVE",
"354 881 CURVE SMOOTH",
"354 819 OFFCURVE",
"386 778 OFFCURVE",
"471 778 CURVE SMOOTH"
);
}
);
width = 704;
}
);
leftKerningGroup = A;
note = Abrevedotbelow;
rightKerningGroup = A;
unicode = 1EB6;
},
{
glyphname = Abrevegrave;
lastChange = "2015-10-21 12:18:57 +0000";
layers = (
{
layerId = "09C3AFA4-7ACC-471D-A867-1713CECD7BC9";
name = "Regular Italic";
paths = (
{
closed = 1;
nodes = (
"174 0 LINE",
"179 26 LINE",
"161 26 LINE SMOOTH",
"140 26 OFFCURVE",
"120 36 OFFCURVE",
"120 55 CURVE SMOOTH",
"120 60 OFFCURVE",
"121 66 OFFCURVE",
"125 73 CURVE SMOOTH",
"416 591 LINE",
"491 73 LINE SMOOTH",
"495 43 OFFCURVE",
"475 26 OFFCURVE",
"439 26 CURVE SMOOTH",
"422 26 LINE",
"418 0 LINE",
"660 0 LINE",
"665 26 LINE",
"648 26 LINE SMOOTH",
"625 26 OFFCURVE",
"600 38 OFFCURVE",
"595 61 CURVE",
"489 714 LINE",
"413 684 LINE",
"59 62 LINE SMOOTH",
"45 40 OFFCURVE",
"10 26 OFFCURVE",
"-14 26 CURVE SMOOTH",
"-29 26 LINE",
"-34 0 LINE"
);
},
{
closed = 1;
nodes = (
"498 210 LINE",
"507 250 LINE",
"194 250 LINE",
"185 210 LINE"
);
},
{
closed = 1;
nodes = (
"567 778 OFFCURVE",
"618 834 OFFCURVE",
"636 909 CURVE",
"606 909 LINE",
"588 851 OFFCURVE",
"541 825 OFFCURVE",
"480 825 CURVE SMOOTH",
"424 825 OFFCURVE",
"388 847 OFFCURVE",
"388 896 CURVE SMOOTH",
"388 900 OFFCURVE",
"388 904 OFFCURVE",
"389 909 CURVE",
"358 909 LINE",
"356 897 OFFCURVE",
"355 886 OFFCURVE",
"355 876 CURVE SMOOTH",
"355 816 OFFCURVE",
"388 778 OFFCURVE",
"470 778 CURVE SMOOTH"
);
},
{
closed = 1;
nodes = (
"531 920 LINE",
"458 1012 LINE",
"450 1023 OFFCURVE",
"438 1038 OFFCURVE",
"419 1038 CURVE SMOOTH",
"396 1038 OFFCURVE",
"384 1021 OFFCURVE",
"381 1007 CURVE",
"377 992 OFFCURVE",
"387 976 OFFCURVE",
"406 964 CURVE SMOOTH",
"510 897 LINE"
);
}
);
width = 704;
}
);
leftKerningGroup = A;
note = Abrevegrave;
rightKerningGroup = A;
unicode = 1EB0;
},
{
glyphname = Abrevehookabove;
lastChange = "2015-10-21 12:18:57 +0000";
layers = (
{
layerId = "09C3AFA4-7ACC-471D-A867-1713CECD7BC9";
name = "Regular Italic";
paths = (
{
closed = 1;
nodes = (
"174 0 LINE",
"179 26 LINE",
"161 26 LINE SMOOTH",
"140 26 OFFCURVE",
"120 36 OFFCURVE",
"120 55 CURVE SMOOTH",
"120 60 OFFCURVE",
"121 66 OFFCURVE",
"125 73 CURVE SMOOTH",
"416 591 LINE",
"491 73 LINE SMOOTH",
"495 43 OFFCURVE",
"475 26 OFFCURVE",
"439 26 CURVE SMOOTH",
"422 26 LINE",
"418 0 LINE",
"660 0 LINE",
"665 26 LINE",
"648 26 LINE SMOOTH",
"625 26 OFFCURVE",
"600 38 OFFCURVE",
"595 61 CURVE",
"489 714 LINE",
"413 684 LINE",
"59 62 LINE SMOOTH",
"45 40 OFFCURVE",
"10 26 OFFCURVE",
"-14 26 CURVE SMOOTH",
"-29 26 LINE",
"-34 0 LINE"
);
},
{
closed = 1;
nodes = (
"498 210 LINE",
"507 250 LINE",
"194 250 LINE",
"185 210 LINE"
);
},
{
closed = 1;
nodes = (
"567 778 OFFCURVE",
"618 834 OFFCURVE",
"636 909 CURVE",
"606 909 LINE",
"588 851 OFFCURVE",
"542 825 OFFCURVE",
"480 825 CURVE SMOOTH",
"424 825 OFFCURVE",
"388 847 OFFCURVE",
"388 896 CURVE SMOOTH",
"388 900 OFFCURVE",
"388 904 OFFCURVE",
"389 909 CURVE",
"358 909 LINE",
"356 897 OFFCURVE",
"355 886 OFFCURVE",
"355 876 CURVE SMOOTH",
"355 816 OFFCURVE",
"388 778 OFFCURVE",
"470 778 CURVE SMOOTH"
);
},
{
closed = 1;
nodes = (
"525 900 LINE",
"508 907 OFFCURVE",
"500 914 OFFCURVE",
"503 928 CURVE SMOOTH",
"509 958 OFFCURVE",
"598 968 OFFCURVE",
"598 1021 CURVE SMOOTH",
"598 1052 OFFCURVE",
"564 1065 OFFCURVE",
"527 1065 CURVE SMOOTH",
"497 1065 OFFCURVE",
"452 1055 OFFCURVE",
"445 1024 CURVE",
"444 1012 OFFCURVE",
"452 1003 OFFCURVE",
"462 1003 CURVE SMOOTH",
"490 1003 OFFCURVE",
"485 1042 OFFCURVE",
"526 1042 CURVE SMOOTH",
"542 1042 OFFCURVE",
"550 1033 OFFCURVE",
"550 1021 CURVE SMOOTH",
"550 976 OFFCURVE",
"469 969 OFFCURVE",
"462 927 CURVE",
"461 923 OFFCURVE",
"461 920 OFFCURVE",
"461 916 CURVE SMOOTH",
"461 897 OFFCURVE",
"475 882 OFFCURVE",
"513 882 CURVE"
);
}
);
width = 704;
}
);
leftKerningGroup = A;
note = Abrevehookabove;
rightKerningGroup = A;
unicode = 1EB2;
},
{
glyphname = Abrevetilde;
lastChange = "2015-10-21 12:18:56 +0000";
layers = (
{
layerId = "09C3AFA4-7ACC-471D-A867-1713CECD7BC9";
name = "Regular Italic";
paths = (
{
closed = 1;
nodes = (
"174 0 LINE",
"179 26 LINE",
"161 26 LINE SMOOTH",
"140 26 OFFCURVE",
"120 36 OFFCURVE",
"120 55 CURVE SMOOTH",
"120 60 OFFCURVE",
"121 66 OFFCURVE",
"125 73 CURVE SMOOTH",
"416 591 LINE",
"491 73 LINE SMOOTH",
"495 43 OFFCURVE",
"475 26 OFFCURVE",
"439 26 CURVE SMOOTH",
"422 26 LINE",
"418 0 LINE",
"660 0 LINE",
"665 26 LINE",
"648 26 LINE SMOOTH",
"625 26 OFFCURVE",
"600 38 OFFCURVE",
"595 61 CURVE",
"489 714 LINE",
"413 684 LINE",
"59 62 LINE SMOOTH",
"45 40 OFFCURVE",
"10 26 OFFCURVE",
"-14 26 CURVE SMOOTH",
"-29 26 LINE",
"-34 0 LINE"
);
},
{
closed = 1;
nodes = (
"498 210 LINE",
"507 250 LINE",
"194 250 LINE",
"185 210 LINE"
);
},
{
closed = 1;
nodes = (
"567 778 OFFCURVE",
"618 834 OFFCURVE",
"636 909 CURVE",
"606 909 LINE",
"588 851 OFFCURVE",
"542 825 OFFCURVE",
"480 825 CURVE SMOOTH",
"424 825 OFFCURVE",
"388 847 OFFCURVE",
"388 896 CURVE SMOOTH",
"388 900 OFFCURVE",
"388 904 OFFCURVE",
"389 909 CURVE",
"358 909 LINE",
"356 897 OFFCURVE",
"355 886 OFFCURVE",
"355 876 CURVE SMOOTH",
"355 816 OFFCURVE",
"388 778 OFFCURVE",
"470 778 CURVE SMOOTH"
);
},
{
closed = 1;
nodes = (
"391 1002 OFFCURVE",
"413 1023 OFFCURVE",
"443 1023 CURVE SMOOTH",
"490 1023 OFFCURVE",
"523 969 OFFCURVE",
"570 969 CURVE SMOOTH",
"621 969 OFFCURVE",
"659 1017 OFFCURVE",
"681 1068 CURVE",
"662 1080 LINE",
"642 1040 OFFCURVE",
"623 1017 OFFCURVE",
"591 1017 CURVE SMOOTH",
"546 1017 OFFCURVE",
"510 1070 OFFCURVE",
"463 1070 CURVE SMOOTH",
"414 1070 OFFCURVE",
"374 1026 OFFCURVE",
"354 975 CURVE",
"371 963 LINE"
);
}
);
width = 704;
}
);
leftKerningGroup = A;
note = Abrevetilde;
rightKerningGroup = A;
unicode = 1EB4;
},
{
glyphname = Acaron;
lastChange = "2015-10-21 12:18:57 +0000";
layers = (
{
layerId = "09C3AFA4-7ACC-471D-A867-1713CECD7BC9";
name = "Regular Italic";
paths = (
{
closed = 1;
nodes = (
"174 0 LINE",
"179 26 LINE",
"161 26 LINE SMOOTH",
"140 26 OFFCURVE",
"120 36 OFFCURVE",
"120 55 CURVE SMOOTH",
"120 60 OFFCURVE",
"121 66 OFFCURVE",
"125 73 CURVE SMOOTH",
"416 591 LINE",
"491 73 LINE SMOOTH",
"495 43 OFFCURVE",
"475 26 OFFCURVE",
"439 26 CURVE SMOOTH",
"422 26 LINE",
"418 0 LINE",
"660 0 LINE",
"665 26 LINE",
"648 26 LINE SMOOTH",
"625 26 OFFCURVE",
"600 38 OFFCURVE",
"595 61 CURVE",
"489 714 LINE",
"413 684 LINE",
"59 62 LINE SMOOTH",
"45 40 OFFCURVE",
"10 26 OFFCURVE",
"-14 26 CURVE SMOOTH",
"-29 26 LINE",
"-34 0 LINE"
);
},
{
closed = 1;
nodes = (
"498 210 LINE",
"507 250 LINE",
"194 250 LINE",
"185 210 LINE"
);
},
{
closed = 1;
nodes = (
"497 782 LINE",
"642 911 LINE",
"629 932 LINE",
"508 847 LINE SMOOTH",
"498 840 OFFCURVE",
"489 836 OFFCURVE",
"483 836 CURVE SMOOTH",
"477 836 OFFCURVE",
"470 840 OFFCURVE",
"463 847 CURVE",
"376 932 LINE",
"354 911 LINE",
"446 782 LINE"
);
}
);
width = 704;
}
);
leftKerningGroup = A;
note = Acaron;
rightKerningGroup = A;
unicode = 01CD;
},
{
glyphname = Acircumflex;
lastChange = "2015-10-21 12:18:56 +0000";
layers = (
{
layerId = "09C3AFA4-7ACC-471D-A867-1713CECD7BC9";
name = "Regular Italic";
paths = (
{
closed = 1;
nodes = (
"174 0 LINE",
"179 26 LINE",
"161 26 LINE SMOOTH",
"140 26 OFFCURVE",
"120 36 OFFCURVE",
"120 55 CURVE SMOOTH",
"120 60 OFFCURVE",
"121 66 OFFCURVE",
"125 73 CURVE SMOOTH",
"416 591 LINE",
"491 73 LINE SMOOTH",
"495 43 OFFCURVE",
"475 26 OFFCURVE",
"439 26 CURVE SMOOTH",
"422 26 LINE",
"418 0 LINE",
"660 0 LINE",
"665 26 LINE",
"648 26 LINE SMOOTH",
"625 26 OFFCURVE",
"600 38 OFFCURVE",
"595 61 CURVE",
"489 714 LINE",
"413 684 LINE",
"59 62 LINE SMOOTH",
"45 40 OFFCURVE",
"10 26 OFFCURVE",
"-14 26 CURVE SMOOTH",
"-29 26 LINE",
"-34 0 LINE"
);
},
{
closed = 1;
nodes = (
"498 210 LINE",
"507 250 LINE",
"194 250 LINE",
"185 210 LINE"
);
},
{
closed = 1;
nodes = (
"467 868 LINE SMOOTH",
"475 874 OFFCURVE",
"486 879 OFFCURVE",
"492 879 CURVE SMOOTH",
"497 879 OFFCURVE",
"504 874 OFFCURVE",
"512 868 CURVE",
"598 782 LINE",
"620 803 LINE",
"528 932 LINE",
"477 932 LINE",
"332 803 LINE",
"347 782 LINE"
);
}
);
width = 704;
}
);
leftKerningGroup = A;
note = Acircumflex;
rightKerningGroup = A;
unicode = 00C2;
},
{
glyphname = Acircumflexacute;
lastChange = "2015-10-21 12:18:57 +0000";
layers = (
{
layerId = "09C3AFA4-7ACC-471D-A867-1713CECD7BC9";
name = "Regular Italic";
paths = (
{
closed = 1;
nodes = (
"174 0 LINE",
"179 26 LINE",
"161 26 LINE SMOOTH",
"140 26 OFFCURVE",
"120 36 OFFCURVE",
"120 55 CURVE SMOOTH",
"120 60 OFFCURVE",
"121 66 OFFCURVE",
"125 73 CURVE SMOOTH",
"416 591 LINE",
"491 73 LINE SMOOTH",
"495 43 OFFCURVE",
"475 26 OFFCURVE",
"439 26 CURVE SMOOTH",
"422 26 LINE",
"418 0 LINE",
"660 0 LINE",
"665 26 LINE",
"648 26 LINE SMOOTH",
"625 26 OFFCURVE",
"600 38 OFFCURVE",
"595 61 CURVE",
"489 714 LINE",
"413 684 LINE",
"59 62 LINE SMOOTH",
"45 40 OFFCURVE",
"10 26 OFFCURVE",
"-14 26 CURVE SMOOTH",
"-29 26 LINE",
"-34 0 LINE"
);
},
{
closed = 1;
nodes = (
"498 210 LINE",
"507 250 LINE",
"194 250 LINE",
"185 210 LINE"
);
},
{
closed = 1;
nodes = (
"464 862 LINE SMOOTH",
"474 870 OFFCURVE",
"486 878 OFFCURVE",
"493 878 CURVE SMOOTH",
"499 878 OFFCURVE",
"506 873 OFFCURVE",
"514 867 CURVE",
"598 781 LINE",
"619 803 LINE",
"530 932 LINE",
"481 932 LINE",
"337 803 LINE",
"350 781 LINE"
);
},
{
closed = 1;
nodes = (
"737 960 LINE SMOOTH",
"761 972 OFFCURVE",
"778 988 OFFCURVE",
"780 1003 CURVE SMOOTH",
"783 1017 OFFCURVE",
"776 1034 OFFCURVE",
"754 1034 CURVE SMOOTH",
"735 1034 OFFCURVE",
"716 1018 OFFCURVE",
"705 1008 CURVE SMOOTH",
"594 915 LINE",
"607 893 LINE"
);
}
);
width = 704;
}
);
leftKerningGroup = A;
note = Acircumflexacute;
rightKerningGroup = A;
unicode = 1EA4;
},
{
glyphname = Acircumflexdotbelow;
lastChange = "2015-10-21 12:18:57 +0000";
layers = (
{
layerId = "09C3AFA4-7ACC-471D-A867-1713CECD7BC9";
name = "Regular Italic";
paths = (
{
closed = 1;
nodes = (
"174 0 LINE",
"179 26 LINE",
"161 26 LINE SMOOTH",
"140 26 OFFCURVE",
"120 36 OFFCURVE",
"120 55 CURVE SMOOTH",
"120 60 OFFCURVE",
"121 66 OFFCURVE",
"125 73 CURVE SMOOTH",
"416 591 LINE",
"491 73 LINE SMOOTH",
"495 43 OFFCURVE",
"475 26 OFFCURVE",
"439 26 CURVE SMOOTH",
"422 26 LINE",
"418 0 LINE",
"660 0 LINE",
"665 26 LINE",
"648 26 LINE SMOOTH",
"625 26 OFFCURVE",
"600 38 OFFCURVE",
"595 61 CURVE",
"489 714 LINE",
"413 684 LINE",
"59 62 LINE SMOOTH",
"45 40 OFFCURVE",
"10 26 OFFCURVE",
"-14 26 CURVE SMOOTH",
"-29 26 LINE",
"-34 0 LINE"
);
},
{
closed = 1;
nodes = (
"314 -159 OFFCURVE",
"338 -134 OFFCURVE",
"338 -100 CURVE SMOOTH",
"338 -78 OFFCURVE",
"325 -64 OFFCURVE",
"302 -64 CURVE SMOOTH",
"272 -64 OFFCURVE",
"247 -90 OFFCURVE",
"247 -124 CURVE SMOOTH",
"247 -145 OFFCURVE",
"260 -159 OFFCURVE",
"283 -159 CURVE SMOOTH"
);
},
{
closed = 1;
nodes = (
"498 210 LINE",
"507 250 LINE",
"194 250 LINE",
"185 210 LINE"
);
},
{
closed = 1;
nodes = (
"468 867 LINE SMOOTH",
"476 873 OFFCURVE",
"487 878 OFFCURVE",
"492 878 CURVE SMOOTH",
"498 878 OFFCURVE",
"505 873 OFFCURVE",
"513 867 CURVE",
"599 781 LINE",
"621 802 LINE",
"529 931 LINE",
"478 931 LINE",
"333 802 LINE",
"348 781 LINE"
);
}
);
width = 704;
}
);
leftKerningGroup = A;
note = Acircumflexdotbelow;
rightKerningGroup = A;
unicode = 1EAC;
},
{
glyphname = Acircumflexgrave;
lastChange = "2015-10-21 12:18:57 +0000";
layers = (
{
layerId = "09C3AFA4-7ACC-471D-A867-1713CECD7BC9";
name = "Regular Italic";
paths = (
{
closed = 1;
nodes = (
"174 0 LINE",
"179 26 LINE",
"161 26 LINE SMOOTH",
"140 26 OFFCURVE",
"120 36 OFFCURVE",
"120 55 CURVE SMOOTH",
"120 60 OFFCURVE",
"121 66 OFFCURVE",
"125 73 CURVE SMOOTH",
"416 591 LINE",
"491 73 LINE SMOOTH",
"495 43 OFFCURVE",
"475 26 OFFCURVE",
"439 26 CURVE SMOOTH",
"422 26 LINE",
"418 0 LINE",
"660 0 LINE",
"665 26 LINE",
"648 26 LINE SMOOTH",
"625 26 OFFCURVE",
"600 38 OFFCURVE",
"595 61 CURVE",
"489 714 LINE",
"413 684 LINE",
"59 62 LINE SMOOTH",
"45 40 OFFCURVE",
"10 26 OFFCURVE",
"-14 26 CURVE SMOOTH",
"-29 26 LINE",
"-34 0 LINE"
);
},
{
closed = 1;
nodes = (
"498 210 LINE",
"507 250 LINE",
"194 250 LINE",
"185 210 LINE"
);
},
{
closed = 1;
nodes = (
"414 915 LINE",
"342 1008 LINE SMOOTH",
"334 1018 OFFCURVE",
"321 1034 OFFCURVE",
"301 1034 CURVE SMOOTH",
"277 1034 OFFCURVE",
"263 1012 OFFCURVE",
"263 997 CURVE SMOOTH",
"263 984 OFFCURVE",
"273 970 OFFCURVE",
"290 960 CURVE",
"393 893 LINE"
);
},
{
closed = 1;
nodes = (
"464 862 LINE SMOOTH",
"474 870 OFFCURVE",
"486 878 OFFCURVE",
"493 878 CURVE SMOOTH",
"499 878 OFFCURVE",
"506 873 OFFCURVE",
"514 867 CURVE",
"598 781 LINE",
"619 803 LINE",
"530 932 LINE",
"481 932 LINE",
"337 803 LINE",
"350 781 LINE"
);
}
);
width = 704;
}
);
leftKerningGroup = A;
note = Acircumflexgrave;
rightKerningGroup = A;
unicode = 1EA6;
},
{
glyphname = Acircumflexhookabove;
lastChange = "2015-10-21 12:18:57 +0000";
layers = (
{
layerId = "09C3AFA4-7ACC-471D-A867-1713CECD7BC9";
name = "Regular Italic";
paths = (
{
closed = 1;
nodes = (
"174 0 LINE",
"179 26 LINE",
"161 26 LINE SMOOTH",
"140 26 OFFCURVE",
"120 36 OFFCURVE",
"120 55 CURVE SMOOTH",
"120 60 OFFCURVE",
"121 66 OFFCURVE",
"125 73 CURVE SMOOTH",
"416 591 LINE",
"491 73 LINE SMOOTH",
"495 43 OFFCURVE",
"475 26 OFFCURVE",
"439 26 CURVE SMOOTH",
"422 26 LINE",
"418 0 LINE",
"660 0 LINE",
"665 26 LINE",
"648 26 LINE SMOOTH",
"625 26 OFFCURVE",
"600 38 OFFCURVE",
"595 61 CURVE",
"489 714 LINE",
"413 684 LINE",
"59 62 LINE SMOOTH",
"45 40 OFFCURVE",
"10 26 OFFCURVE",
"-14 26 CURVE SMOOTH",
"-29 26 LINE",
"-34 0 LINE"
);
},
{
closed = 1;
nodes = (
"498 210 LINE",
"507 250 LINE",
"194 250 LINE",
"185 210 LINE"
);
},
{
closed = 1;
nodes = (
"459 858 LINE",
"471 868 OFFCURVE",
"485 878 OFFCURVE",
"493 878 CURVE SMOOTH",
"499 878 OFFCURVE",
"506 873 OFFCURVE",
"514 867 CURVE",
"598 781 LINE",
"619 803 LINE",
"530 932 LINE",
"481 932 LINE",
"337 803 LINE",
"350 781 LINE"
);
},
{
closed = 1;
nodes = (
"664 898 LINE",
"648 905 OFFCURVE",
"639 912 OFFCURVE",
"642 926 CURVE SMOOTH",
"648 954 OFFCURVE",
"728 965 OFFCURVE",
"736 1010 CURVE SMOOTH",
"737 1014 OFFCURVE",
"737 1017 OFFCURVE",
"737 1020 CURVE SMOOTH",
"737 1050 OFFCURVE",
"704 1063 OFFCURVE",
"667 1063 CURVE SMOOTH",
"637 1063 OFFCURVE",
"592 1053 OFFCURVE",
"587 1022 CURVE",
"584 1010 OFFCURVE",
"592 1001 OFFCURVE",
"602 1001 CURVE SMOOTH",
"629 1001 OFFCURVE",
"625 1040 OFFCURVE",
"666 1040 CURVE SMOOTH",
"682 1040 OFFCURVE",
"690 1031 OFFCURVE",
"690 1019 CURVE SMOOTH",
"690 974 OFFCURVE",
"610 967 OFFCURVE",
"602 925 CURVE SMOOTH",
"601 922 OFFCURVE",
"601 918 OFFCURVE",
"601 915 CURVE SMOOTH",
"601 896 OFFCURVE",
"615 880 OFFCURVE",
"653 880 CURVE"
);
}
);
width = 704;
}
);
leftKerningGroup = A;
note = Acircumflexhookabove;
rightKerningGroup = A;
unicode = 1EA8;
},
{
glyphname = Acircumflextilde;
lastChange = "2015-10-21 12:18:57 +0000";
layers = (
{
layerId = "09C3AFA4-7ACC-471D-A867-1713CECD7BC9";
name = "Regular Italic";
paths = (
{
closed = 1;
nodes = (
"174 0 LINE",
"179 26 LINE",
"161 26 LINE SMOOTH",
"140 26 OFFCURVE",
"120 36 OFFCURVE",
"120 55 CURVE SMOOTH",
"120 60 OFFCURVE",
"121 66 OFFCURVE",
"125 73 CURVE SMOOTH",
"416 591 LINE",
"491 73 LINE SMOOTH",
"495 43 OFFCURVE",
"475 26 OFFCURVE",
"439 26 CURVE SMOOTH",
"422 26 LINE",
"418 0 LINE",
"660 0 LINE",
"665 26 LINE",
"648 26 LINE SMOOTH",
"625 26 OFFCURVE",
"600 38 OFFCURVE",
"595 61 CURVE",
"489 714 LINE",
"413 684 LINE",
"59 62 LINE SMOOTH",
"45 40 OFFCURVE",
"10 26 OFFCURVE",
"-14 26 CURVE SMOOTH",
"-29 26 LINE",
"-34 0 LINE"
);
},
{
closed = 1;
nodes = (
"498 210 LINE",
"507 250 LINE",
"194 250 LINE",
"185 210 LINE"
);
},
{
closed = 1;
nodes = (
"464 862 LINE SMOOTH",
"474 870 OFFCURVE",
"486 878 OFFCURVE",
"493 878 CURVE SMOOTH",
"499 878 OFFCURVE",
"506 873 OFFCURVE",
"514 867 CURVE",
"598 781 LINE",
"619 803 LINE",
"530 932 LINE",
"481 932 LINE",
"337 803 LINE",
"350 781 LINE"
);
},
{
closed = 1;
nodes = (
"397 997 OFFCURVE",
"420 1018 OFFCURVE",
"449 1018 CURVE SMOOTH",
"496 1018 OFFCURVE",
"530 964 OFFCURVE",
"577 964 CURVE SMOOTH",
"627 964 OFFCURVE",
"665 1012 OFFCURVE",
"687 1063 CURVE",
"669 1075 LINE",
"649 1035 OFFCURVE",
"629 1012 OFFCURVE",
"598 1012 CURVE SMOOTH",
"553 1012 OFFCURVE",
"516 1065 OFFCURVE",
"469 1065 CURVE SMOOTH",
"420 1065 OFFCURVE",
"381 1021 OFFCURVE",
"361 970 CURVE",
"377 958 LINE"
);
}
);
width = 704;
}
);
leftKerningGroup = A;
note = Acircumflextilde;
rightKerningGroup = A;
unicode = 1EAA;
},
{
glyphname = Adieresis;
lastChange = "2015-10-21 12:18:57 +0000";
layers = (
{
layerId = "09C3AFA4-7ACC-471D-A867-1713CECD7BC9";
name = "Regular Italic";
paths = (
{
closed = 1;
nodes = (
"174 0 LINE",
"179 26 LINE",
"161 26 LINE SMOOTH",
"140 26 OFFCURVE",
"120 36 OFFCURVE",
"120 55 CURVE SMOOTH",
"120 60 OFFCURVE",
"121 66 OFFCURVE",
"125 73 CURVE SMOOTH",
"416 591 LINE",
"491 73 LINE SMOOTH",
"495 43 OFFCURVE",
"475 26 OFFCURVE",
"439 26 CURVE SMOOTH",
"422 26 LINE",
"418 0 LINE",
"660 0 LINE",
"665 26 LINE",
"648 26 LINE SMOOTH",
"625 26 OFFCURVE",
"600 38 OFFCURVE",
"595 61 CURVE",
"489 714 LINE",
"413 684 LINE",
"59 62 LINE SMOOTH",
"45 40 OFFCURVE",
"10 26 OFFCURVE",
"-14 26 CURVE SMOOTH",
"-29 26 LINE",
"-34 0 LINE"
);
},
{
closed = 1;
nodes = (
"498 210 LINE",
"507 250 LINE",
"194 250 LINE",
"185 210 LINE"
);
},
{
closed = 1;
nodes = (
"392 781 OFFCURVE",
"415 806 OFFCURVE",
"415 840 CURVE SMOOTH",
"415 861 OFFCURVE",
"403 875 OFFCURVE",
"379 875 CURVE SMOOTH",
"352 875 OFFCURVE",
"331 855 OFFCURVE",
"325 827 CURVE SMOOTH",
"325 824 OFFCURVE",
"324 821 OFFCURVE",
"324 818 CURVE SMOOTH",
"324 796 OFFCURVE",
"337 781 OFFCURVE",
"360 781 CURVE SMOOTH"
);
},
{
closed = 1;
nodes = (
"599 781 OFFCURVE",
"622 806 OFFCURVE",
"622 840 CURVE SMOOTH",
"622 861 OFFCURVE",
"610 875 OFFCURVE",
"587 875 CURVE SMOOTH",
"559 875 OFFCURVE",
"537 855 OFFCURVE",
"531 827 CURVE SMOOTH",
"530 823 OFFCURVE",
"530 820 OFFCURVE",
"530 817 CURVE SMOOTH",
"530 795 OFFCURVE",
"544 781 OFFCURVE",
"567 781 CURVE SMOOTH"
);
}
);
width = 704;
}
);
leftKerningGroup = A;
note = Adieresis;
rightKerningGroup = A;
unicode = 00C4;
},
{
glyphname = Adotbelow;
lastChange = "2015-10-21 12:18:57 +0000";
layers = (
{
layerId = "09C3AFA4-7ACC-471D-A867-1713CECD7BC9";
name = "Regular Italic";
paths = (
{
closed = 1;
nodes = (
"174 0 LINE",
"179 26 LINE",
"161 26 LINE SMOOTH",
"140 26 OFFCURVE",
"120 36 OFFCURVE",
"120 55 CURVE SMOOTH",
"120 60 OFFCURVE",
"121 66 OFFCURVE",
"125 73 CURVE SMOOTH",
"416 591 LINE",
"491 73 LINE SMOOTH",
"495 43 OFFCURVE",
"475 26 OFFCURVE",
"439 26 CURVE SMOOTH",
"422 26 LINE",
"418 0 LINE",
"660 0 LINE",
"665 26 LINE",
"648 26 LINE SMOOTH",
"625 26 OFFCURVE",
"600 38 OFFCURVE",
"595 61 CURVE",
"489 714 LINE",
"413 684 LINE",
"59 62 LINE SMOOTH",
"45 40 OFFCURVE",
"10 26 OFFCURVE",
"-14 26 CURVE SMOOTH",
"-29 26 LINE",
"-34 0 LINE"
);
},
{
closed = 1;
nodes = (
"313 -159 OFFCURVE",
"337 -134 OFFCURVE",
"337 -100 CURVE SMOOTH",
"337 -78 OFFCURVE",
"324 -64 OFFCURVE",
"301 -64 CURVE SMOOTH",
"271 -64 OFFCURVE",
"246 -90 OFFCURVE",
"246 -124 CURVE SMOOTH",
"246 -145 OFFCURVE",
"259 -159 OFFCURVE",
"282 -159 CURVE SMOOTH"
);
},
{
closed = 1;
nodes = (
"498 210 LINE",
"507 250 LINE",
"194 250 LINE",
"185 210 LINE"
);
}
);
width = 704;
}
);
leftKerningGroup = A;
note = Adotbelow;
rightKerningGroup = A;
unicode = 1EA0;
},
{
glyphname = Agrave;
lastChange = "2015-10-21 12:18:56 +0000";
layers = (
{
layerId = "09C3AFA4-7ACC-471D-A867-1713CECD7BC9";
name = "Regular Italic";
paths = (
{
closed = 1;
nodes = (
"174 0 LINE",
"179 26 LINE",
"161 26 LINE SMOOTH",
"140 26 OFFCURVE",
"120 36 OFFCURVE",
"120 55 CURVE SMOOTH",
"120 60 OFFCURVE",
"121 66 OFFCURVE",
"125 73 CURVE SMOOTH",
"416 591 LINE",
"491 73 LINE SMOOTH",
"495 43 OFFCURVE",
"475 26 OFFCURVE",
"439 26 CURVE SMOOTH",
"422 26 LINE",
"418 0 LINE",
"660 0 LINE",
"665 26 LINE",
"648 26 LINE SMOOTH",
"625 26 OFFCURVE",
"600 38 OFFCURVE",
"595 61 CURVE",
"489 714 LINE",
"413 684 LINE",
"59 62 LINE SMOOTH",
"45 40 OFFCURVE",
"10 26 OFFCURVE",
"-14 26 CURVE SMOOTH",
"-29 26 LINE",
"-34 0 LINE"
);
},
{
closed = 1;
nodes = (
"498 210 LINE",
"507 250 LINE",
"194 250 LINE",
"185 210 LINE"
);
},
{
closed = 1;
nodes = (
"571 807 LINE",
"483 913 LINE",
"476 922 OFFCURVE",
"464 937 OFFCURVE",
"444 937 CURVE SMOOTH",
"422 937 OFFCURVE",
"407 919 OFFCURVE",
"407 900 CURVE SMOOTH",
"407 886 OFFCURVE",
"415 874 OFFCURVE",
"428 865 CURVE SMOOTH",
"549 782 LINE"
);
}
);
width = 704;
}
);
leftKerningGroup = A;
note = Agrave;
rightKerningGroup = A;
unicode = 00C0;
},
{
glyphname = Ahookabove;
lastChange = "2015-10-21 12:18:57 +0000";
layers = (
{
layerId = "09C3AFA4-7ACC-471D-A867-1713CECD7BC9";
name = "Regular Italic";
paths = (
{
closed = 1;
nodes = (
"174 0 LINE",
"179 26 LINE",
"161 26 LINE SMOOTH",
"140 26 OFFCURVE",
"120 36 OFFCURVE",
"120 55 CURVE SMOOTH",
"120 60 OFFCURVE",
"121 66 OFFCURVE",
"125 73 CURVE SMOOTH",
"416 591 LINE",
"491 73 LINE SMOOTH",
"495 43 OFFCURVE",
"475 26 OFFCURVE",
"439 26 CURVE SMOOTH",
"422 26 LINE",
"418 0 LINE",
"660 0 LINE",
"665 26 LINE",
"648 26 LINE SMOOTH",
"625 26 OFFCURVE",
"600 38 OFFCURVE",
"595 61 CURVE",
"489 714 LINE",
"413 684 LINE",
"59 62 LINE SMOOTH",
"45 40 OFFCURVE",
"10 26 OFFCURVE",
"-14 26 CURVE SMOOTH",
"-29 26 LINE",
"-34 0 LINE"
);
},
{
closed = 1;
nodes = (
"498 210 LINE",
"507 250 LINE",
"194 250 LINE",
"185 210 LINE"
);
},
{
closed = 1;
nodes = (
"528 798 LINE",
"512 805 OFFCURVE",
"501 811 OFFCURVE",
"504 828 CURVE SMOOTH",
"511 861 OFFCURVE",
"600 876 OFFCURVE",
"610 927 CURVE SMOOTH",
"611 931 OFFCURVE",
"611 935 OFFCURVE",
"611 939 CURVE SMOOTH",
"611 973 OFFCURVE",
"583 991 OFFCURVE",
"538 991 CURVE SMOOTH",
"488 991 OFFCURVE",
"442 971 OFFCURVE",
"442 932 CURVE SMOOTH",
"442 920 OFFCURVE",
"448 915 OFFCURVE",
"460 915 CURVE SMOOTH",
"482 915 OFFCURVE",
"488 934 OFFCURVE",
"492 942 CURVE",
"500 956 OFFCURVE",
"517 962 OFFCURVE",
"533 962 CURVE SMOOTH",
"550 962 OFFCURVE",
"560 951 OFFCURVE",
"560 937 CURVE SMOOTH",
"560 886 OFFCURVE",
"468 876 OFFCURVE",
"459 828 CURVE SMOOTH",
"458 824 OFFCURVE",
"458 821 OFFCURVE",
"458 818 CURVE SMOOTH",
"458 795 OFFCURVE",
"473 778 OFFCURVE",
"516 778 CURVE"
);
}
);
width = 704;
}
);
leftKerningGroup = A;
note = Ahookabove;
rightKerningGroup = A;
unicode = 1EA2;
},
{
glyphname = Amacron;
lastChange = "2015-10-21 12:18:56 +0000";
layers = (
{
layerId = "09C3AFA4-7ACC-471D-A867-1713CECD7BC9";
name = "Regular Italic";
paths = (
{
closed = 1;
nodes = (
"174 0 LINE",
"179 26 LINE",
"161 26 LINE SMOOTH",
"140 26 OFFCURVE",
"120 36 OFFCURVE",
"120 55 CURVE SMOOTH",
"120 60 OFFCURVE",
"121 66 OFFCURVE",
"125 73 CURVE SMOOTH",
"416 591 LINE",
"491 73 LINE SMOOTH",
"495 43 OFFCURVE",
"475 26 OFFCURVE",
"439 26 CURVE SMOOTH",
"422 26 LINE",
"418 0 LINE",
"660 0 LINE",
"665 26 LINE",
"648 26 LINE SMOOTH",
"625 26 OFFCURVE",
"600 38 OFFCURVE",
"595 61 CURVE",
"489 714 LINE",
"413 684 LINE",
"59 62 LINE SMOOTH",
"45 40 OFFCURVE",
"10 26 OFFCURVE",
"-14 26 CURVE SMOOTH",
"-29 26 LINE",
"-34 0 LINE"
);
},
{
closed = 1;
nodes = (
"498 210 LINE",
"507 250 LINE",
"194 250 LINE",
"185 210 LINE"
);
},
{
closed = 1;
nodes = (
"633 782 LINE",
"641 824 LINE",
"323 824 LINE",
"314 782 LINE"
);
}
);
width = 704;
}
);
leftKerningGroup = A;
note = Amacron;
rightKerningGroup = A;
unicode = 0100;
},
{
glyphname = Aogonek;
lastChange = "2015-10-21 12:18:57 +0000";
layers = (
{
layerId = "09C3AFA4-7ACC-471D-A867-1713CECD7BC9";
name = "Regular Italic";
paths = (
{
closed = 1;
nodes = (
"174 0 LINE",
"179 26 LINE",
"161 26 LINE SMOOTH",
"140 26 OFFCURVE",
"120 36 OFFCURVE",
"120 55 CURVE SMOOTH",
"120 60 OFFCURVE",
"121 66 OFFCURVE",
"125 73 CURVE SMOOTH",
"416 591 LINE",
"491 73 LINE SMOOTH",
"495 43 OFFCURVE",
"475 26 OFFCURVE",
"439 26 CURVE SMOOTH",
"422 26 LINE",
"418 0 LINE",
"660 0 LINE",
"665 26 LINE",
"648 26 LINE SMOOTH",
"625 26 OFFCURVE",
"600 38 OFFCURVE",
"595 61 CURVE",
"489 714 LINE",
"413 684 LINE",
"59 62 LINE SMOOTH",
"45 40 OFFCURVE",
"10 26 OFFCURVE",
"-14 26 CURVE SMOOTH",
"-29 26 LINE",
"-34 0 LINE"
);
},
{
closed = 1;
nodes = (
"574 -196 OFFCURVE",
"601 -189 OFFCURVE",
"629 -172 CURVE",
"627 -152 LINE",
"611 -158 OFFCURVE",
"593 -162 OFFCURVE",
"582 -162 CURVE SMOOTH",
"555 -162 OFFCURVE",
"534 -150 OFFCURVE",
"534 -122 CURVE SMOOTH",
"534 -77 OFFCURVE",
"571 -30 OFFCURVE",
"627 4 CURVE",
"588 4 LINE",
"533 -22 OFFCURVE",
"486 -64 OFFCURVE",
"475 -114 CURVE SMOOTH",
"474 -120 OFFCURVE",
"473 -126 OFFCURVE",
"473 -132 CURVE SMOOTH",
"473 -163 OFFCURVE",
"490 -196 OFFCURVE",
"549 -196 CURVE SMOOTH"
);
},
{
closed = 1;
nodes = (
"498 210 LINE",
"507 250 LINE",
"194 250 LINE",
"185 210 LINE"
);
}
);
width = 704;
}
);
leftKerningGroup = A;
note = Aogonek;
rightKerningGroup = A;
unicode = 0104;
},
{
glyphname = Aring;
lastChange = "2015-10-21 12:18:56 +0000";
layers = (
{
layerId = "09C3AFA4-7ACC-471D-A867-1713CECD7BC9";
name = "Regular Italic";
paths = (
{
closed = 1;
nodes = (
"174 0 LINE",
"179 26 LINE",
"161 26 LINE SMOOTH",
"140 26 OFFCURVE",
"120 36 OFFCURVE",
"120 55 CURVE SMOOTH",
"120 60 OFFCURVE",
"121 66 OFFCURVE",
"125 73 CURVE SMOOTH",
"416 591 LINE",
"491 73 LINE SMOOTH",
"495 43 OFFCURVE",
"475 26 OFFCURVE",
"439 26 CURVE SMOOTH",
"422 26 LINE",
"418 0 LINE",
"660 0 LINE",
"665 26 LINE",
"648 26 LINE SMOOTH",
"625 26 OFFCURVE",
"600 38 OFFCURVE",
"595 61 CURVE",
"489 714 LINE",
"413 684 LINE",
"59 62 LINE SMOOTH",
"45 40 OFFCURVE",
"10 26 OFFCURVE",
"-14 26 CURVE SMOOTH",
"-29 26 LINE",
"-34 0 LINE"
);
},
{
closed = 1;
nodes = (
"498 210 LINE",
"507 250 LINE",
"194 250 LINE",
"185 210 LINE"
);
},
{
closed = 1;
nodes = (
"518 753 OFFCURVE",
"562 789 OFFCURVE",
"573 842 CURVE SMOOTH",
"575 849 OFFCURVE",
"575 856 OFFCURVE",
"575 863 CURVE SMOOTH",
"575 904 OFFCURVE",
"547 931 OFFCURVE",
"501 931 CURVE SMOOTH",
"440 931 OFFCURVE",
"390 885 OFFCURVE",
"390 820 CURVE SMOOTH",
"390 779 OFFCURVE",
"420 753 OFFCURVE",
"466 753 CURVE SMOOTH"
);
},
{
closed = 1;
nodes = (
"447 789 OFFCURVE",
"431 804 OFFCURVE",
"431 828 CURVE SMOOTH",
"431 833 OFFCURVE",
"432 837 OFFCURVE",
"433 842 CURVE SMOOTH",
"440 875 OFFCURVE",
"465 896 OFFCURVE",
"494 896 CURVE SMOOTH",
"519 896 OFFCURVE",
"536 880 OFFCURVE",
"536 854 CURVE SMOOTH",
"536 815 OFFCURVE",
"505 789 OFFCURVE",
"472 789 CURVE SMOOTH"
);
}
);
width = 704;
}
);
leftKerningGroup = A;
note = Aring;
rightKerningGroup = A;
unicode = 00C5;
},
{
glyphname = Aringacute;
lastChange = "2015-10-21 12:18:56 +0000";
layers = (
{
layerId = "09C3AFA4-7ACC-471D-A867-1713CECD7BC9";
name = "Regular Italic";
paths = (
{
closed = 1;
nodes = (
"174 0 LINE",
"179 26 LINE",
"161 26 LINE SMOOTH",
"140 26 OFFCURVE",
"120 36 OFFCURVE",
"120 55 CURVE SMOOTH",
"120 60 OFFCURVE",
"121 66 OFFCURVE",
"125 73 CURVE SMOOTH",
"416 591 LINE",
"491 73 LINE SMOOTH",
"495 43 OFFCURVE",
"475 26 OFFCURVE",
"439 26 CURVE SMOOTH",
"422 26 LINE",
"418 0 LINE",
"660 0 LINE",
"665 26 LINE",
"648 26 LINE SMOOTH",
"625 26 OFFCURVE",
"600 38 OFFCURVE",
"595 61 CURVE",
"489 714 LINE",
"413 684 LINE",
"59 62 LINE SMOOTH",
"45 40 OFFCURVE",
"10 26 OFFCURVE",
"-14 26 CURVE SMOOTH",
"-29 26 LINE",
"-34 0 LINE"
);
},
{
closed = 1;
nodes = (
"498 210 LINE",
"507 250 LINE",
"194 250 LINE",
"185 210 LINE"
);
},
{
closed = 1;
nodes = (
"518 753 OFFCURVE",
"562 789 OFFCURVE",
"573 842 CURVE SMOOTH",
"575 849 OFFCURVE",
"575 856 OFFCURVE",
"575 863 CURVE SMOOTH",
"575 904 OFFCURVE",
"547 931 OFFCURVE",
"501 931 CURVE SMOOTH",
"440 931 OFFCURVE",
"390 885 OFFCURVE",
"390 820 CURVE SMOOTH",
"390 779 OFFCURVE",
"420 753 OFFCURVE",
"466 753 CURVE SMOOTH"
);
},
{
closed = 1;
nodes = (
"447 789 OFFCURVE",
"431 804 OFFCURVE",
"431 828 CURVE SMOOTH",
"431 833 OFFCURVE",
"432 837 OFFCURVE",
"433 842 CURVE SMOOTH",
"440 875 OFFCURVE",
"465 896 OFFCURVE",
"494 896 CURVE SMOOTH",
"519 896 OFFCURVE",
"536 880 OFFCURVE",
"536 854 CURVE SMOOTH",
"536 815 OFFCURVE",
"505 789 OFFCURVE",
"472 789 CURVE SMOOTH"
);
},
{
closed = 1;
nodes = (
"588 1052 LINE SMOOTH",
"612 1064 OFFCURVE",
"627 1077 OFFCURVE",
"630 1094 CURVE",
"634 1109 OFFCURVE",
"625 1124 OFFCURVE",
"604 1124 CURVE SMOOTH",
"584 1124 OFFCURVE",
"565 1108 OFFCURVE",
"557 1101 CURVE SMOOTH",
"424 994 LINE",
"436 969 LINE"
);
}
);
width = 704;
}
);
leftKerningGroup = A;
note = Aringacute;
rightKerningGroup = A;
unicode = 01FA;
},
{
glyphname = Atilde;
lastChange = "2015-10-21 12:18:57 +0000";
layers = (
{
layerId = "09C3AFA4-7ACC-471D-A867-1713CECD7BC9";
name = "Regular Italic";
paths = (
{
closed = 1;
nodes = (
"174 0 LINE",
"179 26 LINE",
"161 26 LINE SMOOTH",
"140 26 OFFCURVE",
"120 36 OFFCURVE",
"120 55 CURVE SMOOTH",
"120 60 OFFCURVE",
"121 66 OFFCURVE",
"125 73 CURVE SMOOTH",
"416 591 LINE",
"491 73 LINE SMOOTH",
"495 43 OFFCURVE",
"475 26 OFFCURVE",
"439 26 CURVE SMOOTH",
"422 26 LINE",
"418 0 LINE",
"660 0 LINE",
"665 26 LINE",
"648 26 LINE SMOOTH",
"625 26 OFFCURVE",
"600 38 OFFCURVE",
"595 61 CURVE",
"489 714 LINE",
"413 684 LINE",
"59 62 LINE SMOOTH",
"45 40 OFFCURVE",
"10 26 OFFCURVE",
"-14 26 CURVE SMOOTH",
"-29 26 LINE",
"-34 0 LINE"
);
},
{
closed = 1;
nodes = (
"498 210 LINE",
"507 250 LINE",
"194 250 LINE",
"185 210 LINE"
);
},
{
closed = 1;
nodes = (
"355 818 OFFCURVE",
"377 839 OFFCURVE",
"409 839 CURVE SMOOTH",
"458 839 OFFCURVE",
"493 785 OFFCURVE",
"542 785 CURVE SMOOTH",
"598 785 OFFCURVE",
"636 833 OFFCURVE",
"659 885 CURVE",
"640 896 LINE",
"618 856 OFFCURVE",
"598 834 OFFCURVE",
"565 834 CURVE SMOOTH",
"518 834 OFFCURVE",
"479 887 OFFCURVE",
"430 887 CURVE SMOOTH",
"378 887 OFFCURVE",
"338 843 OFFCURVE",
"316 791 CURVE",
"334 780 LINE"
);
}
);
width = 704;
}
);
leftKerningGroup = A;
note = Atilde;
rightKerningGroup = A;
unicode = 00C3;
},
{
glyphname = AE;
lastChange = "2015-10-21 12:18:56 +0000";
layers = (
{
layerId = "09C3AFA4-7ACC-471D-A867-1713CECD7BC9";
name = "Regular Italic";
paths = (
{
closed = 1;
nodes = (
"180 0 LINE",
"184 26 LINE",
"167 26 LINE SMOOTH",
"147 26 OFFCURVE",
"122 37 OFFCURVE",
"122 53 CURVE SMOOTH",
"122 57 OFFCURVE",
"124 61 OFFCURVE",
"127 65 CURVE SMOOTH",
"238 210 LINE",
"477 210 LINE",
"447 62 LINE SMOOTH",
"442 37 OFFCURVE",
"418 26 OFFCURVE",
"388 26 CURVE SMOOTH",
"366 26 LINE",
"361 0 LINE",
"850 0 LINE",
"902 179 LINE",
"877 179 LINE",
"860 124 OFFCURVE",
"825 40 OFFCURVE",
"763 40 CURVE SMOOTH",
"537 40 LINE",
"599 348 LINE",
"755 348 LINE SMOOTH",
"782 348 OFFCURVE",
"789 328 OFFCURVE",
"789 301 CURVE SMOOTH",
"789 286 OFFCURVE",
"787 268 OFFCURVE",
"785 251 CURVE",
"808 251 LINE",
"856 485 LINE",
"833 485 LINE",
"819 436 OFFCURVE",
"805 388 OFFCURVE",
"763 388 CURVE SMOOTH",
"608 388 LINE",
"663 659 LINE",
"876 659 LINE SMOOTH",
"925 659 OFFCURVE",
"936 616 OFFCURVE",
"936 576 CURVE SMOOTH",
"936 557 OFFCURVE",
"934 540 OFFCURVE",
"932 527 CURVE",
"958 527 LINE",
"993 700 LINE",
"492 700 LINE",
"488 673 LINE",
"517 673 LINE SMOOTH",
"524 673 OFFCURVE",
"527 668 OFFCURVE",
"527 662 CURVE SMOOTH",
"527 657 OFFCURVE",
"526 651 OFFCURVE",
"522 647 CURVE SMOOTH",
"84 88 LINE SMOOTH",
"60 57 OFFCURVE",
"35 26 OFFCURVE",
"-9 26 CURVE SMOOTH",
"-23 26 LINE",
"-28 0 LINE"
);
},
{
closed = 1;
nodes = (
"562 622 LINE",
"486 250 LINE",
"270 250 LINE"
);
}
);
width = 939;
}
);
leftKerningGroup = A;
note = AE;
rightKerningGroup = E;
unicode = 00C6;
},
{
glyphname = AEacute;
lastChange = "2015-10-21 12:18:56 +0000";
layers = (
{
layerId = "09C3AFA4-7ACC-471D-A867-1713CECD7BC9";
name = "Regular Italic";
paths = (
{
closed = 1;
nodes = (
"180 0 LINE",
"184 26 LINE",
"167 26 LINE SMOOTH",
"147 26 OFFCURVE",
"122 37 OFFCURVE",
"122 53 CURVE SMOOTH",
"122 57 OFFCURVE",
"124 61 OFFCURVE",
"127 65 CURVE SMOOTH",
"238 210 LINE",
"477 210 LINE",
"447 62 LINE SMOOTH",
"442 37 OFFCURVE",
"418 26 OFFCURVE",
"388 26 CURVE SMOOTH",
"366 26 LINE",
"361 0 LINE",
"850 0 LINE",
"902 179 LINE",
"877 179 LINE",
"860 124 OFFCURVE",
"825 40 OFFCURVE",
"763 40 CURVE SMOOTH",
"537 40 LINE",
"599 348 LINE",
"755 348 LINE SMOOTH",
"782 348 OFFCURVE",
"789 328 OFFCURVE",
"789 301 CURVE SMOOTH",
"789 286 OFFCURVE",
"787 268 OFFCURVE",
"785 251 CURVE",
"808 251 LINE",
"856 485 LINE",
"833 485 LINE",
"819 436 OFFCURVE",
"805 388 OFFCURVE",
"763 388 CURVE SMOOTH",
"608 388 LINE",
"663 659 LINE",
"876 659 LINE SMOOTH",
"925 659 OFFCURVE",
"936 616 OFFCURVE",
"936 576 CURVE SMOOTH",
"936 557 OFFCURVE",
"934 540 OFFCURVE",
"932 527 CURVE",
"958 527 LINE",
"993 700 LINE",
"492 700 LINE",
"488 673 LINE",
"517 673 LINE SMOOTH",
"524 673 OFFCURVE",
"527 668 OFFCURVE",
"527 662 CURVE SMOOTH",
"527 657 OFFCURVE",
"526 651 OFFCURVE",
"522 647 CURVE SMOOTH",
"84 88 LINE SMOOTH",
"60 57 OFFCURVE",
"35 26 OFFCURVE",
"-9 26 CURVE SMOOTH",
"-23 26 LINE",
"-28 0 LINE"
);
},
{
closed = 1;
nodes = (
"562 622 LINE",
"486 250 LINE",
"270 250 LINE"
);
},
{
closed = 1;
nodes = (
"876 865 LINE SMOOTH",
"900 877 OFFCURVE",
"914 890 OFFCURVE",
"917 907 CURVE",
"921 922 OFFCURVE",
"912 937 OFFCURVE",
"891 937 CURVE SMOOTH",
"871 937 OFFCURVE",
"852 921 OFFCURVE",
"844 914 CURVE SMOOTH",
"711 807 LINE",
"723 782 LINE"
);
}
);
width = 939;
}
);
leftKerningGroup = A;
note = AEacute;
rightKerningGroup = E;
unicode = 01FC;
},
{
glyphname = B;
lastChange = "2015-10-21 12:18:56 +0000";
layers = (
{
layerId = "09C3AFA4-7ACC-471D-A867-1713CECD7BC9";
name = "Regular Italic";
paths = (
{
closed = 1;
nodes = (
"303 0 LINE SMOOTH",
"446 0 OFFCURVE",
"532 70 OFFCURVE",
"557 189 CURVE SMOOTH",
"560 203 OFFCURVE",
"562 218 OFFCURVE",
"562 233 CURVE SMOOTH",
"562 293 OFFCURVE",
"533 351 OFFCURVE",
"431 367 CURVE",
"431 368 OFFCURVE",
"431 370 OFFCURVE",
"431 370 CURVE",
"516 392 OFFCURVE",
"572 459 OFFCURVE",
"588 534 CURVE SMOOTH",
"591 549 OFFCURVE",
"593 563 OFFCURVE",
"593 576 CURVE SMOOTH",
"593 657 OFFCURVE",
"533 700 OFFCURVE",
"416 700 CURVE SMOOTH",
"121 700 LINE",
"116 673 LINE",
"144 673 LINE SMOOTH",
"177 673 OFFCURVE",
"193 664 OFFCURVE",
"193 645 CURVE SMOOTH",
"193 643 OFFCURVE",
"193 640 OFFCURVE",
"192 637 CURVE SMOOTH",
"75 62 LINE SMOOTH",
"69 37 OFFCURVE",
"49 26 OFFCURVE",
"12 26 CURVE SMOOTH",
"-16 26 LINE",
"-21 0 LINE"
);
},
{
closed = 1;
nodes = (
"227 346 LINE",
"322 346 LINE SMOOTH",
"424 346 OFFCURVE",
"472 311 OFFCURVE",
"472 238 CURVE SMOOTH",
"472 224 OFFCURVE",
"470 209 OFFCURVE",
"467 193 CURVE SMOOTH",
"446 95 OFFCURVE",
"382 40 OFFCURVE",
"272 40 CURVE SMOOTH",
"164 40 LINE"
);
},
{
closed = 1;
nodes = (
"291 659 LINE",
"375 659 LINE SMOOTH",
"456 659 OFFCURVE",
"498 631 OFFCURVE",
"498 570 CURVE SMOOTH",
"498 558 OFFCURVE",
"496 545 OFFCURVE",
"493 531 CURVE SMOOTH",
"476 446 OFFCURVE",
"414 386 OFFCURVE",
"330 386 CURVE SMOOTH",
"235 386 LINE"
);
}
);
width = 585;
}
);
note = B;
unicode = 0042;
},
{
glyphname = C;
lastChange = "2015-10-21 12:18:56 +0000";
layers = (
{
layerId = "09C3AFA4-7ACC-471D-A867-1713CECD7BC9";
name = "Regular Italic";
paths = (
{
closed = 1;
nodes = (
"451 -10 OFFCURVE",
"564 59 OFFCURVE",
"611 171 CURVE",
"573 171 LINE",
"519 69 OFFCURVE",
"418 31 OFFCURVE",
"338 31 CURVE SMOOTH",
"212 31 OFFCURVE",
"155 109 OFFCURVE",
"155 235 CURVE SMOOTH",
"155 270 OFFCURVE",
"160 309 OFFCURVE",
"168 350 CURVE SMOOTH",
"206 541 OFFCURVE",
"318 668 OFFCURVE",
"478 668 CURVE SMOOTH",
"570 668 OFFCURVE",
"640 621 OFFCURVE",
"640 531 CURVE SMOOTH",
"640 525 OFFCURVE",
"640 519 OFFCURVE",
"639 513 CURVE",
"667 513 LINE",
"706 705 LINE",
"671 705 LINE",
"662 661 LINE SMOOTH",
"660 650 OFFCURVE",
"656 646 OFFCURVE",
"651 646 CURVE SMOOTH",
"648 646 OFFCURVE",
"644 649 OFFCURVE",
"643 650 CURVE",
"617 673 OFFCURVE",
"562 710 OFFCURVE",
"468 710 CURVE SMOOTH",
"264 710 OFFCURVE",
"119 574 OFFCURVE",
"73 350 CURVE SMOOTH",
"65 309 OFFCURVE",
"61 272 OFFCURVE",
"61 237 CURVE SMOOTH",
"61 80 OFFCURVE",
"146 -10 OFFCURVE",
"315 -10 CURVE SMOOTH"
);
}
);
width = 644;
}
);
leftKerningGroup = C;
note = C;
rightKerningGroup = C;
unicode = 0043;
},
{
glyphname = Cacute;
lastChange = "2015-10-21 12:18:56 +0000";
layers = (
{
layerId = "09C3AFA4-7ACC-471D-A867-1713CECD7BC9";
name = "Regular Italic";
paths = (
{
closed = 1;
nodes = (
"451 -10 OFFCURVE",
"564 59 OFFCURVE",
"611 171 CURVE",
"573 171 LINE",
"519 69 OFFCURVE",
"418 31 OFFCURVE",
"338 31 CURVE SMOOTH",
"212 31 OFFCURVE",
"155 109 OFFCURVE",
"155 235 CURVE SMOOTH",
"155 270 OFFCURVE",
"160 309 OFFCURVE",
"168 350 CURVE SMOOTH",
"206 541 OFFCURVE",
"318 668 OFFCURVE",
"478 668 CURVE SMOOTH",
"570 668 OFFCURVE",
"640 621 OFFCURVE",
"640 531 CURVE SMOOTH",
"640 525 OFFCURVE",
"640 519 OFFCURVE",
"639 513 CURVE",
"667 513 LINE",
"706 705 LINE",
"671 705 LINE",
"662 661 LINE SMOOTH",
"660 650 OFFCURVE",
"656 646 OFFCURVE",
"651 646 CURVE SMOOTH",
"648 646 OFFCURVE",
"644 649 OFFCURVE",
"643 650 CURVE",
"617 673 OFFCURVE",
"562 710 OFFCURVE",
"468 710 CURVE SMOOTH",
"264 710 OFFCURVE",
"119 574 OFFCURVE",
"73 350 CURVE SMOOTH",
"65 309 OFFCURVE",
"61 272 OFFCURVE",
"61 237 CURVE SMOOTH",
"61 80 OFFCURVE",
"146 -10 OFFCURVE",
"315 -10 CURVE SMOOTH"
);
},
{
closed = 1;
nodes = (
"571 865 LINE SMOOTH",
"595 877 OFFCURVE",
"610 890 OFFCURVE",
"612 907 CURVE",
"616 922 OFFCURVE",
"608 937 OFFCURVE",
"587 937 CURVE SMOOTH",
"566 937 OFFCURVE",
"548 921 OFFCURVE",
"540 914 CURVE SMOOTH",
"407 807 LINE",
"419 782 LINE"
);
}
);
width = 644;
}
);
leftKerningGroup = C;
note = Cacute;
rightKerningGroup = C;
unicode = 0106;
},
{
glyphname = Ccaron;
lastChange = "2015-10-21 12:18:57 +0000";
layers = (
{
layerId = "09C3AFA4-7ACC-471D-A867-1713CECD7BC9";
name = "Regular Italic";
paths = (
{
closed = 1;
nodes = (
"451 -10 OFFCURVE",
"564 59 OFFCURVE",
"611 171 CURVE",
"573 171 LINE",
"519 69 OFFCURVE",
"418 31 OFFCURVE",
"338 31 CURVE SMOOTH",
"212 31 OFFCURVE",
"155 109 OFFCURVE",
"155 235 CURVE SMOOTH",
"155 270 OFFCURVE",
"160 309 OFFCURVE",
"168 350 CURVE SMOOTH",
"206 541 OFFCURVE",
"318 668 OFFCURVE",
"478 668 CURVE SMOOTH",
"570 668 OFFCURVE",
"640 621 OFFCURVE",
"640 531 CURVE SMOOTH",
"640 525 OFFCURVE",
"640 519 OFFCURVE",
"639 513 CURVE",
"667 513 LINE",
"706 705 LINE",
"671 705 LINE",
"662 661 LINE SMOOTH",
"660 650 OFFCURVE",
"656 646 OFFCURVE",
"651 646 CURVE SMOOTH",
"648 646 OFFCURVE",
"644 649 OFFCURVE",
"643 650 CURVE",
"617 673 OFFCURVE",
"562 710 OFFCURVE",
"468 710 CURVE SMOOTH",
"264 710 OFFCURVE",
"119 574 OFFCURVE",
"73 350 CURVE SMOOTH",
"65 309 OFFCURVE",
"61 272 OFFCURVE",
"61 237 CURVE SMOOTH",
"61 80 OFFCURVE",
"146 -10 OFFCURVE",
"315 -10 CURVE SMOOTH"
);
},
{
closed = 1;
nodes = (
"506 782 LINE",
"651 911 LINE",
"637 932 LINE",
"516 847 LINE SMOOTH",
"507 840 OFFCURVE",
"497 836 OFFCURVE",
"492 836 CURVE SMOOTH",
"486 836 OFFCURVE",
"479 840 OFFCURVE",
"471 847 CURVE",
"385 932 LINE",
"363 911 LINE",
"455 782 LINE"
);
}
);
width = 644;
}
);
leftKerningGroup = C;
note = Ccaron;
rightKerningGroup = C;
unicode = 010C;
},
{
glyphname = Ccedilla;
lastChange = "2015-10-21 12:18:57 +0000";
layers = (
{
layerId = "09C3AFA4-7ACC-471D-A867-1713CECD7BC9";
name = "Regular Italic";
paths = (
{
closed = 1;
nodes = (
"451 -10 OFFCURVE",
"564 59 OFFCURVE",
"611 171 CURVE",
"573 171 LINE",
"519 69 OFFCURVE",
"418 31 OFFCURVE",
"338 31 CURVE SMOOTH",
"212 31 OFFCURVE",
"155 109 OFFCURVE",
"155 235 CURVE SMOOTH",
"155 270 OFFCURVE",
"160 309 OFFCURVE",
"168 350 CURVE SMOOTH",
"206 541 OFFCURVE",
"318 668 OFFCURVE",
"478 668 CURVE SMOOTH",
"570 668 OFFCURVE",
"640 621 OFFCURVE",
"640 531 CURVE SMOOTH",
"640 525 OFFCURVE",
"640 519 OFFCURVE",
"639 513 CURVE",
"667 513 LINE",
"706 705 LINE",
"671 705 LINE",
"662 661 LINE SMOOTH",
"660 650 OFFCURVE",
"656 646 OFFCURVE",
"651 646 CURVE SMOOTH",
"648 646 OFFCURVE",
"644 649 OFFCURVE",
"643 650 CURVE",
"617 673 OFFCURVE",
"562 710 OFFCURVE",
"468 710 CURVE SMOOTH",
"264 710 OFFCURVE",
"119 574 OFFCURVE",
"73 350 CURVE SMOOTH",
"65 309 OFFCURVE",
"61 272 OFFCURVE",
"61 237 CURVE SMOOTH",
"61 80 OFFCURVE",
"146 -10 OFFCURVE",
"315 -10 CURVE SMOOTH"
);
},
{
closed = 1;
nodes = (
"300 -217 OFFCURVE",
"373 -200 OFFCURVE",
"388 -129 CURVE SMOOTH",
"389 -124 OFFCURVE",
"389 -119 OFFCURVE",
"389 -115 CURVE SMOOTH",
"389 -70 OFFCURVE",
"341 -58 OFFCURVE",
"305 -58 CURVE",
"352 10 LINE",
"312 10 LINE",
"248 -75 LINE",
"256 -91 LINE",
"279 -91 OFFCURVE",
"334 -95 OFFCURVE",
"326 -131 CURVE SMOOTH",
"318 -173 OFFCURVE",
"279 -185 OFFCURVE",
"232 -185 CURVE SMOOTH",
"223 -185 OFFCURVE",
"211 -185 OFFCURVE",
"203 -183 CURVE",
"191 -212 LINE",
"205 -215 OFFCURVE",
"219 -217 OFFCURVE",
"237 -217 CURVE SMOOTH"
);
}
);
width = 644;
}
);
leftKerningGroup = C;
note = Ccedilla;
rightKerningGroup = C;
unicode = 00C7;
},
{
glyphname = Ccircumflex;
lastChange = "2015-10-21 12:18:57 +0000";
layers = (
{
layerId = "09C3AFA4-7ACC-471D-A867-1713CECD7BC9";
name = "Regular Italic";
paths = (
{
closed = 1;
nodes = (
"451 -10 OFFCURVE",
"564 59 OFFCURVE",
"611 171 CURVE",
"573 171 LINE",
"519 69 OFFCURVE",
"418 31 OFFCURVE",
"338 31 CURVE SMOOTH",
"212 31 OFFCURVE",
"155 109 OFFCURVE",
"155 235 CURVE SMOOTH",
"155 270 OFFCURVE",
"160 309 OFFCURVE",
"168 350 CURVE SMOOTH",
"206 541 OFFCURVE",
"318 668 OFFCURVE",
"478 668 CURVE SMOOTH",
"570 668 OFFCURVE",
"640 621 OFFCURVE",
"640 531 CURVE SMOOTH",
"640 525 OFFCURVE",
"640 519 OFFCURVE",
"639 513 CURVE",
"667 513 LINE",
"706 705 LINE",
"671 705 LINE",
"662 661 LINE SMOOTH",
"660 650 OFFCURVE",
"656 646 OFFCURVE",
"651 646 CURVE SMOOTH",
"648 646 OFFCURVE",
"644 649 OFFCURVE",
"643 650 CURVE",
"617 673 OFFCURVE",
"562 710 OFFCURVE",
"468 710 CURVE SMOOTH",
"264 710 OFFCURVE",
"119 574 OFFCURVE",
"73 350 CURVE SMOOTH",
"65 309 OFFCURVE",
"61 272 OFFCURVE",
"61 237 CURVE SMOOTH",
"61 80 OFFCURVE",
"146 -10 OFFCURVE",
"315 -10 CURVE SMOOTH"
);
},
{
closed = 1;
nodes = (
"479 868 LINE SMOOTH",
"488 874 OFFCURVE",
"498 879 OFFCURVE",
"504 879 CURVE SMOOTH",
"510 879 OFFCURVE",
"516 874 OFFCURVE",
"524 868 CURVE",
"611 782 LINE",
"633 803 LINE",
"540 932 LINE",
"490 932 LINE",
"345 803 LINE",
"359 782 LINE"
);
}
);
width = 644;
}
);
leftKerningGroup = C;
note = Ccircumflex;
rightKerningGroup = C;
unicode = 0108;
},
{
glyphname = Cdotaccent;
lastChange = "2015-10-21 12:18:57 +0000";
layers = (
{
layerId = "09C3AFA4-7ACC-471D-A867-1713CECD7BC9";
name = "Regular Italic";
paths = (
{
closed = 1;
nodes = (
"451 -10 OFFCURVE",
"564 59 OFFCURVE",
"611 171 CURVE",
"573 171 LINE",
"519 69 OFFCURVE",
"418 31 OFFCURVE",
"338 31 CURVE SMOOTH",
"212 31 OFFCURVE",
"155 109 OFFCURVE",
"155 235 CURVE SMOOTH",
"155 270 OFFCURVE",
"160 309 OFFCURVE",
"168 350 CURVE SMOOTH",
"206 541 OFFCURVE",
"318 668 OFFCURVE",
"478 668 CURVE SMOOTH",
"570 668 OFFCURVE",
"640 621 OFFCURVE",
"640 531 CURVE SMOOTH",
"640 525 OFFCURVE",
"640 519 OFFCURVE",
"639 513 CURVE",
"667 513 LINE",
"706 705 LINE",
"671 705 LINE",
"662 661 LINE SMOOTH",
"660 650 OFFCURVE",
"656 646 OFFCURVE",
"651 646 CURVE SMOOTH",
"648 646 OFFCURVE",
"644 649 OFFCURVE",
"643 650 CURVE",
"617 673 OFFCURVE",
"562 710 OFFCURVE",
"468 710 CURVE SMOOTH",
"264 710 OFFCURVE",
"119 574 OFFCURVE",
"73 350 CURVE SMOOTH",
"65 309 OFFCURVE",
"61 272 OFFCURVE",
"61 237 CURVE SMOOTH",
"61 80 OFFCURVE",
"146 -10 OFFCURVE",
"315 -10 CURVE SMOOTH"
);
},
{
closed = 1;
nodes = (
"520 765 OFFCURVE",
"543 790 OFFCURVE",
"543 824 CURVE SMOOTH",
"543 845 OFFCURVE",
"531 858 OFFCURVE",
"508 858 CURVE SMOOTH",
"480 858 OFFCURVE",
"459 839 OFFCURVE",
"453 811 CURVE SMOOTH",
"452 807 OFFCURVE",
"452 803 OFFCURVE",
"452 799 CURVE SMOOTH",
"452 779 OFFCURVE",
"465 765 OFFCURVE",
"489 765 CURVE SMOOTH"
);
}
);
width = 644;
}
);
leftKerningGroup = C;
note = Cdotaccent;
rightKerningGroup = C;
unicode = 010A;
},
{
glyphname = D;
lastChange = "2015-10-21 12:18:57 +0000";
layers = (
{
layerId = "09C3AFA4-7ACC-471D-A867-1713CECD7BC9";
name = "Regular Italic";
paths = (
{
closed = 1;
nodes = (
"280 0 LINE SMOOTH",
"484 0 OFFCURVE",
"608 121 OFFCURVE",
"655 350 CURVE SMOOTH",
"664 393 OFFCURVE",
"668 432 OFFCURVE",
"668 468 CURVE SMOOTH",
"668 619 OFFCURVE",
"588 700 OFFCURVE",
"423 700 CURVE SMOOTH",
"120 700 LINE",
"115 673 LINE",
"144 673 LINE SMOOTH",
"176 673 OFFCURVE",
"193 664 OFFCURVE",
"193 645 CURVE SMOOTH",
"193 643 OFFCURVE",
"193 640 OFFCURVE",
"192 637 CURVE SMOOTH",
"75 62 LINE SMOOTH",
"69 37 OFFCURVE",
"48 26 OFFCURVE",
"12 26 CURVE SMOOTH",
"-17 26 LINE",
"-22 0 LINE"
);
},
{
closed = 1;
nodes = (
"291 660 LINE",
"415 660 LINE SMOOTH",
"523 660 OFFCURVE",
"574 591 OFFCURVE",
"574 472 CURVE SMOOTH",
"574 436 OFFCURVE",
"569 395 OFFCURVE",
"560 350 CURVE SMOOTH",
"519 155 OFFCURVE",
"427 39 OFFCURVE",
"286 39 CURVE SMOOTH",
"164 39 LINE"
);
}
);
width = 661;
}
);
note = D;
rightKerningGroup = D;
unicode = 0044;
},
{
glyphname = Eth;
lastChange = "2015-10-21 12:18:57 +0000";
layers = (
{
layerId = "09C3AFA4-7ACC-471D-A867-1713CECD7BC9";
name = "Regular Italic";
paths = (
{
closed = 1;
nodes = (
"280 0 LINE SMOOTH",
"484 0 OFFCURVE",
"608 121 OFFCURVE",
"655 350 CURVE SMOOTH",
"664 393 OFFCURVE",
"668 432 OFFCURVE",
"668 468 CURVE SMOOTH",
"668 619 OFFCURVE",
"588 700 OFFCURVE",
"423 700 CURVE SMOOTH",
"120 700 LINE",
"115 673 LINE",
"144 673 LINE SMOOTH",
"176 673 OFFCURVE",
"193 664 OFFCURVE",
"193 645 CURVE SMOOTH",
"193 643 OFFCURVE",
"193 640 OFFCURVE",
"192 637 CURVE SMOOTH",
"75 62 LINE SMOOTH",
"69 37 OFFCURVE",
"48 26 OFFCURVE",
"12 26 CURVE SMOOTH",
"-17 26 LINE",
"-22 0 LINE"
);
},
{
closed = 1;
nodes = (
"424 326 LINE",
"434 372 LINE",
"63 372 LINE",
"54 326 LINE"
);
},
{
closed = 1;
nodes = (
"291 660 LINE",
"415 660 LINE SMOOTH",
"523 660 OFFCURVE",
"574 591 OFFCURVE",
"574 472 CURVE SMOOTH",
"574 436 OFFCURVE",
"569 395 OFFCURVE",
"560 350 CURVE SMOOTH",
"519 155 OFFCURVE",
"427 39 OFFCURVE",
"286 39 CURVE SMOOTH",
"164 39 LINE"
);
}
);
width = 661;
}
);
note = Eth;
rightKerningGroup = D;
unicode = 00D0;
},
{
glyphname = Dcaron;
lastChange = "2015-10-21 12:18:56 +0000";
layers = (
{
layerId = "09C3AFA4-7ACC-471D-A867-1713CECD7BC9";
name = "Regular Italic";
paths = (
{
closed = 1;
nodes = (
"280 0 LINE SMOOTH",
"484 0 OFFCURVE",
"608 121 OFFCURVE",
"655 350 CURVE SMOOTH",
"664 393 OFFCURVE",
"668 432 OFFCURVE",
"668 468 CURVE SMOOTH",
"668 619 OFFCURVE",
"588 700 OFFCURVE",
"423 700 CURVE SMOOTH",
"120 700 LINE",
"115 673 LINE",
"144 673 LINE SMOOTH",
"176 673 OFFCURVE",
"193 664 OFFCURVE",
"193 645 CURVE SMOOTH",
"193 643 OFFCURVE",
"193 640 OFFCURVE",
"192 637 CURVE SMOOTH",
"75 62 LINE SMOOTH",
"69 37 OFFCURVE",
"48 26 OFFCURVE",
"12 26 CURVE SMOOTH",
"-17 26 LINE",
"-22 0 LINE"
);
},
{
closed = 1;
nodes = (
"291 660 LINE",
"415 660 LINE SMOOTH",
"523 660 OFFCURVE",
"574 591 OFFCURVE",
"574 472 CURVE SMOOTH",
"574 436 OFFCURVE",
"569 395 OFFCURVE",
"560 350 CURVE SMOOTH",
"519 155 OFFCURVE",
"427 39 OFFCURVE",
"286 39 CURVE SMOOTH",
"164 39 LINE"
);
},
{
closed = 1;
nodes = (
"465 799 LINE",
"610 928 LINE",
"596 949 LINE",
"475 864 LINE SMOOTH",
"466 857 OFFCURVE",
"456 853 OFFCURVE",
"450 853 CURVE SMOOTH",
"444 853 OFFCURVE",
"438 857 OFFCURVE",
"430 864 CURVE",
"344 949 LINE",
"322 928 LINE",
"414 799 LINE"
);
}
);
width = 661;
}
);
note = Dcaron;
rightKerningGroup = D;
unicode = 010E;
},
{
glyphname = Dcroat;
lastChange = "2015-10-21 12:18:56 +0000";
layers = (
{
layerId = "09C3AFA4-7ACC-471D-A867-1713CECD7BC9";
name = "Regular Italic";
paths = (
{
closed = 1;
nodes = (
"280 0 LINE SMOOTH",
"484 0 OFFCURVE",
"608 121 OFFCURVE",
"655 350 CURVE SMOOTH",
"664 393 OFFCURVE",
"668 432 OFFCURVE",
"668 468 CURVE SMOOTH",
"668 619 OFFCURVE",
"588 700 OFFCURVE",
"423 700 CURVE SMOOTH",
"120 700 LINE",
"115 673 LINE",
"144 673 LINE SMOOTH",
"176 673 OFFCURVE",
"193 664 OFFCURVE",
"193 645 CURVE SMOOTH",
"193 643 OFFCURVE",
"193 640 OFFCURVE",
"192 637 CURVE SMOOTH",
"75 62 LINE SMOOTH",
"69 37 OFFCURVE",
"48 26 OFFCURVE",
"12 26 CURVE SMOOTH",
"-17 26 LINE",
"-22 0 LINE"
);
},
{
closed = 1;
nodes = (
"424 326 LINE",
"434 372 LINE",
"63 372 LINE",
"54 326 LINE"
);
},
{
closed = 1;
nodes = (
"291 660 LINE",
"415 660 LINE SMOOTH",
"523 660 OFFCURVE",
"574 591 OFFCURVE",
"574 472 CURVE SMOOTH",
"574 436 OFFCURVE",
"569 395 OFFCURVE",
"560 350 CURVE SMOOTH",
"519 155 OFFCURVE",
"427 39 OFFCURVE",
"286 39 CURVE SMOOTH",
"164 39 LINE"
);
}
);
width = 661;
}
);
note = Dcroat;
rightKerningGroup = D;
unicode = 0110;
},
{
glyphname = Ddotbelow;
lastChange = "2015-10-21 12:18:56 +0000";
layers = (
{
layerId = "09C3AFA4-7ACC-471D-A867-1713CECD7BC9";
name = "Regular Italic";
paths = (
{
closed = 1;
nodes = (
"280 0 LINE SMOOTH",
"484 0 OFFCURVE",
"608 121 OFFCURVE",
"655 350 CURVE SMOOTH",
"664 393 OFFCURVE",
"668 432 OFFCURVE",
"668 468 CURVE SMOOTH",
"668 619 OFFCURVE",
"588 700 OFFCURVE",
"423 700 CURVE SMOOTH",
"120 700 LINE",
"115 673 LINE",
"144 673 LINE SMOOTH",
"176 673 OFFCURVE",
"193 664 OFFCURVE",
"193 645 CURVE SMOOTH",
"193 643 OFFCURVE",
"193 640 OFFCURVE",
"192 637 CURVE SMOOTH",
"75 62 LINE SMOOTH",
"69 37 OFFCURVE",
"48 26 OFFCURVE",
"12 26 CURVE SMOOTH",
"-17 26 LINE",
"-22 0 LINE"
);
},
{
closed = 1;
nodes = (
"272 -159 OFFCURVE",
"297 -135 OFFCURVE",
"297 -101 CURVE SMOOTH",
"297 -79 OFFCURVE",
"284 -64 OFFCURVE",
"261 -64 CURVE SMOOTH",
"231 -64 OFFCURVE",
"205 -89 OFFCURVE",
"205 -123 CURVE SMOOTH",
"205 -145 OFFCURVE",
"219 -159 OFFCURVE",
"242 -159 CURVE SMOOTH"
);
},
{
closed = 1;
nodes = (
"291 660 LINE",
"415 660 LINE SMOOTH",
"523 660 OFFCURVE",
"574 591 OFFCURVE",
"574 472 CURVE SMOOTH",
"574 436 OFFCURVE",
"569 395 OFFCURVE",
"560 350 CURVE SMOOTH",
"519 155 OFFCURVE",
"427 39 OFFCURVE",
"286 39 CURVE SMOOTH",
"164 39 LINE"
);
}
);
width = 661;
}
);
note = Ddotbelow;
rightKerningGroup = D;
unicode = 1E0C;
},
{
glyphname = Dlinebelow;
lastChange = "2015-10-21 12:18:56 +0000";
layers = (
{
layerId = "09C3AFA4-7ACC-471D-A867-1713CECD7BC9";
name = "Regular Italic";
paths = (
{
closed = 1;
nodes = (
"280 0 LINE SMOOTH",
"484 0 OFFCURVE",
"608 121 OFFCURVE",
"655 350 CURVE SMOOTH",
"664 393 OFFCURVE",
"668 432 OFFCURVE",
"668 468 CURVE SMOOTH",
"668 619 OFFCURVE",
"588 700 OFFCURVE",
"423 700 CURVE SMOOTH",
"120 700 LINE",
"115 673 LINE",
"144 673 LINE SMOOTH",
"176 673 OFFCURVE",
"193 664 OFFCURVE",
"193 645 CURVE SMOOTH",
"193 643 OFFCURVE",
"193 640 OFFCURVE",
"192 637 CURVE SMOOTH",
"75 62 LINE SMOOTH",
"69 37 OFFCURVE",
"48 26 OFFCURVE",
"12 26 CURVE SMOOTH",
"-17 26 LINE",
"-22 0 LINE"
);
},
{
closed = 1;
nodes = (
"410 -110 LINE",
"418 -72 LINE",
"100 -72 LINE",
"92 -110 LINE"
);
},
{
closed = 1;
nodes = (
"291 660 LINE",
"415 660 LINE SMOOTH",
"523 660 OFFCURVE",
"574 591 OFFCURVE",
"574 472 CURVE SMOOTH",
"574 436 OFFCURVE",
"569 395 OFFCURVE",
"560 350 CURVE SMOOTH",
"519 155 OFFCURVE",
"427 39 OFFCURVE",
"286 39 CURVE SMOOTH",
"164 39 LINE"
);
}
);
width = 661;
}
);
note = Dlinebelow;
rightKerningGroup = D;
unicode = 1E0E;
},
{
glyphname = E;
lastChange = "2015-10-21 12:18:57 +0000";
layers = (
{
layerId = "09C3AFA4-7ACC-471D-A867-1713CECD7BC9";
name = "Regular Italic";
paths = (
{
closed = 1;
nodes = (
"493 0 LINE",
"546 179 LINE",
"520 179 LINE",
"503 124 OFFCURVE",
"468 40 OFFCURVE",
"407 40 CURVE SMOOTH",
"162 40 LINE",
"289 659 LINE",
"519 659 LINE SMOOTH",
"569 659 OFFCURVE",
"580 614 OFFCURVE",
"580 574 CURVE SMOOTH",
"580 556 OFFCURVE",
"578 539 OFFCURVE",
"576 527 CURVE",
"602 527 LINE",
"636 700 LINE",
"119 700 LINE",
"114 673 LINE",
"141 673 LINE SMOOTH",
"174 673 OFFCURVE",
"191 664 OFFCURVE",
"191 645 CURVE SMOOTH",
"191 643 OFFCURVE",
"191 640 OFFCURVE",
"190 637 CURVE SMOOTH",
"73 62 LINE SMOOTH",
"67 37 OFFCURVE",
"46 26 OFFCURVE",
"9 26 CURVE SMOOTH",
"-18 26 LINE",
"-23 0 LINE"
);
},
{
closed = 1;
nodes = (
"449 251 LINE",
"497 485 LINE",
"474 485 LINE",
"460 436 OFFCURVE",
"447 388 OFFCURVE",
"404 388 CURVE SMOOTH",
"196 388 LINE",
"187 348 LINE",
"396 348 LINE SMOOTH",
"423 348 OFFCURVE",
"430 329 OFFCURVE",
"430 302 CURVE SMOOTH",
"430 286 OFFCURVE",
"428 269 OFFCURVE",
"426 251 CURVE"
);
}
);
width = 583;
}
);
note = E;
rightKerningGroup = E;
unicode = 0045;
},
{
glyphname = Eacute;
lastChange = "2015-10-21 12:18:56 +0000";
layers = (
{
layerId = "09C3AFA4-7ACC-471D-A867-1713CECD7BC9";
name = "Regular Italic";
paths = (
{
closed = 1;
nodes = (
"493 0 LINE",
"546 179 LINE",
"520 179 LINE",
"503 124 OFFCURVE",
"468 40 OFFCURVE",
"407 40 CURVE SMOOTH",
"162 40 LINE",
"289 659 LINE",
"519 659 LINE SMOOTH",
"569 659 OFFCURVE",
"580 614 OFFCURVE",
"580 574 CURVE SMOOTH",
"580 556 OFFCURVE",
"578 539 OFFCURVE",
"576 527 CURVE",
"602 527 LINE",
"636 700 LINE",
"119 700 LINE",
"114 673 LINE",
"141 673 LINE SMOOTH",
"174 673 OFFCURVE",
"191 664 OFFCURVE",
"191 645 CURVE SMOOTH",
"191 643 OFFCURVE",
"191 640 OFFCURVE",
"190 637 CURVE SMOOTH",
"73 62 LINE SMOOTH",
"67 37 OFFCURVE",
"46 26 OFFCURVE",
"9 26 CURVE SMOOTH",
"-18 26 LINE",
"-23 0 LINE"
);
},
{
closed = 1;
nodes = (
"449 251 LINE",
"497 485 LINE",
"474 485 LINE",
"460 436 OFFCURVE",
"447 388 OFFCURVE",
"404 388 CURVE SMOOTH",
"196 388 LINE",
"187 348 LINE",
"396 348 LINE SMOOTH",
"423 348 OFFCURVE",
"430 329 OFFCURVE",
"430 302 CURVE SMOOTH",
"430 286 OFFCURVE",
"428 269 OFFCURVE",
"426 251 CURVE"
);
},
{
closed = 1;
nodes = (
"519 865 LINE SMOOTH",
"543 877 OFFCURVE",
"558 890 OFFCURVE",
"561 907 CURVE",
"564 922 OFFCURVE",
"556 937 OFFCURVE",
"535 937 CURVE SMOOTH",
"515 937 OFFCURVE",
"496 921 OFFCURVE",
"488 914 CURVE SMOOTH",
"355 807 LINE",
"367 782 LINE"
);
}
);
width = 583;
}
);
note = Eacute;
rightKerningGroup = E;
unicode = 00C9;
},
{
glyphname = Ebreve;
lastChange = "2015-10-21 12:18:56 +0000";
layers = (
{
layerId = "09C3AFA4-7ACC-471D-A867-1713CECD7BC9";
name = "Regular Italic";
paths = (
{
closed = 1;
nodes = (
"493 0 LINE",
"546 179 LINE",
"520 179 LINE",
"503 124 OFFCURVE",
"468 40 OFFCURVE",
"407 40 CURVE SMOOTH",
"162 40 LINE",
"289 659 LINE",
"519 659 LINE SMOOTH",
"569 659 OFFCURVE",
"580 614 OFFCURVE",
"580 574 CURVE SMOOTH",
"580 556 OFFCURVE",
"578 539 OFFCURVE",
"576 527 CURVE",
"602 527 LINE",
"636 700 LINE",
"119 700 LINE",
"114 673 LINE",
"141 673 LINE SMOOTH",
"174 673 OFFCURVE",
"191 664 OFFCURVE",
"191 645 CURVE SMOOTH",
"191 643 OFFCURVE",
"191 640 OFFCURVE",
"190 637 CURVE SMOOTH",
"73 62 LINE SMOOTH",
"67 37 OFFCURVE",
"46 26 OFFCURVE",
"9 26 CURVE SMOOTH",
"-18 26 LINE",
"-23 0 LINE"
);
},
{
closed = 1;
nodes = (
"449 251 LINE",
"497 485 LINE",
"474 485 LINE",
"460 436 OFFCURVE",
"447 388 OFFCURVE",
"404 388 CURVE SMOOTH",
"196 388 LINE",
"187 348 LINE",
"396 348 LINE SMOOTH",
"423 348 OFFCURVE",
"430 329 OFFCURVE",
"430 302 CURVE SMOOTH",
"430 286 OFFCURVE",
"428 269 OFFCURVE",
"426 251 CURVE"
);
},
{
closed = 1;
nodes = (
"534 776 OFFCURVE",
"585 832 OFFCURVE",
"604 907 CURVE",
"572 907 LINE",
"555 848 OFFCURVE",
"509 822 OFFCURVE",
"447 822 CURVE SMOOTH",
"386 822 OFFCURVE",
"350 848 OFFCURVE",
"355 907 CURVE",
"324 907 LINE",
"323 897 OFFCURVE",
"322 887 OFFCURVE",
"322 878 CURVE SMOOTH",
"322 816 OFFCURVE",
"355 776 OFFCURVE",
"439 776 CURVE SMOOTH"
);
}
);
width = 583;
}
);
note = Ebreve;
rightKerningGroup = E;
unicode = 0114;
},
{
glyphname = Ecaron;
lastChange = "2015-10-21 12:18:57 +0000";
layers = (
{
layerId = "09C3AFA4-7ACC-471D-A867-1713CECD7BC9";
name = "Regular Italic";
paths = (
{
closed = 1;
nodes = (
"493 0 LINE",
"546 179 LINE",
"520 179 LINE",
"503 124 OFFCURVE",
"468 40 OFFCURVE",
"407 40 CURVE SMOOTH",
"162 40 LINE",
"289 659 LINE",
"519 659 LINE SMOOTH",
"569 659 OFFCURVE",
"580 614 OFFCURVE",
"580 574 CURVE SMOOTH",
"580 556 OFFCURVE",
"578 539 OFFCURVE",
"576 527 CURVE",
"602 527 LINE",
"636 700 LINE",
"119 700 LINE",
"114 673 LINE",
"141 673 LINE SMOOTH",
"174 673 OFFCURVE",
"191 664 OFFCURVE",
"191 645 CURVE SMOOTH",
"191 643 OFFCURVE",
"191 640 OFFCURVE",
"190 637 CURVE SMOOTH",
"73 62 LINE SMOOTH",
"67 37 OFFCURVE",
"46 26 OFFCURVE",
"9 26 CURVE SMOOTH",
"-18 26 LINE",
"-23 0 LINE"
);
},
{
closed = 1;
nodes = (
"449 251 LINE",
"497 485 LINE",
"474 485 LINE",
"460 436 OFFCURVE",
"447 388 OFFCURVE",
"404 388 CURVE SMOOTH",
"196 388 LINE",
"187 348 LINE",
"396 348 LINE SMOOTH",
"423 348 OFFCURVE",
"430 329 OFFCURVE",
"430 302 CURVE SMOOTH",
"430 286 OFFCURVE",
"428 269 OFFCURVE",
"426 251 CURVE"
);
},
{
closed = 1;
nodes = (
"463 782 LINE",
"608 911 LINE",
"594 932 LINE",
"473 847 LINE SMOOTH",
"464 840 OFFCURVE",
"454 836 OFFCURVE",
"448 836 CURVE SMOOTH",
"443 836 OFFCURVE",
"436 840 OFFCURVE",
"428 847 CURVE",
"342 932 LINE",
"320 911 LINE",
"412 782 LINE"
);
}
);
width = 583;
}
);
note = Ecaron;
rightKerningGroup = E;
unicode = 011A;
},
{
glyphname = Ecircumflex;
lastChange = "2015-10-21 12:18:56 +0000";
layers = (
{
layerId = "09C3AFA4-7ACC-471D-A867-1713CECD7BC9";
name = "Regular Italic";
paths = (
{
closed = 1;
nodes = (
"493 0 LINE",
"546 179 LINE",
"520 179 LINE",
"503 124 OFFCURVE",
"468 40 OFFCURVE",
"407 40 CURVE SMOOTH",
"162 40 LINE",
"289 659 LINE",
"519 659 LINE SMOOTH",
"569 659 OFFCURVE",
"580 614 OFFCURVE",
"580 574 CURVE SMOOTH",
"580 556 OFFCURVE",
"578 539 OFFCURVE",
"576 527 CURVE",
"602 527 LINE",
"636 700 LINE",
"119 700 LINE",
"114 673 LINE",
"141 673 LINE SMOOTH",
"174 673 OFFCURVE",
"191 664 OFFCURVE",
"191 645 CURVE SMOOTH",
"191 643 OFFCURVE",
"191 640 OFFCURVE",
"190 637 CURVE SMOOTH",
"73 62 LINE SMOOTH",
"67 37 OFFCURVE",
"46 26 OFFCURVE",
"9 26 CURVE SMOOTH",
"-18 26 LINE",
"-23 0 LINE"
);
},
{
closed = 1;
nodes = (
"449 251 LINE",
"497 485 LINE",
"474 485 LINE",
"460 436 OFFCURVE",
"447 388 OFFCURVE",
"404 388 CURVE SMOOTH",
"196 388 LINE",
"187 348 LINE",
"396 348 LINE SMOOTH",
"423 348 OFFCURVE",
"430 329 OFFCURVE",
"430 302 CURVE SMOOTH",
"430 286 OFFCURVE",
"428 269 OFFCURVE",
"426 251 CURVE"
);
},
{
closed = 1;
nodes = (
"429 868 LINE SMOOTH",
"438 874 OFFCURVE",
"448 879 OFFCURVE",
"454 879 CURVE SMOOTH",
"460 879 OFFCURVE",
"467 874 OFFCURVE",
"474 868 CURVE",
"561 782 LINE",
"583 803 LINE",
"491 932 LINE",
"440 932 LINE",
"295 803 LINE",
"309 782 LINE"
);
}
);
width = 583;
}
);
note = Ecircumflex;
rightKerningGroup = E;
unicode = 00CA;
},
{
glyphname = Ecircumflexacute;
lastChange = "2015-10-21 12:18:56 +0000";
layers = (
{
layerId = "09C3AFA4-7ACC-471D-A867-1713CECD7BC9";
name = "Regular Italic";
paths = (
{
closed = 1;
nodes = (
"493 0 LINE",
"546 179 LINE",
"520 179 LINE",
"503 124 OFFCURVE",
"468 40 OFFCURVE",
"407 40 CURVE SMOOTH",
"162 40 LINE",
"289 659 LINE",
"519 659 LINE SMOOTH",
"569 659 OFFCURVE",
"580 614 OFFCURVE",
"580 574 CURVE SMOOTH",
"580 556 OFFCURVE",
"578 539 OFFCURVE",
"576 527 CURVE",
"602 527 LINE",
"636 700 LINE",
"119 700 LINE",
"114 673 LINE",
"141 673 LINE SMOOTH",
"174 673 OFFCURVE",
"191 664 OFFCURVE",
"191 645 CURVE SMOOTH",
"191 643 OFFCURVE",
"191 640 OFFCURVE",
"190 637 CURVE SMOOTH",
"73 62 LINE SMOOTH",
"67 37 OFFCURVE",
"46 26 OFFCURVE",
"9 26 CURVE SMOOTH",
"-18 26 LINE",
"-23 0 LINE"
);
},
{
closed = 1;
nodes = (
"449 251 LINE",
"497 485 LINE",
"474 485 LINE",
"460 436 OFFCURVE",
"447 388 OFFCURVE",
"404 388 CURVE SMOOTH",
"196 388 LINE",
"187 348 LINE",
"396 348 LINE SMOOTH",
"423 348 OFFCURVE",
"430 329 OFFCURVE",
"430 302 CURVE SMOOTH",
"430 286 OFFCURVE",
"428 269 OFFCURVE",
"426 251 CURVE"
);
},
{
closed = 1;
nodes = (
"416 862 LINE SMOOTH",
"426 870 OFFCURVE",
"438 878 OFFCURVE",
"445 878 CURVE SMOOTH",
"451 878 OFFCURVE",
"458 873 OFFCURVE",
"466 867 CURVE",
"550 781 LINE",
"571 803 LINE",
"482 932 LINE",
"433 932 LINE",
"289 803 LINE",
"302 781 LINE"
);
},
{
closed = 1;
nodes = (
"689 960 LINE SMOOTH",
"713 972 OFFCURVE",
"730 988 OFFCURVE",
"732 1003 CURVE SMOOTH",
"735 1017 OFFCURVE",
"728 1034 OFFCURVE",
"706 1034 CURVE SMOOTH",
"687 1034 OFFCURVE",
"668 1018 OFFCURVE",
"657 1008 CURVE SMOOTH",
"546 915 LINE",
"559 893 LINE"
);
}
);
width = 583;
}
);
note = Ecircumflexacute;
rightKerningGroup = E;
unicode = 1EBE;
},
{
glyphname = Ecircumflexdotbelow;
lastChange = "2015-10-21 12:18:57 +0000";
layers = (
{
layerId = "09C3AFA4-7ACC-471D-A867-1713CECD7BC9";
name = "Regular Italic";
paths = (
{
closed = 1;
nodes = (
"493 0 LINE",
"546 179 LINE",
"520 179 LINE",
"503 124 OFFCURVE",
"468 40 OFFCURVE",
"407 40 CURVE SMOOTH",
"162 40 LINE",
"289 659 LINE",
"519 659 LINE SMOOTH",
"569 659 OFFCURVE",
"580 614 OFFCURVE",
"580 574 CURVE SMOOTH",
"580 556 OFFCURVE",
"578 539 OFFCURVE",
"576 527 CURVE",
"602 527 LINE",
"636 700 LINE",
"119 700 LINE",
"114 673 LINE",
"141 673 LINE SMOOTH",
"174 673 OFFCURVE",
"191 664 OFFCURVE",
"191 645 CURVE SMOOTH",
"191 643 OFFCURVE",
"191 640 OFFCURVE",
"190 637 CURVE SMOOTH",
"73 62 LINE SMOOTH",
"67 37 OFFCURVE",
"46 26 OFFCURVE",
"9 26 CURVE SMOOTH",
"-18 26 LINE",
"-23 0 LINE"
);
},
{
closed = 1;
nodes = (
"270 -159 OFFCURVE",
"294 -134 OFFCURVE",
"294 -100 CURVE SMOOTH",
"294 -78 OFFCURVE",
"281 -64 OFFCURVE",
"258 -64 CURVE SMOOTH",
"227 -64 OFFCURVE",
"203 -90 OFFCURVE",
"203 -124 CURVE SMOOTH",
"203 -145 OFFCURVE",
"216 -159 OFFCURVE",
"239 -159 CURVE SMOOTH"
);
},
{
closed = 1;
nodes = (
"449 251 LINE",
"497 485 LINE",
"474 485 LINE",
"460 436 OFFCURVE",
"447 388 OFFCURVE",
"404 388 CURVE SMOOTH",
"196 388 LINE",
"187 348 LINE",
"396 348 LINE SMOOTH",
"423 348 OFFCURVE",
"430 329 OFFCURVE",
"430 302 CURVE SMOOTH",
"430 286 OFFCURVE",
"428 269 OFFCURVE",
"426 251 CURVE"
);
},
{
closed = 1;
nodes = (
"420 868 LINE SMOOTH",
"428 874 OFFCURVE",
"439 879 OFFCURVE",
"444 879 CURVE SMOOTH",
"450 879 OFFCURVE",
"457 874 OFFCURVE",
"465 868 CURVE",
"551 782 LINE",
"573 803 LINE",
"481 932 LINE",
"430 932 LINE",
"285 803 LINE",
"300 782 LINE"
);
}
);
width = 583;
}
);
note = Ecircumflexdotbelow;
rightKerningGroup = E;
unicode = 1EC6;
},
{
glyphname = Ecircumflexgrave;
lastChange = "2015-10-21 12:18:56 +0000";
layers = (
{
layerId = "09C3AFA4-7ACC-471D-A867-1713CECD7BC9";
name = "Regular Italic";
paths = (
{
closed = 1;
nodes = (
"493 0 LINE",
"546 179 LINE",
"520 179 LINE",
"503 124 OFFCURVE",
"468 40 OFFCURVE",
"407 40 CURVE SMOOTH",
"162 40 LINE",
"289 659 LINE",
"519 659 LINE SMOOTH",
"569 659 OFFCURVE",
"580 614 OFFCURVE",
"580 574 CURVE SMOOTH",
"580 556 OFFCURVE",
"578 539 OFFCURVE",
"576 527 CURVE",
"602 527 LINE",
"636 700 LINE",
"119 700 LINE",
"114 673 LINE",
"141 673 LINE SMOOTH",
"174 673 OFFCURVE",
"191 664 OFFCURVE",
"191 645 CURVE SMOOTH",
"191 643 OFFCURVE",
"191 640 OFFCURVE",
"190 637 CURVE SMOOTH",
"73 62 LINE SMOOTH",
"67 37 OFFCURVE",
"46 26 OFFCURVE",
"9 26 CURVE SMOOTH",
"-18 26 LINE",
"-23 0 LINE"
);
},
{
closed = 1;
nodes = (
"449 251 LINE",
"497 485 LINE",
"474 485 LINE",
"460 436 OFFCURVE",
"447 388 OFFCURVE",
"404 388 CURVE SMOOTH",
"196 388 LINE",
"187 348 LINE",
"396 348 LINE SMOOTH",
"423 348 OFFCURVE",
"430 329 OFFCURVE",
"430 302 CURVE SMOOTH",
"430 286 OFFCURVE",
"428 269 OFFCURVE",
"426 251 CURVE"
);
},
{
closed = 1;
nodes = (
"366 915 LINE",
"294 1008 LINE SMOOTH",
"286 1018 OFFCURVE",
"273 1034 OFFCURVE",
"253 1034 CURVE SMOOTH",
"229 1034 OFFCURVE",
"215 1012 OFFCURVE",
"215 997 CURVE SMOOTH",
"215 984 OFFCURVE",
"225 970 OFFCURVE",
"242 960 CURVE",
"345 893 LINE"
);
},
{
closed = 1;
nodes = (
"416 862 LINE SMOOTH",
"426 870 OFFCURVE",
"438 878 OFFCURVE",
"445 878 CURVE SMOOTH",
"451 878 OFFCURVE",
"458 873 OFFCURVE",
"466 867 CURVE",
"550 781 LINE",
"571 803 LINE",
"482 932 LINE",
"433 932 LINE",
"289 803 LINE",
"302 781 LINE"
);
}
);
width = 583;
}
);
note = Ecircumflexgrave;
rightKerningGroup = E;
unicode = 1EC0;
},
{
glyphname = Ecircumflexhookabove;
lastChange = "2015-10-21 12:18:56 +0000";
layers = (
{
layerId = "09C3AFA4-7ACC-471D-A867-1713CECD7BC9";
name = "Regular Italic";
paths = (
{
closed = 1;
nodes = (
"493 0 LINE",
"546 179 LINE",
"520 179 LINE",
"503 124 OFFCURVE",
"468 40 OFFCURVE",
"407 40 CURVE SMOOTH",
"162 40 LINE",
"289 659 LINE",
"519 659 LINE SMOOTH",
"569 659 OFFCURVE",
"580 614 OFFCURVE",
"580 574 CURVE SMOOTH",
"580 556 OFFCURVE",
"578 539 OFFCURVE",
"576 527 CURVE",
"602 527 LINE",
"636 700 LINE",
"119 700 LINE",
"114 673 LINE",
"141 673 LINE SMOOTH",
"174 673 OFFCURVE",
"191 664 OFFCURVE",
"191 645 CURVE SMOOTH",
"191 643 OFFCURVE",
"191 640 OFFCURVE",
"190 637 CURVE SMOOTH",
"73 62 LINE SMOOTH",
"67 37 OFFCURVE",
"46 26 OFFCURVE",
"9 26 CURVE SMOOTH",
"-18 26 LINE",
"-23 0 LINE"
);
},
{
closed = 1;
nodes = (
"449 251 LINE",
"497 485 LINE",
"474 485 LINE",
"460 436 OFFCURVE",
"447 388 OFFCURVE",
"404 388 CURVE SMOOTH",
"196 388 LINE",
"187 348 LINE",
"396 348 LINE SMOOTH",
"423 348 OFFCURVE",
"430 329 OFFCURVE",
"430 302 CURVE SMOOTH",
"430 286 OFFCURVE",
"428 269 OFFCURVE",
"426 251 CURVE"
);
},
{
closed = 1;
nodes = (
"411 858 LINE",
"423 868 OFFCURVE",
"437 878 OFFCURVE",
"445 878 CURVE SMOOTH",
"451 878 OFFCURVE",
"458 873 OFFCURVE",
"466 867 CURVE",
"550 781 LINE",
"571 803 LINE",
"482 932 LINE",
"433 932 LINE",
"289 803 LINE",
"302 781 LINE"
);
},
{
closed = 1;
nodes = (
"616 898 LINE",
"600 905 OFFCURVE",
"591 912 OFFCURVE",
"594 926 CURVE SMOOTH",
"600 954 OFFCURVE",
"680 965 OFFCURVE",
"688 1010 CURVE SMOOTH",
"689 1014 OFFCURVE",
"689 1017 OFFCURVE",
"689 1020 CURVE SMOOTH",
"689 1050 OFFCURVE",
"656 1063 OFFCURVE",
"619 1063 CURVE SMOOTH",
"589 1063 OFFCURVE",
"544 1053 OFFCURVE",
"539 1022 CURVE",
"536 1010 OFFCURVE",
"544 1001 OFFCURVE",
"554 1001 CURVE SMOOTH",
"581 1001 OFFCURVE",
"577 1040 OFFCURVE",
"618 1040 CURVE SMOOTH",
"634 1040 OFFCURVE",
"642 1031 OFFCURVE",
"642 1019 CURVE SMOOTH",
"642 974 OFFCURVE",
"562 967 OFFCURVE",
"554 925 CURVE SMOOTH",
"553 922 OFFCURVE",
"553 918 OFFCURVE",
"553 915 CURVE SMOOTH",
"553 896 OFFCURVE",
"567 880 OFFCURVE",
"605 880 CURVE"
);
}
);
width = 583;
}
);
note = Ecircumflexhookabove;
rightKerningGroup = E;
unicode = 1EC2;
},
{
glyphname = Ecircumflextilde;
lastChange = "2015-10-21 12:18:57 +0000";
layers = (
{
layerId = "09C3AFA4-7ACC-471D-A867-1713CECD7BC9";
name = "Regular Italic";
paths = (
{
closed = 1;
nodes = (
"493 0 LINE",
"546 179 LINE",
"520 179 LINE",
"503 124 OFFCURVE",
"468 40 OFFCURVE",
"407 40 CURVE SMOOTH",
"162 40 LINE",
"289 659 LINE",
"519 659 LINE SMOOTH",
"569 659 OFFCURVE",
"580 614 OFFCURVE",
"580 574 CURVE SMOOTH",
"580 556 OFFCURVE",
"578 539 OFFCURVE",
"576 527 CURVE",
"602 527 LINE",
"636 700 LINE",
"119 700 LINE",
"114 673 LINE",
"141 673 LINE SMOOTH",
"174 673 OFFCURVE",
"191 664 OFFCURVE",
"191 645 CURVE SMOOTH",
"191 643 OFFCURVE",
"191 640 OFFCURVE",
"190 637 CURVE SMOOTH",
"73 62 LINE SMOOTH",
"67 37 OFFCURVE",
"46 26 OFFCURVE",
"9 26 CURVE SMOOTH",
"-18 26 LINE",
"-23 0 LINE"
);
},
{
closed = 1;
nodes = (
"449 251 LINE",
"497 485 LINE",
"474 485 LINE",
"460 436 OFFCURVE",
"447 388 OFFCURVE",
"404 388 CURVE SMOOTH",
"196 388 LINE",
"187 348 LINE",
"396 348 LINE SMOOTH",
"423 348 OFFCURVE",
"430 329 OFFCURVE",
"430 302 CURVE SMOOTH",
"430 286 OFFCURVE",
"428 269 OFFCURVE",
"426 251 CURVE"
);
},
{
closed = 1;
nodes = (
"416 862 LINE SMOOTH",
"426 870 OFFCURVE",
"438 878 OFFCURVE",
"445 878 CURVE SMOOTH",
"451 878 OFFCURVE",
"458 873 OFFCURVE",
"466 867 CURVE",
"550 781 LINE",
"571 803 LINE",
"482 932 LINE",
"433 932 LINE",
"289 803 LINE",
"302 781 LINE"
);
},
{
closed = 1;
nodes = (
"349 997 OFFCURVE",
"372 1018 OFFCURVE",
"401 1018 CURVE SMOOTH",
"448 1018 OFFCURVE",
"482 964 OFFCURVE",
"529 964 CURVE SMOOTH",
"579 964 OFFCURVE",
"617 1012 OFFCURVE",
"639 1063 CURVE",
"621 1075 LINE",
"601 1035 OFFCURVE",
"581 1012 OFFCURVE",
"550 1012 CURVE SMOOTH",
"505 1012 OFFCURVE",
"468 1065 OFFCURVE",
"421 1065 CURVE SMOOTH",
"372 1065 OFFCURVE",
"333 1021 OFFCURVE",
"313 970 CURVE",
"329 958 LINE"
);
}
);
width = 583;
}
);
note = Ecircumflextilde;
rightKerningGroup = E;
unicode = 1EC4;
},
{
glyphname = Edieresis;
lastChange = "2015-10-21 12:18:56 +0000";
layers = (
{
layerId = "09C3AFA4-7ACC-471D-A867-1713CECD7BC9";
name = "Regular Italic";
paths = (
{
closed = 1;
nodes = (
"493 0 LINE",
"546 179 LINE",
"520 179 LINE",
"503 124 OFFCURVE",
"468 40 OFFCURVE",
"407 40 CURVE SMOOTH",
"162 40 LINE",
"289 659 LINE",
"519 659 LINE SMOOTH",
"569 659 OFFCURVE",
"580 614 OFFCURVE",
"580 574 CURVE SMOOTH",
"580 556 OFFCURVE",
"578 539 OFFCURVE",
"576 527 CURVE",
"602 527 LINE",
"636 700 LINE",
"119 700 LINE",
"114 673 LINE",
"141 673 LINE SMOOTH",
"174 673 OFFCURVE",
"191 664 OFFCURVE",
"191 645 CURVE SMOOTH",
"191 643 OFFCURVE",
"191 640 OFFCURVE",
"190 637 CURVE SMOOTH",
"73 62 LINE SMOOTH",
"67 37 OFFCURVE",
"46 26 OFFCURVE",
"9 26 CURVE SMOOTH",
"-18 26 LINE",
"-23 0 LINE"
);
},
{
closed = 1;
nodes = (
"449 251 LINE",
"497 485 LINE",
"474 485 LINE",
"460 436 OFFCURVE",
"447 388 OFFCURVE",
"404 388 CURVE SMOOTH",
"196 388 LINE",
"187 348 LINE",
"396 348 LINE SMOOTH",
"423 348 OFFCURVE",
"430 329 OFFCURVE",
"430 302 CURVE SMOOTH",
"430 286 OFFCURVE",
"428 269 OFFCURVE",
"426 251 CURVE"
);
},
{
closed = 1;
nodes = (
"368 781 OFFCURVE",
"391 806 OFFCURVE",
"391 840 CURVE SMOOTH",
"391 861 OFFCURVE",
"379 875 OFFCURVE",
"355 875 CURVE SMOOTH",
"328 875 OFFCURVE",
"307 855 OFFCURVE",
"301 827 CURVE SMOOTH",
"301 824 OFFCURVE",
"300 821 OFFCURVE",
"300 818 CURVE SMOOTH",
"300 796 OFFCURVE",
"313 781 OFFCURVE",
"336 781 CURVE SMOOTH"
);
},
{
closed = 1;
nodes = (
"575 781 OFFCURVE",
"598 806 OFFCURVE",
"598 840 CURVE SMOOTH",
"598 861 OFFCURVE",
"586 875 OFFCURVE",
"563 875 CURVE SMOOTH",
"535 875 OFFCURVE",
"513 855 OFFCURVE",
"507 827 CURVE SMOOTH",
"506 823 OFFCURVE",
"506 820 OFFCURVE",
"506 817 CURVE SMOOTH",
"506 795 OFFCURVE",
"520 781 OFFCURVE",
"543 781 CURVE SMOOTH"
);
}
);
width = 583;
}
);
note = Edieresis;
rightKerningGroup = E;
unicode = 00CB;
},
{
glyphname = Edotaccent;
lastChange = "2015-10-21 12:18:57 +0000";
layers = (
{
layerId = "09C3AFA4-7ACC-471D-A867-1713CECD7BC9";
name = "Regular Italic";
paths = (
{
closed = 1;
nodes = (
"493 0 LINE",
"546 179 LINE",
"520 179 LINE",
"503 124 OFFCURVE",
"468 40 OFFCURVE",
"407 40 CURVE SMOOTH",
"162 40 LINE",
"289 659 LINE",
"519 659 LINE SMOOTH",
"569 659 OFFCURVE",
"580 614 OFFCURVE",
"580 574 CURVE SMOOTH",
"580 556 OFFCURVE",
"578 539 OFFCURVE",
"576 527 CURVE",
"602 527 LINE",
"636 700 LINE",
"119 700 LINE",
"114 673 LINE",
"141 673 LINE SMOOTH",
"174 673 OFFCURVE",
"191 664 OFFCURVE",
"191 645 CURVE SMOOTH",
"191 643 OFFCURVE",
"191 640 OFFCURVE",
"190 637 CURVE SMOOTH",
"73 62 LINE SMOOTH",
"67 37 OFFCURVE",
"46 26 OFFCURVE",
"9 26 CURVE SMOOTH",
"-18 26 LINE",
"-23 0 LINE"
);
},
{
closed = 1;
nodes = (
"449 251 LINE",
"497 485 LINE",
"474 485 LINE",
"460 436 OFFCURVE",
"447 388 OFFCURVE",
"404 388 CURVE SMOOTH",
"196 388 LINE",
"187 348 LINE",
"396 348 LINE SMOOTH",
"423 348 OFFCURVE",
"430 329 OFFCURVE",
"430 302 CURVE SMOOTH",
"430 286 OFFCURVE",
"428 269 OFFCURVE",
"426 251 CURVE"
);
},
{
closed = 1;
nodes = (
"468 765 OFFCURVE",
"492 789 OFFCURVE",
"492 822 CURVE SMOOTH",
"492 844 OFFCURVE",
"479 858 OFFCURVE",
"456 858 CURVE SMOOTH",
"428 858 OFFCURVE",
"407 839 OFFCURVE",
"401 811 CURVE SMOOTH",
"400 807 OFFCURVE",
"400 804 OFFCURVE",
"400 800 CURVE SMOOTH",
"400 779 OFFCURVE",
"413 765 OFFCURVE",
"437 765 CURVE SMOOTH"
);
}
);
width = 583;
}
);
note = Edotaccent;
rightKerningGroup = E;
unicode = 0116;
},
{
glyphname = Edotbelow;
lastChange = "2015-10-21 12:18:57 +0000";
layers = (
{
layerId = "09C3AFA4-7ACC-471D-A867-1713CECD7BC9";
name = "Regular Italic";
paths = (
{
closed = 1;
nodes = (
"493 0 LINE",
"546 179 LINE",
"520 179 LINE",
"503 124 OFFCURVE",
"468 40 OFFCURVE",
"407 40 CURVE SMOOTH",
"162 40 LINE",
"289 659 LINE",
"519 659 LINE SMOOTH",
"569 659 OFFCURVE",
"580 614 OFFCURVE",
"580 574 CURVE SMOOTH",
"580 556 OFFCURVE",
"578 539 OFFCURVE",
"576 527 CURVE",
"602 527 LINE",
"636 700 LINE",
"119 700 LINE",
"114 673 LINE",
"141 673 LINE SMOOTH",
"174 673 OFFCURVE",
"191 664 OFFCURVE",
"191 645 CURVE SMOOTH",
"191 643 OFFCURVE",
"191 640 OFFCURVE",
"190 637 CURVE SMOOTH",
"73 62 LINE SMOOTH",
"67 37 OFFCURVE",
"46 26 OFFCURVE",
"9 26 CURVE SMOOTH",
"-18 26 LINE",
"-23 0 LINE"
);
},
{
closed = 1;
nodes = (
"263 -159 OFFCURVE",
"287 -134 OFFCURVE",
"287 -100 CURVE SMOOTH",
"287 -78 OFFCURVE",
"274 -64 OFFCURVE",
"252 -64 CURVE SMOOTH",
"221 -64 OFFCURVE",
"196 -90 OFFCURVE",
"196 -124 CURVE SMOOTH",
"196 -145 OFFCURVE",
"209 -159 OFFCURVE",
"232 -159 CURVE SMOOTH"
);
},
{
closed = 1;
nodes = (
"449 251 LINE",
"497 485 LINE",
"474 485 LINE",
"460 436 OFFCURVE",
"447 388 OFFCURVE",
"404 388 CURVE SMOOTH",
"196 388 LINE",
"187 348 LINE",
"396 348 LINE SMOOTH",
"423 348 OFFCURVE",
"430 329 OFFCURVE",
"430 302 CURVE SMOOTH",
"430 286 OFFCURVE",
"428 269 OFFCURVE",
"426 251 CURVE"
);
}
);
width = 583;
}
);
note = Edotbelow;
rightKerningGroup = E;
unicode = 1EB8;
},
{
glyphname = Egrave;
lastChange = "2015-10-21 12:18:56 +0000";
layers = (
{
layerId = "09C3AFA4-7ACC-471D-A867-1713CECD7BC9";
name = "Regular Italic";
paths = (
{
closed = 1;
nodes = (
"493 0 LINE",
"546 179 LINE",
"520 179 LINE",
"503 124 OFFCURVE",
"468 40 OFFCURVE",
"407 40 CURVE SMOOTH",
"162 40 LINE",
"289 659 LINE",
"519 659 LINE SMOOTH",
"569 659 OFFCURVE",
"580 614 OFFCURVE",
"580 574 CURVE SMOOTH",
"580 556 OFFCURVE",
"578 539 OFFCURVE",
"576 527 CURVE",
"602 527 LINE",
"636 700 LINE",
"119 700 LINE",
"114 673 LINE",
"141 673 LINE SMOOTH",
"174 673 OFFCURVE",
"191 664 OFFCURVE",
"191 645 CURVE SMOOTH",
"191 643 OFFCURVE",
"191 640 OFFCURVE",
"190 637 CURVE SMOOTH",
"73 62 LINE SMOOTH",
"67 37 OFFCURVE",
"46 26 OFFCURVE",
"9 26 CURVE SMOOTH",
"-18 26 LINE",
"-23 0 LINE"
);
},
{
closed = 1;
nodes = (
"449 251 LINE",
"497 485 LINE",
"474 485 LINE",
"460 436 OFFCURVE",
"447 388 OFFCURVE",
"404 388 CURVE SMOOTH",
"196 388 LINE",
"187 348 LINE",
"396 348 LINE SMOOTH",
"423 348 OFFCURVE",
"430 329 OFFCURVE",
"430 302 CURVE SMOOTH",
"430 286 OFFCURVE",
"428 269 OFFCURVE",
"426 251 CURVE"
);
},
{
closed = 1;
nodes = (
"534 807 LINE",
"445 913 LINE",
"439 922 OFFCURVE",
"426 937 OFFCURVE",
"407 937 CURVE SMOOTH",
"388 937 OFFCURVE",
"373 924 OFFCURVE",
"371 908 CURVE SMOOTH",
"370 905 OFFCURVE",
"370 902 OFFCURVE",
"370 899 CURVE SMOOTH",
"370 885 OFFCURVE",
"378 874 OFFCURVE",
"391 865 CURVE SMOOTH",
"512 782 LINE"
);
}
);
width = 583;
}
);
note = Egrave;
rightKerningGroup = E;
unicode = 00C8;
},
{
glyphname = Ehookabove;
lastChange = "2015-10-21 12:18:56 +0000";
layers = (
{
layerId = "09C3AFA4-7ACC-471D-A867-1713CECD7BC9";
name = "Regular Italic";
paths = (
{
closed = 1;
nodes = (
"493 0 LINE",
"546 179 LINE",
"520 179 LINE",
"503 124 OFFCURVE",
"468 40 OFFCURVE",
"407 40 CURVE SMOOTH",
"162 40 LINE",
"289 659 LINE",
"519 659 LINE SMOOTH",
"569 659 OFFCURVE",
"580 614 OFFCURVE",
"580 574 CURVE SMOOTH",
"580 556 OFFCURVE",
"578 539 OFFCURVE",
"576 527 CURVE",
"602 527 LINE",
"636 700 LINE",
"119 700 LINE",
"114 673 LINE",
"141 673 LINE SMOOTH",
"174 673 OFFCURVE",
"191 664 OFFCURVE",
"191 645 CURVE SMOOTH",
"191 643 OFFCURVE",
"191 640 OFFCURVE",
"190 637 CURVE SMOOTH",
"73 62 LINE SMOOTH",
"67 37 OFFCURVE",
"46 26 OFFCURVE",
"9 26 CURVE SMOOTH",
"-18 26 LINE",
"-23 0 LINE"
);
},
{
closed = 1;
nodes = (
"449 251 LINE",
"497 485 LINE",
"474 485 LINE",
"460 436 OFFCURVE",
"447 388 OFFCURVE",
"404 388 CURVE SMOOTH",
"196 388 LINE",
"187 348 LINE",
"396 348 LINE SMOOTH",
"423 348 OFFCURVE",
"430 329 OFFCURVE",
"430 302 CURVE SMOOTH",
"430 286 OFFCURVE",
"428 269 OFFCURVE",
"426 251 CURVE"
);
},
{
closed = 1;
nodes = (
"477 798 LINE",
"461 805 OFFCURVE",
"450 811 OFFCURVE",
"453 828 CURVE SMOOTH",
"460 861 OFFCURVE",
"549 876 OFFCURVE",
"559 927 CURVE SMOOTH",
"560 931 OFFCURVE",
"560 935 OFFCURVE",
"560 939 CURVE SMOOTH",
"560 973 OFFCURVE",
"533 991 OFFCURVE",
"487 991 CURVE SMOOTH",
"439 991 OFFCURVE",
"391 971 OFFCURVE",
"391 932 CURVE SMOOTH",
"391 921 OFFCURVE",
"397 915 OFFCURVE",
"409 915 CURVE SMOOTH",
"431 915 OFFCURVE",
"437 934 OFFCURVE",
"442 942 CURVE",
"449 956 OFFCURVE",
"467 962 OFFCURVE",
"482 962 CURVE SMOOTH",
"502 962 OFFCURVE",
"512 947 OFFCURVE",
"508 930 CURVE SMOOTH",
"498 882 OFFCURVE",
"407 873 OFFCURVE",
"407 818 CURVE SMOOTH",
"407 795 OFFCURVE",
"422 778 OFFCURVE",
"465 778 CURVE"
);
}
);
width = 583;
}
);
note = Ehookabove;
rightKerningGroup = E;
unicode = 1EBA;
},
{
glyphname = Emacron;
lastChange = "2015-10-21 12:18:57 +0000";
layers = (
{
layerId = "09C3AFA4-7ACC-471D-A867-1713CECD7BC9";
name = "Regular Italic";
paths = (
{
closed = 1;
nodes = (
"493 0 LINE",
"546 179 LINE",
"520 179 LINE",
"503 124 OFFCURVE",
"468 40 OFFCURVE",
"407 40 CURVE SMOOTH",
"162 40 LINE",
"289 659 LINE",
"519 659 LINE SMOOTH",
"569 659 OFFCURVE",
"580 614 OFFCURVE",
"580 574 CURVE SMOOTH",
"580 556 OFFCURVE",
"578 539 OFFCURVE",
"576 527 CURVE",
"602 527 LINE",
"636 700 LINE",
"119 700 LINE",
"114 673 LINE",
"141 673 LINE SMOOTH",
"174 673 OFFCURVE",
"191 664 OFFCURVE",
"191 645 CURVE SMOOTH",
"191 643 OFFCURVE",
"191 640 OFFCURVE",
"190 637 CURVE SMOOTH",
"73 62 LINE SMOOTH",
"67 37 OFFCURVE",
"46 26 OFFCURVE",
"9 26 CURVE SMOOTH",
"-18 26 LINE",
"-23 0 LINE"
);
},
{
closed = 1;
nodes = (
"449 251 LINE",
"497 485 LINE",
"474 485 LINE",
"460 436 OFFCURVE",
"447 388 OFFCURVE",
"404 388 CURVE SMOOTH",
"196 388 LINE",
"187 348 LINE",
"396 348 LINE SMOOTH",
"423 348 OFFCURVE",
"430 329 OFFCURVE",
"430 302 CURVE SMOOTH",
"430 286 OFFCURVE",
"428 269 OFFCURVE",
"426 251 CURVE"
);
},
{
closed = 1;
nodes = (
"595 782 LINE",
"604 824 LINE",
"285 824 LINE",
"276 782 LINE"
);
}
);
width = 583;
}
);
note = Emacron;
rightKerningGroup = E;
unicode = 0112;
},
{
glyphname = Eogonek;
lastChange = "2015-10-21 12:18:57 +0000";
layers = (
{
layerId = "09C3AFA4-7ACC-471D-A867-1713CECD7BC9";
name = "Regular Italic";
paths = (
{
closed = 1;
nodes = (
"493 0 LINE",
"546 179 LINE",
"520 179 LINE",
"503 124 OFFCURVE",
"468 40 OFFCURVE",
"407 40 CURVE SMOOTH",
"162 40 LINE",
"289 659 LINE",
"519 659 LINE SMOOTH",
"569 659 OFFCURVE",
"580 614 OFFCURVE",
"580 574 CURVE SMOOTH",
"580 556 OFFCURVE",
"578 539 OFFCURVE",
"576 527 CURVE",
"602 527 LINE",
"636 700 LINE",
"119 700 LINE",
"114 673 LINE",
"141 673 LINE SMOOTH",
"174 673 OFFCURVE",
"191 664 OFFCURVE",
"191 645 CURVE SMOOTH",
"191 643 OFFCURVE",
"191 640 OFFCURVE",
"190 637 CURVE SMOOTH",
"73 62 LINE SMOOTH",
"67 37 OFFCURVE",
"46 26 OFFCURVE",
"9 26 CURVE SMOOTH",
"-18 26 LINE",
"-23 0 LINE"
);
},
{
closed = 1;
nodes = (
"398 -196 OFFCURVE",
"425 -189 OFFCURVE",
"453 -172 CURVE",
"451 -152 LINE",
"435 -158 OFFCURVE",
"418 -162 OFFCURVE",
"406 -162 CURVE SMOOTH",
"379 -162 OFFCURVE",
"358 -150 OFFCURVE",
"358 -122 CURVE SMOOTH",
"358 -77 OFFCURVE",
"395 -30 OFFCURVE",
"451 4 CURVE",
"413 4 LINE",
"350 -25 OFFCURVE",
"298 -75 OFFCURVE",
"298 -133 CURVE SMOOTH",
"298 -163 OFFCURVE",
"314 -196 OFFCURVE",
"373 -196 CURVE SMOOTH"
);
},
{
closed = 1;
nodes = (
"449 251 LINE",
"497 485 LINE",
"474 485 LINE",
"460 436 OFFCURVE",
"447 388 OFFCURVE",
"404 388 CURVE SMOOTH",
"196 388 LINE",
"187 348 LINE",
"396 348 LINE SMOOTH",
"423 348 OFFCURVE",
"430 329 OFFCURVE",
"430 302 CURVE SMOOTH",
"430 286 OFFCURVE",
"428 269 OFFCURVE",
"426 251 CURVE"
);
}
);
width = 583;
}
);
note = Eogonek;
rightKerningGroup = E;
unicode = 0118;
},
{
glyphname = Etilde;
lastChange = "2015-10-21 12:18:57 +0000";
layers = (
{
layerId = "09C3AFA4-7ACC-471D-A867-1713CECD7BC9";
name = "Regular Italic";
paths = (
{
closed = 1;
nodes = (
"493 0 LINE",
"546 179 LINE",
"520 179 LINE",
"503 124 OFFCURVE",
"468 40 OFFCURVE",
"407 40 CURVE SMOOTH",
"162 40 LINE",
"289 659 LINE",
"519 659 LINE SMOOTH",
"569 659 OFFCURVE",
"580 614 OFFCURVE",
"580 574 CURVE SMOOTH",
"580 556 OFFCURVE",
"578 539 OFFCURVE",
"576 527 CURVE",
"602 527 LINE",
"636 700 LINE",
"119 700 LINE",
"114 673 LINE",
"141 673 LINE SMOOTH",
"174 673 OFFCURVE",
"191 664 OFFCURVE",
"191 645 CURVE SMOOTH",
"191 643 OFFCURVE",
"191 640 OFFCURVE",
"190 637 CURVE SMOOTH",
"73 62 LINE SMOOTH",
"67 37 OFFCURVE",
"46 26 OFFCURVE",
"9 26 CURVE SMOOTH",
"-18 26 LINE",
"-23 0 LINE"
);
},
{
closed = 1;
nodes = (
"449 251 LINE",
"497 485 LINE",
"474 485 LINE",
"460 436 OFFCURVE",
"447 388 OFFCURVE",
"404 388 CURVE SMOOTH",
"196 388 LINE",
"187 348 LINE",
"396 348 LINE SMOOTH",
"423 348 OFFCURVE",
"430 329 OFFCURVE",
"430 302 CURVE SMOOTH",
"430 286 OFFCURVE",
"428 269 OFFCURVE",
"426 251 CURVE"
);
},
{
closed = 1;
nodes = (
"310 817 OFFCURVE",
"332 838 OFFCURVE",
"364 838 CURVE SMOOTH",
"413 838 OFFCURVE",
"448 784 OFFCURVE",
"497 784 CURVE SMOOTH",
"553 784 OFFCURVE",
"591 832 OFFCURVE",
"613 884 CURVE",
"595 895 LINE",
"573 855 OFFCURVE",
"553 833 OFFCURVE",
"520 833 CURVE SMOOTH",
"473 833 OFFCURVE",
"434 886 OFFCURVE",
"385 886 CURVE SMOOTH",
"333 886 OFFCURVE",
"293 842 OFFCURVE",
"271 790 CURVE",
"289 779 LINE"
);
}
);
width = 583;
}
);
note = Etilde;
rightKerningGroup = E;
unicode = 1EBC;
},
{
glyphname = F;
lastChange = "2015-10-21 12:18:56 +0000";
layers = (
{
layerId = "09C3AFA4-7ACC-471D-A867-1713CECD7BC9";
name = "Regular Italic";
paths = (
{
closed = 1;
nodes = (
"238 0 LINE",
"243 26 LINE",
"216 26 LINE SMOOTH",
"184 26 OFFCURVE",
"166 34 OFFCURVE",
"166 53 CURVE SMOOTH",
"166 56 OFFCURVE",
"166 59 OFFCURVE",
"167 62 CURVE SMOOTH",
"289 659 LINE",
"520 659 LINE SMOOTH",
"569 659 OFFCURVE",
"580 615 OFFCURVE",
"580 574 CURVE SMOOTH",
"580 556 OFFCURVE",
"578 539 OFFCURVE",
"576 527 CURVE",
"602 527 LINE",
"636 700 LINE",
"119 700 LINE",
"114 673 LINE",
"142 673 LINE SMOOTH",
"175 673 OFFCURVE",
"191 664 OFFCURVE",
"191 645 CURVE SMOOTH",
"191 643 OFFCURVE",
"191 640 OFFCURVE",
"190 637 CURVE SMOOTH",
"73 62 LINE SMOOTH",
"67 37 OFFCURVE",
"46 26 OFFCURVE",
"10 26 CURVE SMOOTH",
"-18 26 LINE",
"-23 0 LINE"
);
},
{
closed = 1;
nodes = (
"430 223 LINE",
"478 457 LINE",
"455 457 LINE",
"441 408 OFFCURVE",
"427 360 OFFCURVE",
"384 360 CURVE SMOOTH",
"192 360 LINE",
"184 320 LINE",
"376 320 LINE SMOOTH",
"404 320 OFFCURVE",
"411 300 OFFCURVE",
"411 273 CURVE SMOOTH",
"411 258 OFFCURVE",
"409 241 OFFCURVE",
"407 223 CURVE"
);
}
);
width = 557;
}
);
note = F;
unicode = 0046;
},
{
glyphname = G;
lastChange = "2015-10-21 12:18:56 +0000";
layers = (
{
layerId = "09C3AFA4-7ACC-471D-A867-1713CECD7BC9";
name = "Regular Italic";
paths = (
{
closed = 1;
nodes = (
"438 -10 OFFCURVE",
"518 19 OFFCURVE",
"593 69 CURVE",
"630 249 LINE SMOOTH",
"643 312 OFFCURVE",
"655 330 OFFCURVE",
"694 330 CURVE SMOOTH",
"706 330 LINE",
"709 350 LINE",
"470 350 LINE",
"466 327 LINE",
"483 327 LINE SMOOTH",
"527 327 OFFCURVE",
"547 317 OFFCURVE",
"547 291 CURVE SMOOTH",
"547 287 OFFCURVE",
"546 282 OFFCURVE",
"545 277 CURVE SMOOTH",
"505 78 LINE",
"453 40 OFFCURVE",
"382 31 OFFCURVE",
"338 31 CURVE SMOOTH",
"212 31 OFFCURVE",
"155 109 OFFCURVE",
"155 235 CURVE SMOOTH",
"155 270 OFFCURVE",
"160 309 OFFCURVE",
"168 350 CURVE SMOOTH",
"206 541 OFFCURVE",
"320 668 OFFCURVE",
"479 668 CURVE SMOOTH",
"573 668 OFFCURVE",
"644 621 OFFCURVE",
"644 529 CURVE SMOOTH",
"644 524 OFFCURVE",
"643 519 OFFCURVE",
"643 513 CURVE",
"671 513 LINE",
"709 705 LINE",
"675 705 LINE",
"666 661 LINE SMOOTH",
"664 651 OFFCURVE",
"661 646 OFFCURVE",
"654 646 CURVE SMOOTH",
"651 646 OFFCURVE",
"646 649 OFFCURVE",
"644 651 CURVE SMOOTH",
"612 684 OFFCURVE",
"542 710 OFFCURVE",
"470 710 CURVE SMOOTH",
"265 710 OFFCURVE",
"119 574 OFFCURVE",
"73 350 CURVE SMOOTH",
"65 309 OFFCURVE",
"61 272 OFFCURVE",
"61 237 CURVE SMOOTH",
"61 80 OFFCURVE",
"146 -10 OFFCURVE",
"315 -10 CURVE SMOOTH"
);
}
);
width = 684;
}
);
leftKerningGroup = G;
note = G;
rightKerningGroup = G;
unicode = 0047;
},
{
glyphname = Gbreve;
lastChange = "2015-10-21 12:18:56 +0000";
layers = (
{
layerId = "09C3AFA4-7ACC-471D-A867-1713CECD7BC9";
name = "Regular Italic";
paths = (
{
closed = 1;
nodes = (
"438 -10 OFFCURVE",
"518 19 OFFCURVE",
"593 69 CURVE",
"630 249 LINE SMOOTH",
"643 312 OFFCURVE",
"655 330 OFFCURVE",
"694 330 CURVE SMOOTH",
"706 330 LINE",
"709 350 LINE",
"470 350 LINE",
"466 327 LINE",
"483 327 LINE SMOOTH",
"527 327 OFFCURVE",
"547 317 OFFCURVE",
"547 291 CURVE SMOOTH",
"547 287 OFFCURVE",
"546 282 OFFCURVE",
"545 277 CURVE SMOOTH",
"505 78 LINE",
"453 40 OFFCURVE",
"382 31 OFFCURVE",
"338 31 CURVE SMOOTH",
"212 31 OFFCURVE",
"155 109 OFFCURVE",
"155 235 CURVE SMOOTH",
"155 270 OFFCURVE",
"160 309 OFFCURVE",
"168 350 CURVE SMOOTH",
"206 541 OFFCURVE",
"320 668 OFFCURVE",
"479 668 CURVE SMOOTH",
"573 668 OFFCURVE",
"644 621 OFFCURVE",
"644 529 CURVE SMOOTH",
"644 524 OFFCURVE",
"643 519 OFFCURVE",
"643 513 CURVE",
"671 513 LINE",
"709 705 LINE",
"675 705 LINE",
"666 661 LINE SMOOTH",
"664 651 OFFCURVE",
"661 646 OFFCURVE",
"654 646 CURVE SMOOTH",
"651 646 OFFCURVE",
"646 649 OFFCURVE",
"644 651 CURVE SMOOTH",
"612 684 OFFCURVE",
"542 710 OFFCURVE",
"470 710 CURVE SMOOTH",
"265 710 OFFCURVE",
"119 574 OFFCURVE",
"73 350 CURVE SMOOTH",
"65 309 OFFCURVE",
"61 272 OFFCURVE",
"61 237 CURVE SMOOTH",
"61 80 OFFCURVE",
"146 -10 OFFCURVE",
"315 -10 CURVE SMOOTH"
);
},
{
closed = 1;
nodes = (
"578 793 OFFCURVE",
"629 849 OFFCURVE",
"648 924 CURVE",
"616 924 LINE",
"599 865 OFFCURVE",
"553 839 OFFCURVE",
"492 839 CURVE SMOOTH",
"430 839 OFFCURVE",
"395 865 OFFCURVE",
"399 924 CURVE",
"368 924 LINE",
"367 914 OFFCURVE",
"366 904 OFFCURVE",
"366 895 CURVE SMOOTH",
"366 833 OFFCURVE",
"399 793 OFFCURVE",
"483 793 CURVE SMOOTH"
);
}
);
width = 684;
}
);
leftKerningGroup = G;
note = Gbreve;
rightKerningGroup = G;
unicode = 011E;
},
{
glyphname = Gcaron;
lastChange = "2015-10-21 12:18:57 +0000";
layers = (
{
layerId = "09C3AFA4-7ACC-471D-A867-1713CECD7BC9";
name = "Regular Italic";
paths = (
{
closed = 1;
nodes = (
"438 -10 OFFCURVE",
"518 19 OFFCURVE",
"593 69 CURVE",
"630 249 LINE SMOOTH",
"643 312 OFFCURVE",
"655 330 OFFCURVE",
"694 330 CURVE SMOOTH",
"706 330 LINE",
"709 350 LINE",
"470 350 LINE",
"466 327 LINE",
"483 327 LINE SMOOTH",
"527 327 OFFCURVE",
"547 317 OFFCURVE",
"547 291 CURVE SMOOTH",
"547 287 OFFCURVE",
"546 282 OFFCURVE",
"545 277 CURVE SMOOTH",
"505 78 LINE",
"453 40 OFFCURVE",
"382 31 OFFCURVE",
"338 31 CURVE SMOOTH",
"212 31 OFFCURVE",
"155 109 OFFCURVE",
"155 235 CURVE SMOOTH",
"155 270 OFFCURVE",
"160 309 OFFCURVE",
"168 350 CURVE SMOOTH",
"206 541 OFFCURVE",
"320 668 OFFCURVE",
"479 668 CURVE SMOOTH",
"573 668 OFFCURVE",
"644 621 OFFCURVE",
"644 529 CURVE SMOOTH",
"644 524 OFFCURVE",
"643 519 OFFCURVE",
"643 513 CURVE",
"671 513 LINE",
"709 705 LINE",
"675 705 LINE",
"666 661 LINE SMOOTH",
"664 651 OFFCURVE",
"661 646 OFFCURVE",
"654 646 CURVE SMOOTH",
"651 646 OFFCURVE",
"646 649 OFFCURVE",
"644 651 CURVE SMOOTH",
"612 684 OFFCURVE",
"542 710 OFFCURVE",
"470 710 CURVE SMOOTH",
"265 710 OFFCURVE",
"119 574 OFFCURVE",
"73 350 CURVE SMOOTH",
"65 309 OFFCURVE",
"61 272 OFFCURVE",
"61 237 CURVE SMOOTH",
"61 80 OFFCURVE",
"146 -10 OFFCURVE",
"315 -10 CURVE SMOOTH"
);
},
{
closed = 1;
nodes = (
"527 782 LINE",
"672 911 LINE",
"659 932 LINE",
"538 847 LINE SMOOTH",
"528 840 OFFCURVE",
"518 836 OFFCURVE",
"513 836 CURVE SMOOTH",
"507 836 OFFCURVE",
"500 840 OFFCURVE",
"492 847 CURVE",
"406 932 LINE",
"384 911 LINE",
"476 782 LINE"
);
}
);
width = 684;
}
);
leftKerningGroup = G;
note = Gcaron;
rightKerningGroup = G;
unicode = 01E6;
},
{
glyphname = Gcircumflex;
lastChange = "2015-10-21 12:18:56 +0000";
layers = (
{
layerId = "09C3AFA4-7ACC-471D-A867-1713CECD7BC9";
name = "Regular Italic";
paths = (
{
closed = 1;
nodes = (
"438 -10 OFFCURVE",
"518 19 OFFCURVE",
"593 69 CURVE",
"630 249 LINE SMOOTH",
"643 312 OFFCURVE",
"655 330 OFFCURVE",
"694 330 CURVE SMOOTH",
"706 330 LINE",
"709 350 LINE",
"470 350 LINE",
"466 327 LINE",
"483 327 LINE SMOOTH",
"527 327 OFFCURVE",
"547 317 OFFCURVE",
"547 291 CURVE SMOOTH",
"547 287 OFFCURVE",
"546 282 OFFCURVE",
"545 277 CURVE SMOOTH",
"505 78 LINE",
"453 40 OFFCURVE",
"382 31 OFFCURVE",
"338 31 CURVE SMOOTH",
"212 31 OFFCURVE",
"155 109 OFFCURVE",
"155 235 CURVE SMOOTH",
"155 270 OFFCURVE",
"160 309 OFFCURVE",
"168 350 CURVE SMOOTH",
"206 541 OFFCURVE",
"320 668 OFFCURVE",
"479 668 CURVE SMOOTH",
"573 668 OFFCURVE",
"644 621 OFFCURVE",
"644 529 CURVE SMOOTH",
"644 524 OFFCURVE",
"643 519 OFFCURVE",
"643 513 CURVE",
"671 513 LINE",
"709 705 LINE",
"675 705 LINE",
"666 661 LINE SMOOTH",
"664 651 OFFCURVE",
"661 646 OFFCURVE",
"654 646 CURVE SMOOTH",
"651 646 OFFCURVE",
"646 649 OFFCURVE",
"644 651 CURVE SMOOTH",
"612 684 OFFCURVE",
"542 710 OFFCURVE",
"470 710 CURVE SMOOTH",
"265 710 OFFCURVE",
"119 574 OFFCURVE",
"73 350 CURVE SMOOTH",
"65 309 OFFCURVE",
"61 272 OFFCURVE",
"61 237 CURVE SMOOTH",
"61 80 OFFCURVE",
"146 -10 OFFCURVE",
"315 -10 CURVE SMOOTH"
);
},
{
closed = 1;
nodes = (
"483 885 LINE SMOOTH",
"492 891 OFFCURVE",
"502 896 OFFCURVE",
"508 896 CURVE SMOOTH",
"514 896 OFFCURVE",
"520 891 OFFCURVE",
"528 885 CURVE",
"614 799 LINE",
"636 820 LINE",
"544 949 LINE",
"493 949 LINE",
"348 820 LINE",
"363 799 LINE"
);
}
);
width = 684;
}
);
leftKerningGroup = G;
note = Gcircumflex;
rightKerningGroup = G;
unicode = 011C;
},
{
glyphname = Gcommaaccent;
lastChange = "2015-10-21 12:18:56 +0000";
layers = (
{
layerId = "09C3AFA4-7ACC-471D-A867-1713CECD7BC9";
name = "Regular Italic";
paths = (
{
closed = 1;
nodes = (
"438 -10 OFFCURVE",
"518 19 OFFCURVE",
"593 69 CURVE",
"630 249 LINE SMOOTH",
"643 312 OFFCURVE",
"655 330 OFFCURVE",
"694 330 CURVE SMOOTH",
"706 330 LINE",
"709 350 LINE",
"470 350 LINE",
"466 327 LINE",
"483 327 LINE SMOOTH",
"527 327 OFFCURVE",
"547 317 OFFCURVE",
"547 291 CURVE SMOOTH",
"547 287 OFFCURVE",
"546 282 OFFCURVE",
"545 277 CURVE SMOOTH",
"505 78 LINE",
"453 40 OFFCURVE",
"382 31 OFFCURVE",
"338 31 CURVE SMOOTH",
"212 31 OFFCURVE",
"155 109 OFFCURVE",
"155 235 CURVE SMOOTH",
"155 270 OFFCURVE",
"160 309 OFFCURVE",
"168 350 CURVE SMOOTH",
"206 541 OFFCURVE",
"320 668 OFFCURVE",
"479 668 CURVE SMOOTH",
"573 668 OFFCURVE",
"644 621 OFFCURVE",
"644 529 CURVE SMOOTH",
"644 524 OFFCURVE",
"643 519 OFFCURVE",
"643 513 CURVE",
"671 513 LINE",
"709 705 LINE",
"675 705 LINE",
"666 661 LINE SMOOTH",
"664 651 OFFCURVE",
"661 646 OFFCURVE",
"654 646 CURVE SMOOTH",
"651 646 OFFCURVE",
"646 649 OFFCURVE",
"644 651 CURVE SMOOTH",
"612 684 OFFCURVE",
"542 710 OFFCURVE",
"470 710 CURVE SMOOTH",
"265 710 OFFCURVE",
"119 574 OFFCURVE",
"73 350 CURVE SMOOTH",
"65 309 OFFCURVE",
"61 272 OFFCURVE",
"61 237 CURVE SMOOTH",
"61 80 OFFCURVE",
"146 -10 OFFCURVE",
"315 -10 CURVE SMOOTH"
);
},
{
closed = 1;
nodes = (
"292 -258 OFFCURVE",
"346 -198 OFFCURVE",
"359 -135 CURVE SMOOTH",
"361 -126 OFFCURVE",
"362 -119 OFFCURVE",
"362 -112 CURVE SMOOTH",
"362 -80 OFFCURVE",
"344 -67 OFFCURVE",
"322 -67 CURVE SMOOTH",
"290 -67 OFFCURVE",
"268 -92 OFFCURVE",
"268 -120 CURVE SMOOTH",
"268 -144 OFFCURVE",
"288 -153 OFFCURVE",
"288 -177 CURVE SMOOTH",
"288 -180 OFFCURVE",
"288 -184 OFFCURVE",
"287 -187 CURVE SMOOTH",
"279 -223 OFFCURVE",
"248 -256 OFFCURVE",
"217 -282 CURVE",
"229 -299 LINE"
);
}
);
width = 684;
}
);
leftKerningGroup = G;
note = Gcommaaccent;
rightKerningGroup = G;
unicode = 0122;
},
{
glyphname = Gdotaccent;
lastChange = "2015-10-21 12:18:57 +0000";
layers = (
{
layerId = "09C3AFA4-7ACC-471D-A867-1713CECD7BC9";
name = "Regular Italic";
paths = (
{
closed = 1;
nodes = (
"438 -10 OFFCURVE",
"518 19 OFFCURVE",
"593 69 CURVE",
"630 249 LINE SMOOTH",
"643 312 OFFCURVE",
"655 330 OFFCURVE",
"694 330 CURVE SMOOTH",
"706 330 LINE",
"709 350 LINE",
"470 350 LINE",
"466 327 LINE",
"483 327 LINE SMOOTH",
"527 327 OFFCURVE",
"547 317 OFFCURVE",
"547 291 CURVE SMOOTH",
"547 287 OFFCURVE",
"546 282 OFFCURVE",
"545 277 CURVE SMOOTH",
"505 78 LINE",
"453 40 OFFCURVE",
"382 31 OFFCURVE",
"338 31 CURVE SMOOTH",
"212 31 OFFCURVE",
"155 109 OFFCURVE",
"155 235 CURVE SMOOTH",
"155 270 OFFCURVE",
"160 309 OFFCURVE",
"168 350 CURVE SMOOTH",
"206 541 OFFCURVE",
"320 668 OFFCURVE",
"479 668 CURVE SMOOTH",
"573 668 OFFCURVE",
"644 621 OFFCURVE",
"644 529 CURVE SMOOTH",
"644 524 OFFCURVE",
"643 519 OFFCURVE",
"643 513 CURVE",
"671 513 LINE",
"709 705 LINE",
"675 705 LINE",
"666 661 LINE SMOOTH",
"664 651 OFFCURVE",
"661 646 OFFCURVE",
"654 646 CURVE SMOOTH",
"651 646 OFFCURVE",
"646 649 OFFCURVE",
"644 651 CURVE SMOOTH",
"612 684 OFFCURVE",
"542 710 OFFCURVE",
"470 710 CURVE SMOOTH",
"265 710 OFFCURVE",
"119 574 OFFCURVE",
"73 350 CURVE SMOOTH",
"65 309 OFFCURVE",
"61 272 OFFCURVE",
"61 237 CURVE SMOOTH",
"61 80 OFFCURVE",
"146 -10 OFFCURVE",
"315 -10 CURVE SMOOTH"
);
},
{
closed = 1;
nodes = (
"514 782 OFFCURVE",
"538 806 OFFCURVE",
"538 839 CURVE SMOOTH",
"538 861 OFFCURVE",
"525 875 OFFCURVE",
"502 875 CURVE SMOOTH",
"474 875 OFFCURVE",
"453 856 OFFCURVE",
"447 828 CURVE SMOOTH",
"446 824 OFFCURVE",
"446 821 OFFCURVE",
"446 817 CURVE SMOOTH",
"446 796 OFFCURVE",
"459 782 OFFCURVE",
"483 782 CURVE SMOOTH"
);
}
);
width = 684;
}
);
leftKerningGroup = G;
note = Gdotaccent;
rightKerningGroup = G;
unicode = 0120;
},
{
glyphname = Gmacron;
lastChange = "2015-10-21 12:18:57 +0000";
layers = (
{
layerId = "09C3AFA4-7ACC-471D-A867-1713CECD7BC9";
name = "Regular Italic";
paths = (
{
closed = 1;
nodes = (
"438 -10 OFFCURVE",
"518 19 OFFCURVE",
"593 69 CURVE",
"630 249 LINE SMOOTH",
"643 312 OFFCURVE",
"655 330 OFFCURVE",
"694 330 CURVE SMOOTH",
"706 330 LINE",
"709 350 LINE",
"470 350 LINE",
"466 327 LINE",
"483 327 LINE SMOOTH",
"527 327 OFFCURVE",
"547 317 OFFCURVE",
"547 291 CURVE SMOOTH",
"547 287 OFFCURVE",
"546 282 OFFCURVE",
"545 277 CURVE SMOOTH",
"505 78 LINE",
"453 40 OFFCURVE",
"382 31 OFFCURVE",
"338 31 CURVE SMOOTH",
"212 31 OFFCURVE",
"155 109 OFFCURVE",
"155 235 CURVE SMOOTH",
"155 270 OFFCURVE",
"160 309 OFFCURVE",
"168 350 CURVE SMOOTH",
"206 541 OFFCURVE",
"320 668 OFFCURVE",
"479 668 CURVE SMOOTH",
"573 668 OFFCURVE",
"644 621 OFFCURVE",
"644 529 CURVE SMOOTH",
"644 524 OFFCURVE",
"643 519 OFFCURVE",
"643 513 CURVE",
"671 513 LINE",
"709 705 LINE",
"675 705 LINE",
"666 661 LINE SMOOTH",
"664 651 OFFCURVE",
"661 646 OFFCURVE",
"654 646 CURVE SMOOTH",
"651 646 OFFCURVE",
"646 649 OFFCURVE",
"644 651 CURVE SMOOTH",
"612 684 OFFCURVE",
"542 710 OFFCURVE",
"470 710 CURVE SMOOTH",
"265 710 OFFCURVE",
"119 574 OFFCURVE",
"73 350 CURVE SMOOTH",
"65 309 OFFCURVE",
"61 272 OFFCURVE",
"61 237 CURVE SMOOTH",
"61 80 OFFCURVE",
"146 -10 OFFCURVE",
"315 -10 CURVE SMOOTH"
);
},
{
closed = 1;
nodes = (
"641 791 LINE",
"650 833 LINE",
"331 833 LINE",
"323 791 LINE"
);
}
);
width = 684;
}
);
leftKerningGroup = G;
note = Gmacron;
rightKerningGroup = G;
unicode = 1E20;
},
{
glyphname = H;
lastChange = "2015-10-21 12:18:57 +0000";
layers = (
{
layerId = "09C3AFA4-7ACC-471D-A867-1713CECD7BC9";
name = "Regular Italic";
paths = (
{
closed = 1;
nodes = (
"245 0 LINE",
"250 26 LINE",
"221 26 LINE SMOOTH",
"189 26 OFFCURVE",
"172 34 OFFCURVE",
"172 53 CURVE SMOOTH",
"172 56 OFFCURVE",
"172 59 OFFCURVE",
"173 62 CURVE SMOOTH",
"290 637 LINE SMOOTH",
"295 662 OFFCURVE",
"317 673 OFFCURVE",
"353 673 CURVE SMOOTH",
"382 673 LINE",
"387 700 LINE",
"125 700 LINE",
"120 673 LINE",
"148 673 LINE SMOOTH",
"181 673 OFFCURVE",
"197 664 OFFCURVE",
"197 645 CURVE SMOOTH",
"197 643 OFFCURVE",
"197 640 OFFCURVE",
"196 637 CURVE SMOOTH",
"79 62 LINE SMOOTH",
"73 37 OFFCURVE",
"53 26 OFFCURVE",
"15 26 CURVE SMOOTH",
"-12 26 LINE",
"-17 0 LINE"
);
},
{
closed = 1;
nodes = (
"618 348 LINE",
"627 389 LINE",
"192 389 LINE",
"183 348 LINE"
);
},
{
closed = 1;
nodes = (
"683 0 LINE",
"687 26 LINE",
"660 26 LINE SMOOTH",
"628 26 OFFCURVE",
"611 34 OFFCURVE",
"611 53 CURVE SMOOTH",
"611 56 OFFCURVE",
"611 59 OFFCURVE",
"612 62 CURVE SMOOTH",
"729 637 LINE SMOOTH",
"733 662 OFFCURVE",
"756 673 OFFCURVE",
"792 673 CURVE SMOOTH",
"820 673 LINE",
"825 700 LINE",
"564 700 LINE",
"559 673 LINE",
"586 673 LINE SMOOTH",
"623 673 OFFCURVE",
"639 662 OFFCURVE",
"635 637 CURVE SMOOTH",
"517 62 LINE SMOOTH",
"512 37 OFFCURVE",
"491 26 OFFCURVE",
"453 26 CURVE SMOOTH",
"426 26 LINE",
"421 0 LINE"
);
}
);
width = 742;
}
);
note = H;
unicode = 0048;
},
{
glyphname = Hbar;
lastChange = "2015-10-21 12:18:56 +0000";
layers = (
{
layerId = "09C3AFA4-7ACC-471D-A867-1713CECD7BC9";
name = "Regular Italic";
paths = (
{
closed = 1;
nodes = (
"245 0 LINE",
"250 26 LINE",
"221 26 LINE SMOOTH",
"189 26 OFFCURVE",
"172 34 OFFCURVE",
"172 53 CURVE SMOOTH",
"172 56 OFFCURVE",
"172 59 OFFCURVE",
"173 62 CURVE SMOOTH",
"290 637 LINE SMOOTH",
"295 662 OFFCURVE",
"317 673 OFFCURVE",
"353 673 CURVE SMOOTH",
"382 673 LINE",
"387 700 LINE",
"125 700 LINE",
"120 673 LINE",
"148 673 LINE SMOOTH",
"181 673 OFFCURVE",
"197 664 OFFCURVE",
"197 645 CURVE SMOOTH",
"197 643 OFFCURVE",
"197 640 OFFCURVE",
"196 637 CURVE SMOOTH",
"79 62 LINE SMOOTH",
"73 37 OFFCURVE",
"53 26 OFFCURVE",
"15 26 CURVE SMOOTH",
"-12 26 LINE",
"-17 0 LINE"
);
},
{
closed = 1;
nodes = (
"618 348 LINE",
"627 389 LINE",
"192 389 LINE",
"183 348 LINE"
);
},
{
closed = 1;
nodes = (
"755 504 LINE",
"762 544 LINE",
"113 544 LINE",
"106 504 LINE"
);
},
{
closed = 1;
nodes = (
"683 0 LINE",
"687 26 LINE",
"660 26 LINE SMOOTH",
"628 26 OFFCURVE",
"611 34 OFFCURVE",
"611 53 CURVE SMOOTH",
"611 56 OFFCURVE",
"611 59 OFFCURVE",
"612 62 CURVE SMOOTH",
"729 637 LINE SMOOTH",
"733 662 OFFCURVE",
"756 673 OFFCURVE",
"792 673 CURVE SMOOTH",
"820 673 LINE",
"825 700 LINE",
"564 700 LINE",
"559 673 LINE",
"586 673 LINE SMOOTH",
"623 673 OFFCURVE",
"639 662 OFFCURVE",
"635 637 CURVE SMOOTH",
"517 62 LINE SMOOTH",
"512 37 OFFCURVE",
"491 26 OFFCURVE",
"453 26 CURVE SMOOTH",
"426 26 LINE",
"421 0 LINE"
);
}
);
width = 742;
}
);
note = Hbar;
unicode = 0126;
},
{
glyphname = Hbrevebelow;
lastChange = "2015-10-21 12:18:57 +0000";
layers = (
{
layerId = "09C3AFA4-7ACC-471D-A867-1713CECD7BC9";
name = "Regular Italic";
paths = (
{
closed = 1;
nodes = (
"245 0 LINE",
"250 26 LINE",
"221 26 LINE SMOOTH",
"189 26 OFFCURVE",
"172 34 OFFCURVE",
"172 53 CURVE SMOOTH",
"172 56 OFFCURVE",
"172 59 OFFCURVE",
"173 62 CURVE SMOOTH",
"290 637 LINE SMOOTH",
"295 662 OFFCURVE",
"317 673 OFFCURVE",
"353 673 CURVE SMOOTH",
"382 673 LINE",
"387 700 LINE",
"125 700 LINE",
"120 673 LINE",
"148 673 LINE SMOOTH",
"181 673 OFFCURVE",
"197 664 OFFCURVE",
"197 645 CURVE SMOOTH",
"197 643 OFFCURVE",
"197 640 OFFCURVE",
"196 637 CURVE SMOOTH",
"79 62 LINE SMOOTH",
"73 37 OFFCURVE",
"53 26 OFFCURVE",
"15 26 CURVE SMOOTH",
"-12 26 LINE",
"-17 0 LINE"
);
},
{
closed = 1;
nodes = (
"389 -183 OFFCURVE",
"440 -128 OFFCURVE",
"459 -53 CURVE",
"427 -53 LINE",
"410 -111 OFFCURVE",
"364 -137 OFFCURVE",
"303 -137 CURVE SMOOTH",
"242 -137 OFFCURVE",
"206 -111 OFFCURVE",
"211 -53 CURVE",
"180 -53 LINE",
"178 -64 OFFCURVE",
"177 -74 OFFCURVE",
"177 -83 CURVE SMOOTH",
"177 -144 OFFCURVE",
"211 -183 OFFCURVE",
"295 -183 CURVE SMOOTH"
);
},
{
closed = 1;
nodes = (
"618 348 LINE",
"627 389 LINE",
"192 389 LINE",
"183 348 LINE"
);
},
{
closed = 1;
nodes = (
"683 0 LINE",
"687 26 LINE",
"660 26 LINE SMOOTH",
"628 26 OFFCURVE",
"611 34 OFFCURVE",
"611 53 CURVE SMOOTH",
"611 56 OFFCURVE",
"611 59 OFFCURVE",
"612 62 CURVE SMOOTH",
"729 637 LINE SMOOTH",
"733 662 OFFCURVE",
"756 673 OFFCURVE",
"792 673 CURVE SMOOTH",
"820 673 LINE",
"825 700 LINE",
"564 700 LINE",
"559 673 LINE",
"586 673 LINE SMOOTH",
"623 673 OFFCURVE",
"639 662 OFFCURVE",
"635 637 CURVE SMOOTH",
"517 62 LINE SMOOTH",
"512 37 OFFCURVE",
"491 26 OFFCURVE",
"453 26 CURVE SMOOTH",
"426 26 LINE",
"421 0 LINE"
);
}
);
width = 742;
}
);
note = Hbrevebelow;
unicode = 1E2A;
},
{
glyphname = Hcircumflex;
lastChange = "2015-10-21 12:18:56 +0000";
layers = (
{
layerId = "09C3AFA4-7ACC-471D-A867-1713CECD7BC9";
name = "Regular Italic";
paths = (
{
closed = 1;
nodes = (
"245 0 LINE",
"250 26 LINE",
"221 26 LINE SMOOTH",
"189 26 OFFCURVE",
"172 34 OFFCURVE",
"172 53 CURVE SMOOTH",
"172 56 OFFCURVE",
"172 59 OFFCURVE",
"173 62 CURVE SMOOTH",
"290 637 LINE SMOOTH",
"295 662 OFFCURVE",
"317 673 OFFCURVE",
"353 673 CURVE SMOOTH",
"382 673 LINE",
"387 700 LINE",
"125 700 LINE",
"120 673 LINE",
"148 673 LINE SMOOTH",
"181 673 OFFCURVE",
"197 664 OFFCURVE",
"197 645 CURVE SMOOTH",
"197 643 OFFCURVE",
"197 640 OFFCURVE",
"196 637 CURVE SMOOTH",
"79 62 LINE SMOOTH",
"73 37 OFFCURVE",
"53 26 OFFCURVE",
"15 26 CURVE SMOOTH",
"-12 26 LINE",
"-17 0 LINE"
);
},
{
closed = 1;
nodes = (
"618 348 LINE",
"627 389 LINE",
"192 389 LINE",
"183 348 LINE"
);
},
{
closed = 1;
nodes = (
"683 0 LINE",
"687 26 LINE",
"660 26 LINE SMOOTH",
"628 26 OFFCURVE",
"611 34 OFFCURVE",
"611 53 CURVE SMOOTH",
"611 56 OFFCURVE",
"611 59 OFFCURVE",
"612 62 CURVE SMOOTH",
"729 637 LINE SMOOTH",
"733 662 OFFCURVE",
"756 673 OFFCURVE",
"792 673 CURVE SMOOTH",
"820 673 LINE",
"825 700 LINE",
"564 700 LINE",
"559 673 LINE",
"586 673 LINE SMOOTH",
"623 673 OFFCURVE",
"639 662 OFFCURVE",
"635 637 CURVE SMOOTH",
"517 62 LINE SMOOTH",
"512 37 OFFCURVE",
"491 26 OFFCURVE",
"453 26 CURVE SMOOTH",
"426 26 LINE",
"421 0 LINE"
);
},
{
closed = 1;
nodes = (
"485 868 LINE SMOOTH",
"493 874 OFFCURVE",
"504 879 OFFCURVE",
"510 879 CURVE SMOOTH",
"516 879 OFFCURVE",
"522 874 OFFCURVE",
"530 868 CURVE",
"616 782 LINE",
"638 803 LINE",
"546 932 LINE",
"495 932 LINE",
"350 803 LINE",
"365 782 LINE"
);
}
);
width = 742;
}
);
note = Hcircumflex;
unicode = 0124;
},
{
glyphname = Hdotbelow;
lastChange = "2015-10-21 12:18:57 +0000";
layers = (
{
layerId = "09C3AFA4-7ACC-471D-A867-1713CECD7BC9";
name = "Regular Italic";
paths = (
{
closed = 1;
nodes = (
"245 0 LINE",
"250 26 LINE",
"221 26 LINE SMOOTH",
"189 26 OFFCURVE",
"172 34 OFFCURVE",
"172 53 CURVE SMOOTH",
"172 56 OFFCURVE",
"172 59 OFFCURVE",
"173 62 CURVE SMOOTH",
"290 637 LINE SMOOTH",
"295 662 OFFCURVE",
"317 673 OFFCURVE",
"353 673 CURVE SMOOTH",
"382 673 LINE",
"387 700 LINE",
"125 700 LINE",
"120 673 LINE",
"148 673 LINE SMOOTH",
"181 673 OFFCURVE",
"197 664 OFFCURVE",
"197 645 CURVE SMOOTH",
"197 643 OFFCURVE",
"197 640 OFFCURVE",
"196 637 CURVE SMOOTH",
"79 62 LINE SMOOTH",
"73 37 OFFCURVE",
"53 26 OFFCURVE",
"15 26 CURVE SMOOTH",
"-12 26 LINE",
"-17 0 LINE"
);
},
{
closed = 1;
nodes = (
"330 -159 OFFCURVE",
"354 -134 OFFCURVE",
"354 -99 CURVE SMOOTH",
"354 -78 OFFCURVE",
"342 -64 OFFCURVE",
"319 -64 CURVE SMOOTH",
"288 -64 OFFCURVE",
"263 -90 OFFCURVE",
"263 -124 CURVE SMOOTH",
"263 -145 OFFCURVE",
"277 -159 OFFCURVE",
"300 -159 CURVE SMOOTH"
);
},
{
closed = 1;
nodes = (
"618 348 LINE",
"627 389 LINE",
"192 389 LINE",
"183 348 LINE"
);
},
{
closed = 1;
nodes = (
"683 0 LINE",
"687 26 LINE",
"660 26 LINE SMOOTH",
"628 26 OFFCURVE",
"611 34 OFFCURVE",
"611 53 CURVE SMOOTH",
"611 56 OFFCURVE",
"611 59 OFFCURVE",
"612 62 CURVE SMOOTH",
"729 637 LINE SMOOTH",
"733 662 OFFCURVE",
"756 673 OFFCURVE",
"792 673 CURVE SMOOTH",
"820 673 LINE",
"825 700 LINE",
"564 700 LINE",
"559 673 LINE",
"586 673 LINE SMOOTH",
"623 673 OFFCURVE",
"639 662 OFFCURVE",
"635 637 CURVE SMOOTH",
"517 62 LINE SMOOTH",
"512 37 OFFCURVE",
"491 26 OFFCURVE",
"453 26 CURVE SMOOTH",
"426 26 LINE",
"421 0 LINE"
);
}
);
width = 742;
}
);
note = Hdotbelow;
unicode = 1E24;
},
{
glyphname = I;
lastChange = "2015-10-21 12:18:56 +0000";
layers = (
{
layerId = "09C3AFA4-7ACC-471D-A867-1713CECD7BC9";
name = "Regular Italic";
paths = (
{
closed = 1;
nodes = (
"248 0 LINE",
"252 26 LINE",
"226 26 LINE SMOOTH",
"193 26 OFFCURVE",
"176 34 OFFCURVE",
"176 53 CURVE SMOOTH",
"176 56 OFFCURVE",
"176 59 OFFCURVE",
"177 62 CURVE SMOOTH",
"294 637 LINE SMOOTH",
"299 662 OFFCURVE",
"321 673 OFFCURVE",
"358 673 CURVE SMOOTH",
"385 673 LINE",
"390 700 LINE",
"129 700 LINE",
"124 673 LINE",
"152 673 LINE SMOOTH",
"188 673 OFFCURVE",
"204 662 OFFCURVE",
"200 637 CURVE SMOOTH",
"83 62 LINE SMOOTH",
"77 37 OFFCURVE",
"56 26 OFFCURVE",
"19 26 CURVE SMOOTH",
"-9 26 LINE",
"-13 0 LINE"
);
}
);
width = 311;
}
);
note = I;
unicode = 0049;
},
{
glyphname = IJ;
lastChange = "2015-10-21 12:18:57 +0000";
layers = (
{
layerId = "09C3AFA4-7ACC-471D-A867-1713CECD7BC9";
name = "Regular Italic";
paths = (
{
closed = 1;
nodes = (
"391 -114 OFFCURVE",
"491 -45 OFFCURVE",
"517 89 CURVE SMOOTH",
"630 637 LINE SMOOTH",
"635 662 OFFCURVE",
"657 673 OFFCURVE",
"693 673 CURVE SMOOTH",
"722 673 LINE",
"727 700 LINE",
"465 700 LINE",
"460 673 LINE",
"488 673 LINE SMOOTH",
"525 673 OFFCURVE",
"540 662 OFFCURVE",
"536 637 CURVE SMOOTH",
"424 90 LINE SMOOTH",
"404 -8 OFFCURVE",
"353 -75 OFFCURVE",
"268 -93 CURVE",
"267 -114 LINE"
);
},
{
closed = 1;
nodes = (
"248 0 LINE",
"252 26 LINE",
"226 26 LINE SMOOTH",
"193 26 OFFCURVE",
"176 34 OFFCURVE",
"176 53 CURVE SMOOTH",
"176 56 OFFCURVE",
"176 59 OFFCURVE",
"177 62 CURVE SMOOTH",
"294 637 LINE SMOOTH",
"299 662 OFFCURVE",
"321 673 OFFCURVE",
"358 673 CURVE SMOOTH",
"385 673 LINE",
"390 700 LINE",
"129 700 LINE",
"124 673 LINE",
"152 673 LINE SMOOTH",
"188 673 OFFCURVE",
"204 662 OFFCURVE",
"200 637 CURVE SMOOTH",
"83 62 LINE SMOOTH",
"77 37 OFFCURVE",
"56 26 OFFCURVE",
"19 26 CURVE SMOOTH",
"-9 26 LINE",
"-13 0 LINE"
);
}
);
width = 648;
}
);
note = IJ;
unicode = 0132;
},
{
glyphname = Iacute;
lastChange = "2015-10-21 12:18:57 +0000";
layers = (
{
layerId = "09C3AFA4-7ACC-471D-A867-1713CECD7BC9";
name = "Regular Italic";
paths = (
{
closed = 1;
nodes = (
"248 0 LINE",
"252 26 LINE",
"226 26 LINE SMOOTH",
"193 26 OFFCURVE",
"176 34 OFFCURVE",
"176 53 CURVE SMOOTH",
"176 56 OFFCURVE",
"176 59 OFFCURVE",
"177 62 CURVE SMOOTH",
"294 637 LINE SMOOTH",
"299 662 OFFCURVE",
"321 673 OFFCURVE",
"358 673 CURVE SMOOTH",
"385 673 LINE",
"390 700 LINE",
"129 700 LINE",
"124 673 LINE",
"152 673 LINE SMOOTH",
"188 673 OFFCURVE",
"204 662 OFFCURVE",
"200 637 CURVE SMOOTH",
"83 62 LINE SMOOTH",
"77 37 OFFCURVE",
"56 26 OFFCURVE",
"19 26 CURVE SMOOTH",
"-9 26 LINE",
"-13 0 LINE"
);
},
{
closed = 1;
nodes = (
"352 865 LINE SMOOTH",
"376 877 OFFCURVE",
"391 890 OFFCURVE",
"394 907 CURVE",
"397 922 OFFCURVE",
"389 937 OFFCURVE",
"368 937 CURVE SMOOTH",
"348 937 OFFCURVE",
"329 921 OFFCURVE",
"321 914 CURVE SMOOTH",
"188 807 LINE",
"200 782 LINE"
);
}
);
width = 311;
}
);
note = Iacute;
unicode = 00CD;
},
{
glyphname = Ibreve;
lastChange = "2015-10-21 12:18:57 +0000";
layers = (
{
layerId = "09C3AFA4-7ACC-471D-A867-1713CECD7BC9";
name = "Regular Italic";
paths = (
{
closed = 1;
nodes = (
"248 0 LINE",
"252 26 LINE",
"226 26 LINE SMOOTH",
"193 26 OFFCURVE",
"176 34 OFFCURVE",
"176 53 CURVE SMOOTH",
"176 56 OFFCURVE",
"176 59 OFFCURVE",
"177 62 CURVE SMOOTH",
"294 637 LINE SMOOTH",
"299 662 OFFCURVE",
"321 673 OFFCURVE",
"358 673 CURVE SMOOTH",
"385 673 LINE",
"390 700 LINE",
"129 700 LINE",
"124 673 LINE",
"152 673 LINE SMOOTH",
"188 673 OFFCURVE",
"204 662 OFFCURVE",
"200 637 CURVE SMOOTH",
"83 62 LINE SMOOTH",
"77 37 OFFCURVE",
"56 26 OFFCURVE",
"19 26 CURVE SMOOTH",
"-9 26 LINE",
"-13 0 LINE"
);
},
{
closed = 1;
nodes = (
"371 776 OFFCURVE",
"421 832 OFFCURVE",
"441 907 CURVE",
"409 907 LINE",
"392 848 OFFCURVE",
"346 822 OFFCURVE",
"284 822 CURVE SMOOTH",
"223 822 OFFCURVE",
"187 848 OFFCURVE",
"192 907 CURVE",
"160 907 LINE",
"159 897 OFFCURVE",
"158 888 OFFCURVE",
"158 879 CURVE SMOOTH",
"158 817 OFFCURVE",
"191 776 OFFCURVE",
"276 776 CURVE SMOOTH"
);
}
);
width = 311;
}
);
note = Ibreve;
unicode = 012C;
},
{
glyphname = Icaron;
lastChange = "2015-10-21 12:18:57 +0000";
layers = (
{
layerId = "09C3AFA4-7ACC-471D-A867-1713CECD7BC9";
name = "Regular Italic";
paths = (
{
closed = 1;
nodes = (
"248 0 LINE",
"252 26 LINE",
"226 26 LINE SMOOTH",
"193 26 OFFCURVE",
"176 34 OFFCURVE",
"176 53 CURVE SMOOTH",
"176 56 OFFCURVE",
"176 59 OFFCURVE",
"177 62 CURVE SMOOTH",
"294 637 LINE SMOOTH",
"299 662 OFFCURVE",
"321 673 OFFCURVE",
"358 673 CURVE SMOOTH",
"385 673 LINE",
"390 700 LINE",
"129 700 LINE",
"124 673 LINE",
"152 673 LINE SMOOTH",
"188 673 OFFCURVE",
"204 662 OFFCURVE",
"200 637 CURVE SMOOTH",
"83 62 LINE SMOOTH",
"77 37 OFFCURVE",
"56 26 OFFCURVE",
"19 26 CURVE SMOOTH",
"-9 26 LINE",
"-13 0 LINE"
);
},
{
closed = 1;
nodes = (
"300 782 LINE",
"445 911 LINE",
"432 932 LINE",
"311 847 LINE SMOOTH",
"301 840 OFFCURVE",
"292 836 OFFCURVE",
"286 836 CURVE SMOOTH",
"280 836 OFFCURVE",
"274 840 OFFCURVE",
"266 847 CURVE",
"180 932 LINE",
"157 911 LINE",
"250 782 LINE"
);
}
);
width = 312;
}
);
note = Icaron;
unicode = 01CF;
},
{
glyphname = Icircumflex;
lastChange = "2015-10-21 12:18:57 +0000";
layers = (
{
layerId = "09C3AFA4-7ACC-471D-A867-1713CECD7BC9";
name = "Regular Italic";
paths = (
{
closed = 1;
nodes = (
"248 0 LINE",
"252 26 LINE",
"226 26 LINE SMOOTH",
"193 26 OFFCURVE",
"176 34 OFFCURVE",
"176 53 CURVE SMOOTH",
"176 56 OFFCURVE",
"176 59 OFFCURVE",
"177 62 CURVE SMOOTH",
"294 637 LINE SMOOTH",
"299 662 OFFCURVE",
"321 673 OFFCURVE",
"358 673 CURVE SMOOTH",
"385 673 LINE",
"390 700 LINE",
"129 700 LINE",
"124 673 LINE",
"152 673 LINE SMOOTH",
"188 673 OFFCURVE",
"204 662 OFFCURVE",
"200 637 CURVE SMOOTH",
"83 62 LINE SMOOTH",
"77 37 OFFCURVE",
"56 26 OFFCURVE",
"19 26 CURVE SMOOTH",
"-9 26 LINE",
"-13 0 LINE"
);
},
{
closed = 1;
nodes = (
"270 868 LINE SMOOTH",
"278 874 OFFCURVE",
"289 879 OFFCURVE",
"295 879 CURVE SMOOTH",
"300 879 OFFCURVE",
"307 874 OFFCURVE",
"315 868 CURVE",
"401 782 LINE",
"423 803 LINE",
"331 932 LINE",
"280 932 LINE",
"135 803 LINE",
"150 782 LINE"
);
}
);
width = 311;
}
);
note = Icircumflex;
unicode = 00CE;
},
{
glyphname = Idieresis;
lastChange = "2015-10-21 12:18:56 +0000";
layers = (
{
layerId = "09C3AFA4-7ACC-471D-A867-1713CECD7BC9";
name = "Regular Italic";
paths = (
{
closed = 1;
nodes = (
"248 0 LINE",
"252 26 LINE",
"226 26 LINE SMOOTH",
"193 26 OFFCURVE",
"176 34 OFFCURVE",
"176 53 CURVE SMOOTH",
"176 56 OFFCURVE",
"176 59 OFFCURVE",
"177 62 CURVE SMOOTH",
"294 637 LINE SMOOTH",
"299 662 OFFCURVE",
"321 673 OFFCURVE",
"358 673 CURVE SMOOTH",
"385 673 LINE",
"390 700 LINE",
"129 700 LINE",
"124 673 LINE",
"152 673 LINE SMOOTH",
"188 673 OFFCURVE",
"204 662 OFFCURVE",
"200 637 CURVE SMOOTH",
"83 62 LINE SMOOTH",
"77 37 OFFCURVE",
"56 26 OFFCURVE",
"19 26 CURVE SMOOTH",
"-9 26 LINE",
"-13 0 LINE"
);
},
{
closed = 1;
nodes = (
"203 781 OFFCURVE",
"226 806 OFFCURVE",
"226 839 CURVE SMOOTH",
"226 860 OFFCURVE",
"214 875 OFFCURVE",
"190 875 CURVE SMOOTH",
"163 875 OFFCURVE",
"142 855 OFFCURVE",
"136 827 CURVE SMOOTH",
"136 824 OFFCURVE",
"135 821 OFFCURVE",
"135 818 CURVE SMOOTH",
"135 796 OFFCURVE",
"148 781 OFFCURVE",
"171 781 CURVE SMOOTH"
);
},
{
closed = 1;
nodes = (
"410 781 OFFCURVE",
"433 806 OFFCURVE",
"433 840 CURVE SMOOTH",
"433 861 OFFCURVE",
"421 875 OFFCURVE",
"397 875 CURVE SMOOTH",
"367 875 OFFCURVE",
"341 850 OFFCURVE",
"341 816 CURVE SMOOTH",
"341 795 OFFCURVE",
"354 781 OFFCURVE",
"378 781 CURVE SMOOTH"
);
}
);
width = 311;
}
);
note = Idieresis;
unicode = 00CF;
},
{
glyphname = Idotaccent;
lastChange = "2015-10-21 12:18:56 +0000";
layers = (
{
layerId = "09C3AFA4-7ACC-471D-A867-1713CECD7BC9";
name = "Regular Italic";
paths = (
{
closed = 1;
nodes = (
"248 0 LINE",
"252 26 LINE",
"226 26 LINE SMOOTH",
"193 26 OFFCURVE",
"176 34 OFFCURVE",
"176 53 CURVE SMOOTH",
"176 56 OFFCURVE",
"176 59 OFFCURVE",
"177 62 CURVE SMOOTH",
"294 637 LINE SMOOTH",
"299 662 OFFCURVE",
"321 673 OFFCURVE",
"358 673 CURVE SMOOTH",
"385 673 LINE",
"390 700 LINE",
"129 700 LINE",
"124 673 LINE",
"152 673 LINE SMOOTH",
"188 673 OFFCURVE",
"204 662 OFFCURVE",
"200 637 CURVE SMOOTH",
"83 62 LINE SMOOTH",
"77 37 OFFCURVE",
"56 26 OFFCURVE",
"19 26 CURVE SMOOTH",
"-9 26 LINE",
"-13 0 LINE"
);
},
{
closed = 1;
nodes = (
"306 781 OFFCURVE",
"330 806 OFFCURVE",
"330 840 CURVE SMOOTH",
"330 861 OFFCURVE",
"318 874 OFFCURVE",
"295 874 CURVE SMOOTH",
"267 874 OFFCURVE",
"246 855 OFFCURVE",
"240 827 CURVE SMOOTH",
"239 823 OFFCURVE",
"239 819 OFFCURVE",
"239 815 CURVE SMOOTH",
"239 795 OFFCURVE",
"252 781 OFFCURVE",
"276 781 CURVE SMOOTH"
);
}
);
width = 311;
}
);
note = Idotaccent;
unicode = 0130;
},
{
glyphname = Idotbelow;
lastChange = "2015-10-21 12:18:57 +0000";
layers = (
{
layerId = "09C3AFA4-7ACC-471D-A867-1713CECD7BC9";
name = "Regular Italic";
paths = (
{
closed = 1;
nodes = (
"248 0 LINE",
"252 26 LINE",
"226 26 LINE SMOOTH",
"193 26 OFFCURVE",
"176 34 OFFCURVE",
"176 53 CURVE SMOOTH",
"176 56 OFFCURVE",
"176 59 OFFCURVE",
"177 62 CURVE SMOOTH",
"294 637 LINE SMOOTH",
"299 662 OFFCURVE",
"321 673 OFFCURVE",
"358 673 CURVE SMOOTH",
"385 673 LINE",
"390 700 LINE",
"129 700 LINE",
"124 673 LINE",
"152 673 LINE SMOOTH",
"188 673 OFFCURVE",
"204 662 OFFCURVE",
"200 637 CURVE SMOOTH",
"83 62 LINE SMOOTH",
"77 37 OFFCURVE",
"56 26 OFFCURVE",
"19 26 CURVE SMOOTH",
"-9 26 LINE",
"-13 0 LINE"
);
},
{
closed = 1;
nodes = (
"116 -159 OFFCURVE",
"140 -134 OFFCURVE",
"140 -99 CURVE SMOOTH",
"140 -78 OFFCURVE",
"128 -64 OFFCURVE",
"105 -64 CURVE SMOOTH",
"74 -64 OFFCURVE",
"49 -90 OFFCURVE",
"49 -124 CURVE SMOOTH",
"49 -145 OFFCURVE",
"63 -159 OFFCURVE",
"85 -159 CURVE SMOOTH"
);
}
);
width = 312;
}
);
note = Idotbelow;
unicode = 1ECA;
},
{
glyphname = Igrave;
lastChange = "2015-10-21 12:18:57 +0000";
layers = (
{
layerId = "09C3AFA4-7ACC-471D-A867-1713CECD7BC9";
name = "Regular Italic";
paths = (
{
closed = 1;
nodes = (
"248 0 LINE",
"252 26 LINE",
"226 26 LINE SMOOTH",
"193 26 OFFCURVE",
"176 34 OFFCURVE",
"176 53 CURVE SMOOTH",
"176 56 OFFCURVE",
"176 59 OFFCURVE",
"177 62 CURVE SMOOTH",
"294 637 LINE SMOOTH",
"299 662 OFFCURVE",
"321 673 OFFCURVE",
"358 673 CURVE SMOOTH",
"385 673 LINE",
"390 700 LINE",
"129 700 LINE",
"124 673 LINE",
"152 673 LINE SMOOTH",
"188 673 OFFCURVE",
"204 662 OFFCURVE",
"200 637 CURVE SMOOTH",
"83 62 LINE SMOOTH",
"77 37 OFFCURVE",
"56 26 OFFCURVE",
"19 26 CURVE SMOOTH",
"-9 26 LINE",
"-13 0 LINE"
);
},
{
closed = 1;
nodes = (
"373 807 LINE",
"285 913 LINE",
"278 922 OFFCURVE",
"266 937 OFFCURVE",
"247 937 CURVE SMOOTH",
"225 937 OFFCURVE",
"209 919 OFFCURVE",
"209 900 CURVE SMOOTH",
"209 886 OFFCURVE",
"217 874 OFFCURVE",
"230 865 CURVE SMOOTH",
"351 782 LINE"
);
}
);
width = 311;
}
);
note = Igrave;
unicode = 00CC;
},
{
glyphname = Ihookabove;
lastChange = "2015-10-21 12:18:57 +0000";
layers = (
{
layerId = "09C3AFA4-7ACC-471D-A867-1713CECD7BC9";
name = "Regular Italic";
paths = (
{
closed = 1;
nodes = (
"248 0 LINE",
"252 26 LINE",
"226 26 LINE SMOOTH",
"193 26 OFFCURVE",
"176 34 OFFCURVE",
"176 53 CURVE SMOOTH",
"176 56 OFFCURVE",
"176 59 OFFCURVE",
"177 62 CURVE SMOOTH",
"294 637 LINE SMOOTH",
"299 662 OFFCURVE",
"321 673 OFFCURVE",
"358 673 CURVE SMOOTH",
"385 673 LINE",
"390 700 LINE",
"129 700 LINE",
"124 673 LINE",
"152 673 LINE SMOOTH",
"188 673 OFFCURVE",
"204 662 OFFCURVE",
"200 637 CURVE SMOOTH",
"83 62 LINE SMOOTH",
"77 37 OFFCURVE",
"56 26 OFFCURVE",
"19 26 CURVE SMOOTH",
"-9 26 LINE",
"-13 0 LINE"
);
},
{
closed = 1;
nodes = (
"321 798 LINE",
"304 805 OFFCURVE",
"294 811 OFFCURVE",
"297 828 CURVE SMOOTH",
"303 861 OFFCURVE",
"393 876 OFFCURVE",
"402 927 CURVE SMOOTH",
"403 932 OFFCURVE",
"403 936 OFFCURVE",
"403 940 CURVE SMOOTH",
"403 974 OFFCURVE",
"375 991 OFFCURVE",
"330 991 CURVE SMOOTH",
"282 991 OFFCURVE",
"234 971 OFFCURVE",
"234 932 CURVE SMOOTH",
"234 921 OFFCURVE",
"240 915 OFFCURVE",
"252 915 CURVE SMOOTH",
"275 915 OFFCURVE",
"280 934 OFFCURVE",
"285 942 CURVE",
"293 956 OFFCURVE",
"310 962 OFFCURVE",
"325 962 CURVE SMOOTH",
"343 962 OFFCURVE",
"352 951 OFFCURVE",
"352 938 CURVE SMOOTH",
"352 886 OFFCURVE",
"261 876 OFFCURVE",
"252 828 CURVE SMOOTH",
"251 824 OFFCURVE",
"251 821 OFFCURVE",
"251 817 CURVE SMOOTH",
"251 795 OFFCURVE",
"266 778 OFFCURVE",
"308 778 CURVE"
);
}
);
width = 312;
}
);
note = Ihookabove;
unicode = 1EC8;
},
{
glyphname = Imacron;
lastChange = "2015-10-21 12:18:56 +0000";
layers = (
{
layerId = "09C3AFA4-7ACC-471D-A867-1713CECD7BC9";
name = "Regular Italic";
paths = (
{
closed = 1;
nodes = (
"248 0 LINE",
"252 26 LINE",
"226 26 LINE SMOOTH",
"193 26 OFFCURVE",
"176 34 OFFCURVE",
"176 53 CURVE SMOOTH",
"176 56 OFFCURVE",
"176 59 OFFCURVE",
"177 62 CURVE SMOOTH",
"294 637 LINE SMOOTH",
"299 662 OFFCURVE",
"321 673 OFFCURVE",
"358 673 CURVE SMOOTH",
"385 673 LINE",
"390 700 LINE",
"129 700 LINE",
"124 673 LINE",
"152 673 LINE SMOOTH",
"188 673 OFFCURVE",
"204 662 OFFCURVE",
"200 637 CURVE SMOOTH",
"83 62 LINE SMOOTH",
"77 37 OFFCURVE",
"56 26 OFFCURVE",
"19 26 CURVE SMOOTH",
"-9 26 LINE",
"-13 0 LINE"
);
},
{
closed = 1;
nodes = (
"462 782 LINE",
"471 828 LINE",
"101 828 LINE",
"91 782 LINE"
);
}
);
width = 311;
}
);
note = Imacron;
unicode = 012A;
},
{
glyphname = Iogonek;
lastChange = "2015-10-21 12:18:56 +0000";
layers = (
{
layerId = "09C3AFA4-7ACC-471D-A867-1713CECD7BC9";
name = "Regular Italic";
paths = (
{
closed = 1;
nodes = (
"248 0 LINE",
"252 26 LINE",
"226 26 LINE SMOOTH",
"193 26 OFFCURVE",
"176 34 OFFCURVE",
"176 53 CURVE SMOOTH",
"176 56 OFFCURVE",
"176 59 OFFCURVE",
"177 62 CURVE SMOOTH",
"294 637 LINE SMOOTH",
"299 662 OFFCURVE",
"321 673 OFFCURVE",
"358 673 CURVE SMOOTH",
"385 673 LINE",
"390 700 LINE",
"129 700 LINE",
"124 673 LINE",
"152 673 LINE SMOOTH",
"188 673 OFFCURVE",
"204 662 OFFCURVE",
"200 637 CURVE SMOOTH",
"83 62 LINE SMOOTH",
"77 37 OFFCURVE",
"56 26 OFFCURVE",
"19 26 CURVE SMOOTH",
"-9 26 LINE",
"-13 0 LINE"
);
},
{
closed = 1;
nodes = (
"157 -196 OFFCURVE",
"184 -189 OFFCURVE",
"212 -172 CURVE",
"210 -152 LINE",
"194 -158 OFFCURVE",
"177 -162 OFFCURVE",
"165 -162 CURVE SMOOTH",
"138 -162 OFFCURVE",
"117 -150 OFFCURVE",
"117 -122 CURVE SMOOTH",
"117 -77 OFFCURVE",
"154 -30 OFFCURVE",
"210 4 CURVE",
"172 4 LINE",
"109 -25 OFFCURVE",
"57 -75 OFFCURVE",
"57 -133 CURVE SMOOTH",
"57 -163 OFFCURVE",
"73 -196 OFFCURVE",
"132 -196 CURVE SMOOTH"
);
}
);
width = 311;
}
);
note = Iogonek;
unicode = 012E;
},
{
glyphname = Itilde;
lastChange = "2015-10-21 12:18:56 +0000";
layers = (
{
layerId = "09C3AFA4-7ACC-471D-A867-1713CECD7BC9";
name = "Regular Italic";
paths = (
{
closed = 1;
nodes = (
"248 0 LINE",
"252 26 LINE",
"226 26 LINE SMOOTH",
"193 26 OFFCURVE",
"176 34 OFFCURVE",
"176 53 CURVE SMOOTH",
"176 56 OFFCURVE",
"176 59 OFFCURVE",
"177 62 CURVE SMOOTH",
"294 637 LINE SMOOTH",
"299 662 OFFCURVE",
"321 673 OFFCURVE",
"358 673 CURVE SMOOTH",
"385 673 LINE",
"390 700 LINE",
"129 700 LINE",
"124 673 LINE",
"152 673 LINE SMOOTH",
"188 673 OFFCURVE",
"204 662 OFFCURVE",
"200 637 CURVE SMOOTH",
"83 62 LINE SMOOTH",
"77 37 OFFCURVE",
"56 26 OFFCURVE",
"19 26 CURVE SMOOTH",
"-9 26 LINE",
"-13 0 LINE"
);
},
{
closed = 1;
nodes = (
"156 820 OFFCURVE",
"179 841 OFFCURVE",
"210 841 CURVE SMOOTH",
"259 841 OFFCURVE",
"295 787 OFFCURVE",
"344 787 CURVE SMOOTH",
"399 787 OFFCURVE",
"438 835 OFFCURVE",
"460 887 CURVE",
"442 898 LINE",
"420 858 OFFCURVE",
"399 836 OFFCURVE",
"367 836 CURVE SMOOTH",
"320 836 OFFCURVE",
"280 889 OFFCURVE",
"231 889 CURVE SMOOTH",
"180 889 OFFCURVE",
"139 845 OFFCURVE",
"117 793 CURVE",
"135 782 LINE"
);
}
);
width = 311;
}
);
note = Itilde;
unicode = 0128;
},
{
glyphname = J;
lastChange = "2015-10-21 12:18:56 +0000";
layers = (
{
layerId = "09C3AFA4-7ACC-471D-A867-1713CECD7BC9";
name = "Regular Italic";
paths = (
{
closed = 1;
nodes = (
"98 -114 OFFCURVE",
"198 -45 OFFCURVE",
"225 89 CURVE SMOOTH",
"337 637 LINE SMOOTH",
"342 662 OFFCURVE",
"364 673 OFFCURVE",
"400 673 CURVE SMOOTH",
"429 673 LINE",
"434 700 LINE",
"172 700 LINE",
"167 673 LINE",
"195 673 LINE SMOOTH",
"228 673 OFFCURVE",
"244 664 OFFCURVE",
"244 645 CURVE SMOOTH",
"244 643 OFFCURVE",
"244 640 OFFCURVE",
"243 637 CURVE SMOOTH",
"132 90 LINE SMOOTH",
"111 -8 OFFCURVE",
"60 -75 OFFCURVE",
"-25 -93 CURVE",
"-26 -114 LINE"
);
}
);
width = 355;
}
);
note = J;
unicode = 004A;
},
{
glyphname = Jcircumflex;
lastChange = "2015-10-21 12:18:56 +0000";
layers = (
{
layerId = "09C3AFA4-7ACC-471D-A867-1713CECD7BC9";
name = "Regular Italic";
paths = (
{
closed = 1;
nodes = (
"98 -114 OFFCURVE",
"198 -45 OFFCURVE",
"225 89 CURVE SMOOTH",
"337 637 LINE SMOOTH",
"342 662 OFFCURVE",
"364 673 OFFCURVE",
"400 673 CURVE SMOOTH",
"429 673 LINE",
"434 700 LINE",
"172 700 LINE",
"167 673 LINE",
"195 673 LINE SMOOTH",
"228 673 OFFCURVE",
"244 664 OFFCURVE",
"244 645 CURVE SMOOTH",
"244 643 OFFCURVE",
"244 640 OFFCURVE",
"243 637 CURVE SMOOTH",
"132 90 LINE SMOOTH",
"111 -8 OFFCURVE",
"60 -75 OFFCURVE",
"-25 -93 CURVE",
"-26 -114 LINE"
);
},
{
closed = 1;
nodes = (
"316 885 LINE SMOOTH",
"324 891 OFFCURVE",
"335 896 OFFCURVE",
"341 896 CURVE SMOOTH",
"347 896 OFFCURVE",
"353 891 OFFCURVE",
"361 885 CURVE",
"447 799 LINE",
"469 820 LINE",
"377 949 LINE",
"326 949 LINE",
"181 820 LINE",
"196 799 LINE"
);
}
);
width = 355;
}
);
note = Jcircumflex;
unicode = 0134;
},
{
glyphname = K;
lastChange = "2015-10-21 12:18:56 +0000";
layers = (
{
layerId = "09C3AFA4-7ACC-471D-A867-1713CECD7BC9";
name = "Regular Italic";
paths = (
{
closed = 1;
nodes = (
"245 0 LINE",
"250 26 LINE",
"221 26 LINE SMOOTH",
"189 26 OFFCURVE",
"172 34 OFFCURVE",
"172 53 CURVE SMOOTH",
"172 56 OFFCURVE",
"172 59 OFFCURVE",
"173 62 CURVE SMOOTH",
"290 637 LINE SMOOTH",
"295 662 OFFCURVE",
"317 673 OFFCURVE",
"353 673 CURVE SMOOTH",
"382 673 LINE",
"387 700 LINE",
"125 700 LINE",
"120 673 LINE",
"148 673 LINE SMOOTH",
"181 673 OFFCURVE",
"197 664 OFFCURVE",
"197 645 CURVE SMOOTH",
"197 643 OFFCURVE",
"197 640 OFFCURVE",
"196 637 CURVE SMOOTH",
"79 62 LINE SMOOTH",
"73 37 OFFCURVE",
"53 26 OFFCURVE",
"15 26 CURVE SMOOTH",
"-12 26 LINE",
"-17 0 LINE"
);
},
{
closed = 1;
nodes = (
"619 0 LINE",
"624 26 LINE",
"596 26 LINE SMOOTH",
"561 26 OFFCURVE",
"542 51 OFFCURVE",
"527 72 CURVE SMOOTH",
"298 384 LINE",
"225 327 LINE",
"466 0 LINE"
);
},
{
closed = 1;
nodes = (
"642 649 LINE SMOOTH",
"659 662 OFFCURVE",
"677 673 OFFCURVE",
"704 673 CURVE SMOOTH",
"723 673 LINE",
"728 700 LINE",
"536 700 LINE",
"531 673 LINE",
"545 673 LINE SMOOTH",
"570 673 OFFCURVE",
"580 666 OFFCURVE",
"578 654 CURVE",
"576 649 OFFCURVE",
"574 645 OFFCURVE",
"568 640 CURVE",
"236 384 LINE",
"224 322 LINE"
);
}
);
width = 673;
}
);
note = K;
rightKerningGroup = K;
unicode = 004B;
},
{
glyphname = Kcommaaccent;
lastChange = "2015-10-21 12:18:56 +0000";
layers = (
{
layerId = "09C3AFA4-7ACC-471D-A867-1713CECD7BC9";
name = "Regular Italic";
paths = (
{
closed = 1;
nodes = (
"245 0 LINE",
"250 26 LINE",
"221 26 LINE SMOOTH",
"189 26 OFFCURVE",
"172 34 OFFCURVE",
"172 53 CURVE SMOOTH",
"172 56 OFFCURVE",
"172 59 OFFCURVE",
"173 62 CURVE SMOOTH",
"290 637 LINE SMOOTH",
"295 662 OFFCURVE",
"317 673 OFFCURVE",
"353 673 CURVE SMOOTH",
"382 673 LINE",
"387 700 LINE",
"125 700 LINE",
"120 673 LINE",
"148 673 LINE SMOOTH",
"181 673 OFFCURVE",
"197 664 OFFCURVE",
"197 645 CURVE SMOOTH",
"197 643 OFFCURVE",
"197 640 OFFCURVE",
"196 637 CURVE SMOOTH",
"79 62 LINE SMOOTH",
"73 37 OFFCURVE",
"53 26 OFFCURVE",
"15 26 CURVE SMOOTH",
"-12 26 LINE",
"-17 0 LINE"
);
},
{
closed = 1;
nodes = (
"277 -258 OFFCURVE",
"331 -198 OFFCURVE",
"345 -135 CURVE SMOOTH",
"347 -127 OFFCURVE",
"347 -119 OFFCURVE",
"347 -113 CURVE SMOOTH",
"347 -81 OFFCURVE",
"330 -67 OFFCURVE",
"307 -67 CURVE SMOOTH",
"276 -67 OFFCURVE",
"253 -92 OFFCURVE",
"253 -119 CURVE SMOOTH",
"253 -144 OFFCURVE",
"274 -153 OFFCURVE",
"274 -178 CURVE SMOOTH",
"274 -181 OFFCURVE",
"274 -184 OFFCURVE",
"273 -187 CURVE SMOOTH",
"265 -223 OFFCURVE",
"233 -256 OFFCURVE",
"203 -282 CURVE",
"215 -299 LINE"
);
},
{
closed = 1;
nodes = (
"619 0 LINE",
"624 26 LINE",
"596 26 LINE SMOOTH",
"561 26 OFFCURVE",
"542 51 OFFCURVE",
"527 72 CURVE SMOOTH",
"298 384 LINE",
"225 327 LINE",
"466 0 LINE"
);
},
{
closed = 1;
nodes = (
"642 649 LINE SMOOTH",
"659 662 OFFCURVE",
"677 673 OFFCURVE",
"704 673 CURVE SMOOTH",
"723 673 LINE",
"728 700 LINE",
"536 700 LINE",
"531 673 LINE",
"545 673 LINE SMOOTH",
"570 673 OFFCURVE",
"580 666 OFFCURVE",
"578 654 CURVE",
"576 649 OFFCURVE",
"574 645 OFFCURVE",
"568 640 CURVE",
"236 384 LINE",
"224 322 LINE"
);
}
);
width = 673;
}
);
note = Kcommaaccent;
rightKerningGroup = K;
unicode = 0136;
},
{
glyphname = L;
lastChange = "2015-10-21 12:18:57 +0000";
layers = (
{
layerId = "09C3AFA4-7ACC-471D-A867-1713CECD7BC9";
name = "Regular Italic";
paths = (
{
closed = 1;
nodes = (
"499 0 LINE",
"553 186 LINE",
"526 186 LINE",
"513 144 OFFCURVE",
"470 40 OFFCURVE",
"410 40 CURVE SMOOTH",
"228 40 LINE SMOOTH",
"197 40 OFFCURVE",
"179 49 OFFCURVE",
"179 71 CURVE SMOOTH",
"179 74 OFFCURVE",
"179 77 OFFCURVE",
"180 81 CURVE SMOOTH",
"293 637 LINE SMOOTH",
"298 662 OFFCURVE",
"319 673 OFFCURVE",
"356 673 CURVE SMOOTH",
"384 673 LINE",
"389 700 LINE",
"127 700 LINE",
"122 673 LINE",
"150 673 LINE SMOOTH",
"183 673 OFFCURVE",
"200 664 OFFCURVE",
"200 645 CURVE SMOOTH",
"200 643 OFFCURVE",
"200 640 OFFCURVE",
"199 637 CURVE SMOOTH",
"82 62 LINE SMOOTH",
"76 37 OFFCURVE",
"55 26 OFFCURVE",
"17 26 CURVE SMOOTH",
"-11 26 LINE",
"-15 0 LINE"
);
}
);
width = 573;
}
);
note = L;
rightKerningGroup = L;
unicode = 004C;
},
{
glyphname = Lacute;
lastChange = "2015-10-21 12:18:57 +0000";
layers = (
{
layerId = "09C3AFA4-7ACC-471D-A867-1713CECD7BC9";
name = "Regular Italic";
paths = (
{
closed = 1;
nodes = (
"499 0 LINE",
"553 186 LINE",
"526 186 LINE",
"513 144 OFFCURVE",
"470 40 OFFCURVE",
"410 40 CURVE SMOOTH",
"228 40 LINE SMOOTH",
"197 40 OFFCURVE",
"179 49 OFFCURVE",
"179 71 CURVE SMOOTH",
"179 74 OFFCURVE",
"179 77 OFFCURVE",
"180 81 CURVE SMOOTH",
"293 637 LINE SMOOTH",
"298 662 OFFCURVE",
"319 673 OFFCURVE",
"356 673 CURVE SMOOTH",
"384 673 LINE",
"389 700 LINE",
"127 700 LINE",
"122 673 LINE",
"150 673 LINE SMOOTH",
"183 673 OFFCURVE",
"200 664 OFFCURVE",
"200 645 CURVE SMOOTH",
"200 643 OFFCURVE",
"200 640 OFFCURVE",
"199 637 CURVE SMOOTH",
"82 62 LINE SMOOTH",
"76 37 OFFCURVE",
"55 26 OFFCURVE",
"17 26 CURVE SMOOTH",
"-11 26 LINE",
"-15 0 LINE"
);
},
{
closed = 1;
nodes = (
"398 865 LINE SMOOTH",
"422 877 OFFCURVE",
"437 890 OFFCURVE",
"440 907 CURVE",
"444 922 OFFCURVE",
"435 937 OFFCURVE",
"414 937 CURVE SMOOTH",
"394 937 OFFCURVE",
"375 921 OFFCURVE",
"367 914 CURVE SMOOTH",
"234 807 LINE",
"246 782 LINE"
);
}
);
width = 573;
}
);
note = Lacute;
rightKerningGroup = L;
unicode = 0139;
},
{
glyphname = Lcaron;
lastChange = "2015-10-21 12:18:56 +0000";
layers = (
{
layerId = "09C3AFA4-7ACC-471D-A867-1713CECD7BC9";
name = "Regular Italic";
paths = (
{
closed = 1;
nodes = (
"499 0 LINE",
"553 186 LINE",
"526 186 LINE",
"513 144 OFFCURVE",
"470 40 OFFCURVE",
"410 40 CURVE SMOOTH",
"228 40 LINE SMOOTH",
"197 40 OFFCURVE",
"179 49 OFFCURVE",
"179 71 CURVE SMOOTH",
"179 74 OFFCURVE",
"179 77 OFFCURVE",
"180 81 CURVE SMOOTH",
"293 637 LINE SMOOTH",
"298 662 OFFCURVE",
"319 673 OFFCURVE",
"356 673 CURVE SMOOTH",
"384 673 LINE",
"389 700 LINE",
"127 700 LINE",
"122 673 LINE",
"150 673 LINE SMOOTH",
"183 673 OFFCURVE",
"200 664 OFFCURVE",
"200 645 CURVE SMOOTH",
"200 643 OFFCURVE",
"200 640 OFFCURVE",
"199 637 CURVE SMOOTH",
"82 62 LINE SMOOTH",
"76 37 OFFCURVE",
"55 26 OFFCURVE",
"17 26 CURVE SMOOTH",
"-11 26 LINE",
"-15 0 LINE"
);
},
{
closed = 1;
nodes = (
"493 515 OFFCURVE",
"548 577 OFFCURVE",
"562 640 CURVE SMOOTH",
"564 648 OFFCURVE",
"564 655 OFFCURVE",
"564 662 CURVE SMOOTH",
"564 693 OFFCURVE",
"547 706 OFFCURVE",
"525 706 CURVE SMOOTH",
"497 706 OFFCURVE",
"477 687 OFFCURVE",
"471 662 CURVE SMOOTH",
"466 632 OFFCURVE",
"490 624 OFFCURVE",
"490 597 CURVE SMOOTH",
"490 594 OFFCURVE",
"490 591 OFFCURVE",
"489 587 CURVE SMOOTH",
"482 551 OFFCURVE",
"450 518 OFFCURVE",
"420 492 CURVE",
"431 475 LINE"
);
}
);
width = 573;
}
);
note = Lcaron;
rightKerningGroup = L;
unicode = 013D;
},
{
glyphname = Lcommaaccent;
lastChange = "2015-10-21 12:18:56 +0000";
layers = (
{
layerId = "09C3AFA4-7ACC-471D-A867-1713CECD7BC9";
name = "Regular Italic";
paths = (
{
closed = 1;
nodes = (
"499 0 LINE",
"553 186 LINE",
"526 186 LINE",
"513 144 OFFCURVE",
"470 40 OFFCURVE",
"410 40 CURVE SMOOTH",
"228 40 LINE SMOOTH",
"197 40 OFFCURVE",
"179 49 OFFCURVE",
"179 71 CURVE SMOOTH",
"179 74 OFFCURVE",
"179 77 OFFCURVE",
"180 81 CURVE SMOOTH",
"293 637 LINE SMOOTH",
"298 662 OFFCURVE",
"319 673 OFFCURVE",
"356 673 CURVE SMOOTH",
"384 673 LINE",
"389 700 LINE",
"127 700 LINE",
"122 673 LINE",
"150 673 LINE SMOOTH",
"183 673 OFFCURVE",
"200 664 OFFCURVE",
"200 645 CURVE SMOOTH",
"200 643 OFFCURVE",
"200 640 OFFCURVE",
"199 637 CURVE SMOOTH",
"82 62 LINE SMOOTH",
"76 37 OFFCURVE",
"55 26 OFFCURVE",
"17 26 CURVE SMOOTH",
"-11 26 LINE",
"-15 0 LINE"
);
},
{
closed = 1;
nodes = (
"204 -258 OFFCURVE",
"257 -198 OFFCURVE",
"271 -135 CURVE SMOOTH",
"273 -127 OFFCURVE",
"273 -119 OFFCURVE",
"273 -113 CURVE SMOOTH",
"273 -81 OFFCURVE",
"256 -67 OFFCURVE",
"233 -67 CURVE SMOOTH",
"202 -67 OFFCURVE",
"179 -92 OFFCURVE",
"179 -119 CURVE SMOOTH",
"179 -144 OFFCURVE",
"200 -153 OFFCURVE",
"200 -178 CURVE SMOOTH",
"200 -181 OFFCURVE",
"200 -184 OFFCURVE",
"199 -187 CURVE SMOOTH",
"191 -223 OFFCURVE",
"159 -256 OFFCURVE",
"129 -282 CURVE",
"141 -299 LINE"
);
}
);
width = 573;
}
);
note = Lcommaaccent;
rightKerningGroup = L;
unicode = 013B;
},
{
glyphname = Ldot;
lastChange = "2015-10-21 12:18:57 +0000";
layers = (
{
layerId = "09C3AFA4-7ACC-471D-A867-1713CECD7BC9";
name = "Regular Italic";
paths = (
{
closed = 1;
nodes = (
"499 0 LINE",
"553 186 LINE",
"526 186 LINE",
"513 144 OFFCURVE",
"470 40 OFFCURVE",
"410 40 CURVE SMOOTH",
"228 40 LINE SMOOTH",
"197 40 OFFCURVE",
"179 49 OFFCURVE",
"179 71 CURVE SMOOTH",
"179 74 OFFCURVE",
"179 77 OFFCURVE",
"180 81 CURVE SMOOTH",
"293 637 LINE SMOOTH",
"298 662 OFFCURVE",
"319 673 OFFCURVE",
"356 673 CURVE SMOOTH",
"384 673 LINE",
"389 700 LINE",
"127 700 LINE",
"122 673 LINE",
"150 673 LINE SMOOTH",
"183 673 OFFCURVE",
"200 664 OFFCURVE",
"200 645 CURVE SMOOTH",
"200 643 OFFCURVE",
"200 640 OFFCURVE",
"199 637 CURVE SMOOTH",
"82 62 LINE SMOOTH",
"76 37 OFFCURVE",
"55 26 OFFCURVE",
"17 26 CURVE SMOOTH",
"-11 26 LINE",
"-15 0 LINE"
);
},
{
closed = 1;
nodes = (
"426 312 OFFCURVE",
"451 338 OFFCURVE",
"451 372 CURVE SMOOTH",
"451 393 OFFCURVE",
"438 407 OFFCURVE",
"415 407 CURVE SMOOTH",
"384 407 OFFCURVE",
"360 381 OFFCURVE",
"360 348 CURVE SMOOTH",
"360 326 OFFCURVE",
"373 312 OFFCURVE",
"396 312 CURVE SMOOTH"
);
}
);
width = 573;
}
);
note = Ldot;
rightKerningGroup = L;
unicode = 013F;
},
{
glyphname = Ldotbelow;
lastChange = "2015-10-21 12:18:56 +0000";
layers = (
{
layerId = "09C3AFA4-7ACC-471D-A867-1713CECD7BC9";
name = "Regular Italic";
paths = (
{
closed = 1;
nodes = (
"499 0 LINE",
"553 186 LINE",
"526 186 LINE",
"513 144 OFFCURVE",
"470 40 OFFCURVE",
"410 40 CURVE SMOOTH",
"228 40 LINE SMOOTH",
"197 40 OFFCURVE",
"179 49 OFFCURVE",
"179 71 CURVE SMOOTH",
"179 74 OFFCURVE",
"179 77 OFFCURVE",
"180 81 CURVE SMOOTH",
"293 637 LINE SMOOTH",
"298 662 OFFCURVE",
"319 673 OFFCURVE",
"356 673 CURVE SMOOTH",
"384 673 LINE",
"389 700 LINE",
"127 700 LINE",
"122 673 LINE",
"150 673 LINE SMOOTH",
"183 673 OFFCURVE",
"200 664 OFFCURVE",
"200 645 CURVE SMOOTH",
"200 643 OFFCURVE",
"200 640 OFFCURVE",
"199 637 CURVE SMOOTH",
"82 62 LINE SMOOTH",
"76 37 OFFCURVE",
"55 26 OFFCURVE",
"17 26 CURVE SMOOTH",
"-11 26 LINE",
"-15 0 LINE"
);
},
{
closed = 1;
nodes = (
"270 -159 OFFCURVE",
"294 -134 OFFCURVE",
"294 -100 CURVE SMOOTH",
"294 -78 OFFCURVE",
"281 -64 OFFCURVE",
"258 -64 CURVE SMOOTH",
"227 -64 OFFCURVE",
"203 -90 OFFCURVE",
"203 -124 CURVE SMOOTH",
"203 -145 OFFCURVE",
"216 -159 OFFCURVE",
"239 -159 CURVE SMOOTH"
);
}
);
width = 573;
}
);
note = Ldotbelow;
rightKerningGroup = L;
unicode = 1E36;
},
{
glyphname = Ldotbelowmacron;
lastChange = "2015-10-21 12:18:56 +0000";
layers = (
{
layerId = "09C3AFA4-7ACC-471D-A867-1713CECD7BC9";
name = "Regular Italic";
paths = (
{
closed = 1;
nodes = (
"499 0 LINE",
"553 186 LINE",
"526 186 LINE",
"513 144 OFFCURVE",
"470 40 OFFCURVE",
"410 40 CURVE SMOOTH",
"228 40 LINE SMOOTH",
"197 40 OFFCURVE",
"179 49 OFFCURVE",
"179 71 CURVE SMOOTH",
"179 74 OFFCURVE",
"179 77 OFFCURVE",
"180 81 CURVE SMOOTH",
"293 637 LINE SMOOTH",
"298 662 OFFCURVE",
"319 673 OFFCURVE",
"356 673 CURVE SMOOTH",
"384 673 LINE",
"389 700 LINE",
"127 700 LINE",
"122 673 LINE",
"150 673 LINE SMOOTH",
"183 673 OFFCURVE",
"200 664 OFFCURVE",
"200 645 CURVE SMOOTH",
"200 643 OFFCURVE",
"200 640 OFFCURVE",
"199 637 CURVE SMOOTH",
"82 62 LINE SMOOTH",
"76 37 OFFCURVE",
"55 26 OFFCURVE",
"17 26 CURVE SMOOTH",
"-11 26 LINE",
"-15 0 LINE"
);
},
{
closed = 1;
nodes = (
"270 -159 OFFCURVE",
"294 -134 OFFCURVE",
"294 -100 CURVE SMOOTH",
"294 -78 OFFCURVE",
"281 -64 OFFCURVE",
"258 -64 CURVE SMOOTH",
"227 -64 OFFCURVE",
"203 -90 OFFCURVE",
"203 -124 CURVE SMOOTH",
"203 -145 OFFCURVE",
"216 -159 OFFCURVE",
"239 -159 CURVE SMOOTH"
);
},
{
closed = 1;
nodes = (
"489 791 LINE",
"497 833 LINE",
"179 833 LINE",
"170 791 LINE"
);
}
);
width = 573;
}
);
note = Ldotbelowmacron;
rightKerningGroup = L;
unicode = 1E38;
},
{
glyphname = Llinebelow;
lastChange = "2015-10-21 12:18:57 +0000";
layers = (
{
layerId = "09C3AFA4-7ACC-471D-A867-1713CECD7BC9";
name = "Regular Italic";
paths = (
{
closed = 1;
nodes = (
"499 0 LINE",
"553 186 LINE",
"526 186 LINE",
"513 144 OFFCURVE",
"470 40 OFFCURVE",
"410 40 CURVE SMOOTH",
"228 40 LINE SMOOTH",
"197 40 OFFCURVE",
"179 49 OFFCURVE",
"179 71 CURVE SMOOTH",
"179 74 OFFCURVE",
"179 77 OFFCURVE",
"180 81 CURVE SMOOTH",
"293 637 LINE SMOOTH",
"298 662 OFFCURVE",
"319 673 OFFCURVE",
"356 673 CURVE SMOOTH",
"384 673 LINE",
"389 700 LINE",
"127 700 LINE",
"122 673 LINE",
"150 673 LINE SMOOTH",
"183 673 OFFCURVE",
"200 664 OFFCURVE",
"200 645 CURVE SMOOTH",
"200 643 OFFCURVE",
"200 640 OFFCURVE",
"199 637 CURVE SMOOTH",
"82 62 LINE SMOOTH",
"76 37 OFFCURVE",
"55 26 OFFCURVE",
"17 26 CURVE SMOOTH",
"-11 26 LINE",
"-15 0 LINE"
);
},
{
closed = 1;
nodes = (
"383 -110 LINE",
"391 -72 LINE",
"73 -72 LINE",
"65 -110 LINE"
);
}
);
width = 573;
}
);
note = Llinebelow;
rightKerningGroup = L;
unicode = 1E3A;
},
{
glyphname = Lslash;
lastChange = "2015-10-21 12:18:57 +0000";
layers = (
{
layerId = "09C3AFA4-7ACC-471D-A867-1713CECD7BC9";
name = "Regular Italic";
paths = (
{
closed = 1;
nodes = (
"499 0 LINE",
"553 186 LINE",
"526 186 LINE",
"513 144 OFFCURVE",
"470 40 OFFCURVE",
"410 40 CURVE SMOOTH",
"228 40 LINE SMOOTH",
"197 40 OFFCURVE",
"179 49 OFFCURVE",
"179 71 CURVE SMOOTH",
"179 74 OFFCURVE",
"179 77 OFFCURVE",
"180 81 CURVE SMOOTH",
"293 637 LINE SMOOTH",
"298 662 OFFCURVE",
"319 673 OFFCURVE",
"356 673 CURVE SMOOTH",
"384 673 LINE",
"389 700 LINE",
"127 700 LINE",
"122 673 LINE",
"150 673 LINE SMOOTH",
"183 673 OFFCURVE",
"200 664 OFFCURVE",
"200 645 CURVE SMOOTH",
"200 643 OFFCURVE",
"200 640 OFFCURVE",
"199 637 CURVE SMOOTH",
"82 62 LINE SMOOTH",
"76 37 OFFCURVE",
"55 26 OFFCURVE",
"17 26 CURVE SMOOTH",
"-11 26 LINE",
"-15 0 LINE"
);
},
{
closed = 1;
nodes = (
"442 381 LINE",
"452 432 LINE",
"52 292 LINE",
"41 240 LINE"
);
}
);
width = 573;
}
);
note = Lslash;
rightKerningGroup = L;
unicode = 0141;
},
{
glyphname = M;
lastChange = "2015-10-21 12:18:56 +0000";
layers = (
{
layerId = "09C3AFA4-7ACC-471D-A867-1713CECD7BC9";
name = "Regular Italic";
paths = (
{
closed = 1;
nodes = (
"199 0 LINE",
"204 26 LINE",
"175 26 LINE SMOOTH",
"143 26 OFFCURVE",
"126 34 OFFCURVE",
"126 53 CURVE SMOOTH",
"126 56 OFFCURVE",
"126 59 OFFCURVE",
"127 62 CURVE SMOOTH",
"239 612 LINE",
"358 76 LINE",
"414 76 LINE",
"755 614 LINE",
"642 62 LINE SMOOTH",
"636 37 OFFCURVE",
"615 26 OFFCURVE",
"578 26 CURVE SMOOTH",
"550 26 LINE",
"545 0 LINE",
"807 0 LINE",
"812 26 LINE",
"784 26 LINE SMOOTH",
"751 26 OFFCURVE",
"735 35 OFFCURVE",
"735 54 CURVE SMOOTH",
"735 56 OFFCURVE",
"735 59 OFFCURVE",
"736 62 CURVE SMOOTH",
"853 637 LINE SMOOTH",
"858 662 OFFCURVE",
"879 673 OFFCURVE",
"917 673 CURVE SMOOTH",
"945 673 LINE",
"949 700 LINE",
"757 700 LINE",
"423 165 LINE",
"308 700 LINE",
"125 700 LINE",
"120 673 LINE",
"148 673 LINE SMOOTH",
"181 673 OFFCURVE",
"197 664 OFFCURVE",
"197 645 CURVE SMOOTH",
"197 643 OFFCURVE",
"197 640 OFFCURVE",
"196 637 CURVE SMOOTH",
"79 62 LINE SMOOTH",
"73 37 OFFCURVE",
"53 26 OFFCURVE",
"15 26 CURVE SMOOTH",
"-12 26 LINE",
"-17 0 LINE"
);
}
);
width = 867;
}
);
note = M;
unicode = 004D;
},
{
glyphname = Mdotbelow;
lastChange = "2015-10-21 12:18:56 +0000";
layers = (
{
layerId = "09C3AFA4-7ACC-471D-A867-1713CECD7BC9";
name = "Regular Italic";
paths = (
{
closed = 1;
nodes = (
"199 0 LINE",
"204 26 LINE",
"175 26 LINE SMOOTH",
"143 26 OFFCURVE",
"126 34 OFFCURVE",
"126 53 CURVE SMOOTH",
"126 56 OFFCURVE",
"126 59 OFFCURVE",
"127 62 CURVE SMOOTH",
"239 612 LINE",
"358 76 LINE",
"414 76 LINE",
"755 614 LINE",
"642 62 LINE SMOOTH",
"636 37 OFFCURVE",
"615 26 OFFCURVE",
"578 26 CURVE SMOOTH",
"550 26 LINE",
"545 0 LINE",
"807 0 LINE",
"812 26 LINE",
"784 26 LINE SMOOTH",
"751 26 OFFCURVE",
"735 35 OFFCURVE",
"735 54 CURVE SMOOTH",
"735 56 OFFCURVE",
"735 59 OFFCURVE",
"736 62 CURVE SMOOTH",
"853 637 LINE SMOOTH",
"858 662 OFFCURVE",
"879 673 OFFCURVE",
"917 673 CURVE SMOOTH",
"945 673 LINE",
"949 700 LINE",
"757 700 LINE",
"423 165 LINE",
"308 700 LINE",
"125 700 LINE",
"120 673 LINE",
"148 673 LINE SMOOTH",
"181 673 OFFCURVE",
"197 664 OFFCURVE",
"197 645 CURVE SMOOTH",
"197 643 OFFCURVE",
"197 640 OFFCURVE",
"196 637 CURVE SMOOTH",
"79 62 LINE SMOOTH",
"73 37 OFFCURVE",
"53 26 OFFCURVE",
"15 26 CURVE SMOOTH",
"-12 26 LINE",
"-17 0 LINE"
);
},
{
closed = 1;
nodes = (
"393 -159 OFFCURVE",
"418 -135 OFFCURVE",
"418 -101 CURVE SMOOTH",
"418 -79 OFFCURVE",
"405 -64 OFFCURVE",
"382 -64 CURVE SMOOTH",
"352 -64 OFFCURVE",
"326 -89 OFFCURVE",
"326 -123 CURVE SMOOTH",
"326 -145 OFFCURVE",
"340 -159 OFFCURVE",
"363 -159 CURVE SMOOTH"
);
}
);
width = 867;
}
);
note = Mdotbelow;
unicode = 1E42;
},
{
glyphname = N;
lastChange = "2015-10-21 12:18:57 +0000";
layers = (
{
layerId = "09C3AFA4-7ACC-471D-A867-1713CECD7BC9";
name = "Regular Italic";
paths = (
{
closed = 1;
nodes = (
"199 0 LINE",
"204 26 LINE",
"175 26 LINE SMOOTH",
"143 26 OFFCURVE",
"126 34 OFFCURVE",
"126 53 CURVE SMOOTH",
"126 56 OFFCURVE",
"126 59 OFFCURVE",
"127 62 CURVE SMOOTH",
"245 642 LINE",
"525 0 LINE",
"581 0 LINE",
"710 637 LINE SMOOTH",
"715 662 OFFCURVE",
"737 673 OFFCURVE",
"774 673 CURVE SMOOTH",
"803 673 LINE",
"807 700 LINE",
"591 700 LINE",
"587 673 LINE",
"614 673 LINE SMOOTH",
"647 673 OFFCURVE",
"663 665 OFFCURVE",
"663 646 CURVE SMOOTH",
"663 643 OFFCURVE",
"663 640 OFFCURVE",
"662 637 CURVE SMOOTH",
"558 126 LINE",
"312 700 LINE",
"125 700 LINE",
"120 673 LINE",
"148 673 LINE SMOOTH",
"181 673 OFFCURVE",
"197 664 OFFCURVE",
"197 645 CURVE SMOOTH",
"197 643 OFFCURVE",
"197 640 OFFCURVE",
"196 637 CURVE SMOOTH",
"79 62 LINE SMOOTH",
"73 37 OFFCURVE",
"53 26 OFFCURVE",
"15 26 CURVE SMOOTH",
"-12 26 LINE",
"-17 0 LINE"
);
}
);
width = 725;
}
);
note = N;
unicode = 004E;
},
{
glyphname = Nacute;
lastChange = "2015-10-21 12:18:57 +0000";
layers = (
{
layerId = "09C3AFA4-7ACC-471D-A867-1713CECD7BC9";
name = "Regular Italic";
paths = (
{
closed = 1;
nodes = (
"199 0 LINE",
"204 26 LINE",
"175 26 LINE SMOOTH",
"143 26 OFFCURVE",
"126 34 OFFCURVE",
"126 53 CURVE SMOOTH",
"126 56 OFFCURVE",
"126 59 OFFCURVE",
"127 62 CURVE SMOOTH",
"245 642 LINE",
"525 0 LINE",
"581 0 LINE",
"710 637 LINE SMOOTH",
"715 662 OFFCURVE",
"737 673 OFFCURVE",
"774 673 CURVE SMOOTH",
"803 673 LINE",
"807 700 LINE",
"591 700 LINE",
"587 673 LINE",
"614 673 LINE SMOOTH",
"647 673 OFFCURVE",
"663 665 OFFCURVE",
"663 646 CURVE SMOOTH",
"663 643 OFFCURVE",
"663 640 OFFCURVE",
"662 637 CURVE SMOOTH",
"558 126 LINE",
"312 700 LINE",
"125 700 LINE",
"120 673 LINE",
"148 673 LINE SMOOTH",
"181 673 OFFCURVE",
"197 664 OFFCURVE",
"197 645 CURVE SMOOTH",
"197 643 OFFCURVE",
"197 640 OFFCURVE",
"196 637 CURVE SMOOTH",
"79 62 LINE SMOOTH",
"73 37 OFFCURVE",
"53 26 OFFCURVE",
"15 26 CURVE SMOOTH",
"-12 26 LINE",
"-17 0 LINE"
);
},
{
closed = 1;
nodes = (
"577 865 LINE SMOOTH",
"601 877 OFFCURVE",
"615 890 OFFCURVE",
"618 907 CURVE",
"622 922 OFFCURVE",
"613 937 OFFCURVE",
"592 937 CURVE SMOOTH",
"572 937 OFFCURVE",
"554 921 OFFCURVE",
"545 914 CURVE SMOOTH",
"413 807 LINE",
"424 782 LINE"
);
}
);
width = 725;
}
);
note = Nacute;
unicode = 0143;
},
{
glyphname = Ncaron;
lastChange = "2015-10-21 12:18:57 +0000";
layers = (
{
layerId = "09C3AFA4-7ACC-471D-A867-1713CECD7BC9";
name = "Regular Italic";
paths = (
{
closed = 1;
nodes = (
"199 0 LINE",
"204 26 LINE",
"175 26 LINE SMOOTH",
"143 26 OFFCURVE",
"126 34 OFFCURVE",
"126 53 CURVE SMOOTH",
"126 56 OFFCURVE",
"126 59 OFFCURVE",
"127 62 CURVE SMOOTH",
"245 642 LINE",
"525 0 LINE",
"581 0 LINE",
"710 637 LINE SMOOTH",
"715 662 OFFCURVE",
"737 673 OFFCURVE",
"774 673 CURVE SMOOTH",
"803 673 LINE",
"807 700 LINE",
"591 700 LINE",
"587 673 LINE",
"614 673 LINE SMOOTH",
"647 673 OFFCURVE",
"663 665 OFFCURVE",
"663 646 CURVE SMOOTH",
"663 643 OFFCURVE",
"663 640 OFFCURVE",
"662 637 CURVE SMOOTH",
"558 126 LINE",
"312 700 LINE",
"125 700 LINE",
"120 673 LINE",
"148 673 LINE SMOOTH",
"181 673 OFFCURVE",
"197 664 OFFCURVE",
"197 645 CURVE SMOOTH",
"197 643 OFFCURVE",
"197 640 OFFCURVE",
"196 637 CURVE SMOOTH",
"79 62 LINE SMOOTH",
"73 37 OFFCURVE",
"53 26 OFFCURVE",
"15 26 CURVE SMOOTH",
"-12 26 LINE",
"-17 0 LINE"
);
},
{
closed = 1;
nodes = (
"507 782 LINE",
"652 911 LINE",
"638 932 LINE",
"517 847 LINE SMOOTH",
"508 840 OFFCURVE",
"498 836 OFFCURVE",
"492 836 CURVE SMOOTH",
"487 836 OFFCURVE",
"480 840 OFFCURVE",
"472 847 CURVE",
"386 932 LINE",
"364 911 LINE",
"456 782 LINE"
);
}
);
width = 725;
}
);
note = Ncaron;
unicode = 0147;
},
{
glyphname = Ncommaaccent;
lastChange = "2015-10-21 12:18:57 +0000";
layers = (
{
layerId = "09C3AFA4-7ACC-471D-A867-1713CECD7BC9";
name = "Regular Italic";
paths = (
{
closed = 1;
nodes = (
"199 0 LINE",
"204 26 LINE",
"175 26 LINE SMOOTH",
"143 26 OFFCURVE",
"126 34 OFFCURVE",
"126 53 CURVE SMOOTH",
"126 56 OFFCURVE",
"126 59 OFFCURVE",
"127 62 CURVE SMOOTH",
"245 642 LINE",
"525 0 LINE",
"581 0 LINE",
"710 637 LINE SMOOTH",
"715 662 OFFCURVE",
"737 673 OFFCURVE",
"774 673 CURVE SMOOTH",
"803 673 LINE",
"807 700 LINE",
"591 700 LINE",
"587 673 LINE",
"614 673 LINE SMOOTH",
"647 673 OFFCURVE",
"663 665 OFFCURVE",
"663 646 CURVE SMOOTH",
"663 643 OFFCURVE",
"663 640 OFFCURVE",
"662 637 CURVE SMOOTH",
"558 126 LINE",
"312 700 LINE",
"125 700 LINE",
"120 673 LINE",
"148 673 LINE SMOOTH",
"181 673 OFFCURVE",
"197 664 OFFCURVE",
"197 645 CURVE SMOOTH",
"197 643 OFFCURVE",
"197 640 OFFCURVE",
"196 637 CURVE SMOOTH",
"79 62 LINE SMOOTH",
"73 37 OFFCURVE",
"53 26 OFFCURVE",
"15 26 CURVE SMOOTH",
"-12 26 LINE",
"-17 0 LINE"
);
},
{
closed = 1;
nodes = (
"263 -258 OFFCURVE",
"317 -198 OFFCURVE",
"330 -135 CURVE SMOOTH",
"332 -126 OFFCURVE",
"333 -118 OFFCURVE",
"333 -111 CURVE SMOOTH",
"333 -80 OFFCURVE",
"316 -67 OFFCURVE",
"293 -67 CURVE SMOOTH",
"261 -67 OFFCURVE",
"239 -92 OFFCURVE",
"239 -120 CURVE SMOOTH",
"239 -144 OFFCURVE",
"259 -153 OFFCURVE",
"259 -177 CURVE SMOOTH",
"259 -180 OFFCURVE",
"259 -184 OFFCURVE",
"258 -187 CURVE SMOOTH",
"251 -223 OFFCURVE",
"219 -256 OFFCURVE",
"188 -282 CURVE",
"201 -299 LINE"
);
}
);
width = 725;
}
);
note = Ncommaaccent;
unicode = 0145;
},
{
glyphname = Ndotaccent;
lastChange = "2015-10-21 12:18:56 +0000";
layers = (
{
layerId = "09C3AFA4-7ACC-471D-A867-1713CECD7BC9";
name = "Regular Italic";
paths = (
{
closed = 1;
nodes = (
"199 0 LINE",
"204 26 LINE",
"175 26 LINE SMOOTH",
"143 26 OFFCURVE",
"126 34 OFFCURVE",
"126 53 CURVE SMOOTH",
"126 56 OFFCURVE",
"126 59 OFFCURVE",
"127 62 CURVE SMOOTH",
"245 642 LINE",
"525 0 LINE",
"581 0 LINE",
"710 637 LINE SMOOTH",
"715 662 OFFCURVE",
"737 673 OFFCURVE",
"774 673 CURVE SMOOTH",
"803 673 LINE",
"807 700 LINE",
"591 700 LINE",
"587 673 LINE",
"614 673 LINE SMOOTH",
"647 673 OFFCURVE",
"663 665 OFFCURVE",
"663 646 CURVE SMOOTH",
"663 643 OFFCURVE",
"663 640 OFFCURVE",
"662 637 CURVE SMOOTH",
"558 126 LINE",
"312 700 LINE",
"125 700 LINE",
"120 673 LINE",
"148 673 LINE SMOOTH",
"181 673 OFFCURVE",
"197 664 OFFCURVE",
"197 645 CURVE SMOOTH",
"197 643 OFFCURVE",
"197 640 OFFCURVE",
"196 637 CURVE SMOOTH",
"79 62 LINE SMOOTH",
"73 37 OFFCURVE",
"53 26 OFFCURVE",
"15 26 CURVE SMOOTH",
"-12 26 LINE",
"-17 0 LINE"
);
},
{
closed = 1;
nodes = (
"509 765 OFFCURVE",
"533 790 OFFCURVE",
"533 823 CURVE SMOOTH",
"533 844 OFFCURVE",
"520 858 OFFCURVE",
"497 858 CURVE SMOOTH",
"465 858 OFFCURVE",
"442 833 OFFCURVE",
"442 799 CURVE SMOOTH",
"442 778 OFFCURVE",
"454 765 OFFCURVE",
"478 765 CURVE SMOOTH"
);
}
);
width = 725;
}
);
note = Ndotaccent;
unicode = 1E44;
},
{
glyphname = Ndotbelow;
lastChange = "2015-10-21 12:18:57 +0000";
layers = (
{
layerId = "09C3AFA4-7ACC-471D-A867-1713CECD7BC9";
name = "Regular Italic";
paths = (
{
closed = 1;
nodes = (
"199 0 LINE",
"204 26 LINE",
"175 26 LINE SMOOTH",
"143 26 OFFCURVE",
"126 34 OFFCURVE",
"126 53 CURVE SMOOTH",
"126 56 OFFCURVE",
"126 59 OFFCURVE",
"127 62 CURVE SMOOTH",
"245 642 LINE",
"525 0 LINE",
"581 0 LINE",
"710 637 LINE SMOOTH",
"715 662 OFFCURVE",
"737 673 OFFCURVE",
"774 673 CURVE SMOOTH",
"803 673 LINE",
"807 700 LINE",
"591 700 LINE",
"587 673 LINE",
"614 673 LINE SMOOTH",
"647 673 OFFCURVE",
"663 665 OFFCURVE",
"663 646 CURVE SMOOTH",
"663 643 OFFCURVE",
"663 640 OFFCURVE",
"662 637 CURVE SMOOTH",
"558 126 LINE",
"312 700 LINE",
"125 700 LINE",
"120 673 LINE",
"148 673 LINE SMOOTH",
"181 673 OFFCURVE",
"197 664 OFFCURVE",
"197 645 CURVE SMOOTH",
"197 643 OFFCURVE",
"197 640 OFFCURVE",
"196 637 CURVE SMOOTH",
"79 62 LINE SMOOTH",
"73 37 OFFCURVE",
"53 26 OFFCURVE",
"15 26 CURVE SMOOTH",
"-12 26 LINE",
"-17 0 LINE"
);
},
{
closed = 1;
nodes = (
"332 -159 OFFCURVE",
"356 -134 OFFCURVE",
"356 -99 CURVE SMOOTH",
"356 -78 OFFCURVE",
"344 -64 OFFCURVE",
"321 -64 CURVE SMOOTH",
"290 -64 OFFCURVE",
"265 -90 OFFCURVE",
"265 -124 CURVE SMOOTH",
"265 -145 OFFCURVE",
"279 -159 OFFCURVE",
"301 -159 CURVE SMOOTH"
);
}
);
width = 771;
}
);
note = uni1E46;
unicode = 1E46;
},
{
glyphname = Eng;
lastChange = "2015-10-21 12:18:57 +0000";
layers = (
{
layerId = "09C3AFA4-7ACC-471D-A867-1713CECD7BC9";
name = "Regular Italic";
paths = (
{
closed = 1;
nodes = (
"476 -259 OFFCURVE",
"543 -182 OFFCURVE",
"573 -36 CURVE SMOOTH",
"710 637 LINE SMOOTH",
"715 662 OFFCURVE",
"737 673 OFFCURVE",
"774 673 CURVE SMOOTH",
"803 673 LINE",
"807 700 LINE",
"591 700 LINE",
"587 673 LINE",
"614 673 LINE SMOOTH",
"647 673 OFFCURVE",
"663 665 OFFCURVE",
"663 646 CURVE SMOOTH",
"663 643 OFFCURVE",
"663 640 OFFCURVE",
"662 637 CURVE SMOOTH",
"558 125 LINE",
"314 700 LINE",
"125 700 LINE",
"120 673 LINE",
"148 673 LINE SMOOTH",
"181 673 OFFCURVE",
"197 664 OFFCURVE",
"197 645 CURVE SMOOTH",
"197 643 OFFCURVE",
"197 640 OFFCURVE",
"196 637 CURVE SMOOTH",
"79 62 LINE SMOOTH",
"73 37 OFFCURVE",
"56 26 OFFCURVE",
"15 26 CURVE SMOOTH",
"-12 26 LINE",
"-17 0 LINE",
"199 0 LINE",
"204 26 LINE",
"175 26 LINE SMOOTH",
"143 26 OFFCURVE",
"126 34 OFFCURVE",
"126 53 CURVE SMOOTH",
"126 56 OFFCURVE",
"126 59 OFFCURVE",
"127 62 CURVE SMOOTH",
"246 647 LINE",
"524 0 LINE",
"508 -76 LINE SMOOTH",
"489 -173 OFFCURVE",
"402 -238 OFFCURVE",
"318 -243 CURVE",
"317 -268 LINE"
);
}
);
width = 725;
}
);
note = Eng;
unicode = 014A;
},
{
glyphname = Nlinebelow;
lastChange = "2015-10-21 12:18:57 +0000";
layers = (
{
layerId = "09C3AFA4-7ACC-471D-A867-1713CECD7BC9";
name = "Regular Italic";
paths = (
{
closed = 1;
nodes = (
"199 0 LINE",
"204 26 LINE",
"175 26 LINE SMOOTH",
"143 26 OFFCURVE",
"126 34 OFFCURVE",
"126 53 CURVE SMOOTH",
"126 56 OFFCURVE",
"126 59 OFFCURVE",
"127 62 CURVE SMOOTH",
"245 642 LINE",
"525 0 LINE",
"581 0 LINE",
"710 637 LINE SMOOTH",
"715 662 OFFCURVE",
"737 673 OFFCURVE",
"774 673 CURVE SMOOTH",
"803 673 LINE",
"807 700 LINE",
"591 700 LINE",
"587 673 LINE",
"614 673 LINE SMOOTH",
"647 673 OFFCURVE",
"663 665 OFFCURVE",
"663 646 CURVE SMOOTH",
"663 643 OFFCURVE",
"663 640 OFFCURVE",
"662 637 CURVE SMOOTH",
"558 126 LINE",
"312 700 LINE",
"125 700 LINE",
"120 673 LINE",
"148 673 LINE SMOOTH",
"181 673 OFFCURVE",
"197 664 OFFCURVE",
"197 645 CURVE SMOOTH",
"197 643 OFFCURVE",
"197 640 OFFCURVE",
"196 637 CURVE SMOOTH",
"79 62 LINE SMOOTH",
"73 37 OFFCURVE",
"53 26 OFFCURVE",
"15 26 CURVE SMOOTH",
"-12 26 LINE",
"-17 0 LINE"
);
},
{
closed = 1;
nodes = (
"459 -110 LINE",
"467 -72 LINE",
"149 -72 LINE",
"141 -110 LINE"
);
}
);
width = 725;
}
);
note = Nlinebelow;
unicode = 1E48;
},
{
glyphname = Ntilde;
lastChange = "2015-10-21 12:18:56 +0000";
layers = (
{
layerId = "09C3AFA4-7ACC-471D-A867-1713CECD7BC9";
name = "Regular Italic";
paths = (
{
closed = 1;
nodes = (
"199 0 LINE",
"204 26 LINE",
"175 26 LINE SMOOTH",
"143 26 OFFCURVE",
"126 34 OFFCURVE",
"126 53 CURVE SMOOTH",
"126 56 OFFCURVE",
"126 59 OFFCURVE",
"127 62 CURVE SMOOTH",
"245 642 LINE",
"525 0 LINE",
"581 0 LINE",
"710 637 LINE SMOOTH",
"715 662 OFFCURVE",
"737 673 OFFCURVE",
"774 673 CURVE SMOOTH",
"803 673 LINE",
"807 700 LINE",
"591 700 LINE",
"587 673 LINE",
"614 673 LINE SMOOTH",
"647 673 OFFCURVE",
"663 665 OFFCURVE",
"663 646 CURVE SMOOTH",
"663 643 OFFCURVE",
"663 640 OFFCURVE",
"662 637 CURVE SMOOTH",
"558 126 LINE",
"312 700 LINE",
"125 700 LINE",
"120 673 LINE",
"148 673 LINE SMOOTH",
"181 673 OFFCURVE",
"197 664 OFFCURVE",
"197 645 CURVE SMOOTH",
"197 643 OFFCURVE",
"197 640 OFFCURVE",
"196 637 CURVE SMOOTH",
"79 62 LINE SMOOTH",
"73 37 OFFCURVE",
"53 26 OFFCURVE",
"15 26 CURVE SMOOTH",
"-12 26 LINE",
"-17 0 LINE"
);
},
{
closed = 1;
nodes = (
"372 818 OFFCURVE",
"394 839 OFFCURVE",
"425 839 CURVE SMOOTH",
"474 839 OFFCURVE",
"510 785 OFFCURVE",
"559 785 CURVE SMOOTH",
"614 785 OFFCURVE",
"653 833 OFFCURVE",
"675 885 CURVE",
"657 896 LINE",
"635 856 OFFCURVE",
"614 834 OFFCURVE",
"582 834 CURVE SMOOTH",
"535 834 OFFCURVE",
"495 887 OFFCURVE",
"446 887 CURVE SMOOTH",
"395 887 OFFCURVE",
"354 843 OFFCURVE",
"332 791 CURVE",
"350 780 LINE"
);
}
);
width = 725;
}
);
note = Ntilde;
unicode = 00D1;
},
{
glyphname = O;
lastChange = "2015-10-21 12:18:56 +0000";
layers = (
{
layerId = "09C3AFA4-7ACC-471D-A867-1713CECD7BC9";
name = "Regular Italic";
paths = (
{
closed = 1;
nodes = (
"536 -10 OFFCURVE",
"677 124 OFFCURVE",
"723 350 CURVE SMOOTH",
"731 389 OFFCURVE",
"735 426 OFFCURVE",
"735 459 CURVE SMOOTH",
"735 617 OFFCURVE",
"645 710 OFFCURVE",
"468 710 CURVE SMOOTH",
"253 710 OFFCURVE",
"113 574 OFFCURVE",
"67 350 CURVE SMOOTH",
"59 311 OFFCURVE",
"55 274 OFFCURVE",
"55 240 CURVE SMOOTH",
"55 81 OFFCURVE",
"145 -10 OFFCURVE",
"322 -10 CURVE SMOOTH"
);
},
{
closed = 1;
nodes = (
"207 32 OFFCURVE",
"149 110 OFFCURVE",
"149 237 CURVE SMOOTH",
"149 271 OFFCURVE",
"154 309 OFFCURVE",
"162 350 CURVE SMOOTH",
"201 541 OFFCURVE",
"303 668 OFFCURVE",
"459 668 CURVE SMOOTH",
"583 668 OFFCURVE",
"640 589 OFFCURVE",
"640 462 CURVE SMOOTH",
"640 428 OFFCURVE",
"636 390 OFFCURVE",
"628 350 CURVE SMOOTH",
"588 158 OFFCURVE",
"487 32 OFFCURVE",
"329 32 CURVE SMOOTH"
);
}
);
width = 725;
}
);
leftKerningGroup = O;
note = O;
rightKerningGroup = O;
unicode = 004F;
},
{
glyphname = Oacute;
lastChange = "2015-10-21 12:18:56 +0000";
layers = (
{
layerId = "09C3AFA4-7ACC-471D-A867-1713CECD7BC9";
name = "Regular Italic";
paths = (
{
closed = 1;
nodes = (
"536 -10 OFFCURVE",
"677 124 OFFCURVE",
"723 350 CURVE SMOOTH",
"731 389 OFFCURVE",
"735 426 OFFCURVE",
"735 459 CURVE SMOOTH",
"735 617 OFFCURVE",
"645 710 OFFCURVE",
"468 710 CURVE SMOOTH",
"253 710 OFFCURVE",
"113 574 OFFCURVE",
"67 350 CURVE SMOOTH",
"59 311 OFFCURVE",
"55 274 OFFCURVE",
"55 240 CURVE SMOOTH",
"55 81 OFFCURVE",
"145 -10 OFFCURVE",
"322 -10 CURVE SMOOTH"
);
},
{
closed = 1;
nodes = (
"207 32 OFFCURVE",
"149 110 OFFCURVE",
"149 237 CURVE SMOOTH",
"149 271 OFFCURVE",
"154 309 OFFCURVE",
"162 350 CURVE SMOOTH",
"201 541 OFFCURVE",
"303 668 OFFCURVE",
"459 668 CURVE SMOOTH",
"583 668 OFFCURVE",
"640 589 OFFCURVE",
"640 462 CURVE SMOOTH",
"640 428 OFFCURVE",
"636 390 OFFCURVE",
"628 350 CURVE SMOOTH",
"588 158 OFFCURVE",
"487 32 OFFCURVE",
"329 32 CURVE SMOOTH"
);
},
{
closed = 1;
nodes = (
"560 865 LINE SMOOTH",
"584 877 OFFCURVE",
"598 890 OFFCURVE",
"601 907 CURVE",
"605 922 OFFCURVE",
"596 937 OFFCURVE",
"575 937 CURVE SMOOTH",
"555 937 OFFCURVE",
"537 921 OFFCURVE",
"528 914 CURVE SMOOTH",
"396 807 LINE",
"407 782 LINE"
);
}
);
width = 725;
}
);
leftKerningGroup = O;
note = Oacute;
rightKerningGroup = O;
unicode = 00D3;
},
{
glyphname = Obreve;
lastChange = "2015-10-21 12:18:56 +0000";
layers = (
{
layerId = "09C3AFA4-7ACC-471D-A867-1713CECD7BC9";
name = "Regular Italic";
paths = (
{
closed = 1;
nodes = (
"536 -10 OFFCURVE",
"677 124 OFFCURVE",
"723 350 CURVE SMOOTH",
"731 389 OFFCURVE",
"735 426 OFFCURVE",
"735 459 CURVE SMOOTH",
"735 617 OFFCURVE",
"645 710 OFFCURVE",
"468 710 CURVE SMOOTH",
"253 710 OFFCURVE",
"113 574 OFFCURVE",
"67 350 CURVE SMOOTH",
"59 311 OFFCURVE",
"55 274 OFFCURVE",
"55 240 CURVE SMOOTH",
"55 81 OFFCURVE",
"145 -10 OFFCURVE",
"322 -10 CURVE SMOOTH"
);
},
{
closed = 1;
nodes = (
"207 32 OFFCURVE",
"149 110 OFFCURVE",
"149 237 CURVE SMOOTH",
"149 271 OFFCURVE",
"154 309 OFFCURVE",
"162 350 CURVE SMOOTH",
"201 541 OFFCURVE",
"303 668 OFFCURVE",
"459 668 CURVE SMOOTH",
"583 668 OFFCURVE",
"640 589 OFFCURVE",
"640 462 CURVE SMOOTH",
"640 428 OFFCURVE",
"636 390 OFFCURVE",
"628 350 CURVE SMOOTH",
"588 158 OFFCURVE",
"487 32 OFFCURVE",
"329 32 CURVE SMOOTH"
);
},
{
closed = 1;
nodes = (
"577 774 OFFCURVE",
"628 830 OFFCURVE",
"647 905 CURVE",
"615 905 LINE",
"598 846 OFFCURVE",
"552 820 OFFCURVE",
"491 820 CURVE SMOOTH",
"429 820 OFFCURVE",
"394 846 OFFCURVE",
"398 905 CURVE",
"367 905 LINE",
"366 895 OFFCURVE",
"365 885 OFFCURVE",
"365 876 CURVE SMOOTH",
"365 814 OFFCURVE",
"398 774 OFFCURVE",
"482 774 CURVE SMOOTH"
);
}
);
width = 725;
}
);
leftKerningGroup = O;
note = Obreve;
rightKerningGroup = O;
unicode = 014E;
},
{
glyphname = Ocaron;
lastChange = "2015-10-21 12:18:56 +0000";
layers = (
{
layerId = "09C3AFA4-7ACC-471D-A867-1713CECD7BC9";
name = "Regular Italic";
paths = (
{
closed = 1;
nodes = (
"536 -10 OFFCURVE",
"677 124 OFFCURVE",
"723 350 CURVE SMOOTH",
"731 389 OFFCURVE",
"735 426 OFFCURVE",
"735 459 CURVE SMOOTH",
"735 617 OFFCURVE",
"645 710 OFFCURVE",
"468 710 CURVE SMOOTH",
"253 710 OFFCURVE",
"113 574 OFFCURVE",
"67 350 CURVE SMOOTH",
"59 311 OFFCURVE",
"55 274 OFFCURVE",
"55 240 CURVE SMOOTH",
"55 81 OFFCURVE",
"145 -10 OFFCURVE",
"322 -10 CURVE SMOOTH"
);
},
{
closed = 1;
nodes = (
"207 32 OFFCURVE",
"149 110 OFFCURVE",
"149 237 CURVE SMOOTH",
"149 271 OFFCURVE",
"154 309 OFFCURVE",
"162 350 CURVE SMOOTH",
"201 541 OFFCURVE",
"303 668 OFFCURVE",
"459 668 CURVE SMOOTH",
"583 668 OFFCURVE",
"640 589 OFFCURVE",
"640 462 CURVE SMOOTH",
"640 428 OFFCURVE",
"636 390 OFFCURVE",
"628 350 CURVE SMOOTH",
"588 158 OFFCURVE",
"487 32 OFFCURVE",
"329 32 CURVE SMOOTH"
);
},
{
closed = 1;
nodes = (
"508 782 LINE",
"653 911 LINE",
"639 932 LINE",
"518 847 LINE SMOOTH",
"509 840 OFFCURVE",
"499 836 OFFCURVE",
"493 836 CURVE SMOOTH",
"488 836 OFFCURVE",
"481 840 OFFCURVE",
"473 847 CURVE",
"387 932 LINE",
"365 911 LINE",
"457 782 LINE"
);
}
);
width = 725;
}
);
leftKerningGroup = O;
note = Ocaron;
rightKerningGroup = O;
unicode = 01D1;
},
{
glyphname = Ocircumflex;
lastChange = "2015-10-21 12:18:57 +0000";
layers = (
{
layerId = "09C3AFA4-7ACC-471D-A867-1713CECD7BC9";
name = "Regular Italic";
paths = (
{
closed = 1;
nodes = (
"536 -10 OFFCURVE",
"677 124 OFFCURVE",
"723 350 CURVE SMOOTH",
"731 389 OFFCURVE",
"735 426 OFFCURVE",
"735 459 CURVE SMOOTH",
"735 617 OFFCURVE",
"645 710 OFFCURVE",
"468 710 CURVE SMOOTH",
"253 710 OFFCURVE",
"113 574 OFFCURVE",
"67 350 CURVE SMOOTH",
"59 311 OFFCURVE",
"55 274 OFFCURVE",
"55 240 CURVE SMOOTH",
"55 81 OFFCURVE",
"145 -10 OFFCURVE",
"322 -10 CURVE SMOOTH"
);
},
{
closed = 1;
nodes = (
"207 32 OFFCURVE",
"149 110 OFFCURVE",
"149 237 CURVE SMOOTH",
"149 271 OFFCURVE",
"154 309 OFFCURVE",
"162 350 CURVE SMOOTH",
"201 541 OFFCURVE",
"303 668 OFFCURVE",
"459 668 CURVE SMOOTH",
"583 668 OFFCURVE",
"640 589 OFFCURVE",
"640 462 CURVE SMOOTH",
"640 428 OFFCURVE",
"636 390 OFFCURVE",
"628 350 CURVE SMOOTH",
"588 158 OFFCURVE",
"487 32 OFFCURVE",
"329 32 CURVE SMOOTH"
);
},
{
closed = 1;
nodes = (
"477 868 LINE SMOOTH",
"486 874 OFFCURVE",
"496 879 OFFCURVE",
"502 879 CURVE SMOOTH",
"508 879 OFFCURVE",
"515 874 OFFCURVE",
"522 868 CURVE",
"609 782 LINE",
"631 803 LINE",
"539 932 LINE",
"488 932 LINE",
"343 803 LINE",
"357 782 LINE"
);
}
);
width = 725;
}
);
leftKerningGroup = O;
note = Ocircumflex;
rightKerningGroup = O;
unicode = 00D4;
},
{
glyphname = Ocircumflexacute;
lastChange = "2015-10-21 12:18:56 +0000";
layers = (
{
layerId = "09C3AFA4-7ACC-471D-A867-1713CECD7BC9";
name = "Regular Italic";
paths = (
{
closed = 1;
nodes = (
"536 -10 OFFCURVE",
"677 124 OFFCURVE",
"723 350 CURVE SMOOTH",
"731 389 OFFCURVE",
"735 426 OFFCURVE",
"735 459 CURVE SMOOTH",
"735 617 OFFCURVE",
"645 710 OFFCURVE",
"468 710 CURVE SMOOTH",
"253 710 OFFCURVE",
"113 574 OFFCURVE",
"67 350 CURVE SMOOTH",
"59 311 OFFCURVE",
"55 274 OFFCURVE",
"55 240 CURVE SMOOTH",
"55 81 OFFCURVE",
"145 -10 OFFCURVE",
"322 -10 CURVE SMOOTH"
);
},
{
closed = 1;
nodes = (
"207 32 OFFCURVE",
"149 110 OFFCURVE",
"149 237 CURVE SMOOTH",
"149 271 OFFCURVE",
"154 309 OFFCURVE",
"162 350 CURVE SMOOTH",
"201 541 OFFCURVE",
"303 668 OFFCURVE",
"459 668 CURVE SMOOTH",
"583 668 OFFCURVE",
"640 589 OFFCURVE",
"640 462 CURVE SMOOTH",
"640 428 OFFCURVE",
"636 390 OFFCURVE",
"628 350 CURVE SMOOTH",
"588 158 OFFCURVE",
"487 32 OFFCURVE",
"329 32 CURVE SMOOTH"
);
},
{
closed = 1;
nodes = (
"471 861 LINE SMOOTH",
"482 869 OFFCURVE",
"493 877 OFFCURVE",
"501 877 CURVE SMOOTH",
"507 877 OFFCURVE",
"514 872 OFFCURVE",
"521 866 CURVE",
"606 780 LINE",
"627 802 LINE",
"538 931 LINE",
"489 931 LINE",
"345 802 LINE",
"358 780 LINE"
);
},
{
closed = 1;
nodes = (
"745 959 LINE SMOOTH",
"772 973 OFFCURVE",
"789 991 OFFCURVE",
"789 1008 CURVE SMOOTH",
"789 1020 OFFCURVE",
"780 1033 OFFCURVE",
"761 1033 CURVE SMOOTH",
"743 1033 OFFCURVE",
"724 1017 OFFCURVE",
"712 1007 CURVE SMOOTH",
"602 914 LINE",
"614 892 LINE"
);
}
);
width = 725;
}
);
leftKerningGroup = O;
note = Ocircumflexacute;
rightKerningGroup = O;
unicode = 1ED0;
},
{
glyphname = Ocircumflexdotbelow;
lastChange = "2015-10-21 12:18:56 +0000";
layers = (
{
layerId = "09C3AFA4-7ACC-471D-A867-1713CECD7BC9";
name = "Regular Italic";
paths = (
{
closed = 1;
nodes = (
"536 -10 OFFCURVE",
"677 124 OFFCURVE",
"723 350 CURVE SMOOTH",
"731 389 OFFCURVE",
"735 426 OFFCURVE",
"735 459 CURVE SMOOTH",
"735 617 OFFCURVE",
"645 710 OFFCURVE",
"468 710 CURVE SMOOTH",
"253 710 OFFCURVE",
"113 574 OFFCURVE",
"67 350 CURVE SMOOTH",
"59 311 OFFCURVE",
"55 274 OFFCURVE",
"55 240 CURVE SMOOTH",
"55 81 OFFCURVE",
"145 -10 OFFCURVE",
"322 -10 CURVE SMOOTH"
);
},
{
closed = 1;
nodes = (
"322 -159 OFFCURVE",
"347 -135 OFFCURVE",
"347 -101 CURVE SMOOTH",
"347 -79 OFFCURVE",
"334 -64 OFFCURVE",
"311 -64 CURVE SMOOTH",
"281 -64 OFFCURVE",
"255 -89 OFFCURVE",
"255 -123 CURVE SMOOTH",
"255 -145 OFFCURVE",
"269 -159 OFFCURVE",
"292 -159 CURVE SMOOTH"
);
},
{
closed = 1;
nodes = (
"207 32 OFFCURVE",
"149 110 OFFCURVE",
"149 237 CURVE SMOOTH",
"149 271 OFFCURVE",
"154 309 OFFCURVE",
"162 350 CURVE SMOOTH",
"201 541 OFFCURVE",
"303 668 OFFCURVE",
"459 668 CURVE SMOOTH",
"583 668 OFFCURVE",
"640 589 OFFCURVE",
"640 462 CURVE SMOOTH",
"640 428 OFFCURVE",
"636 390 OFFCURVE",
"628 350 CURVE SMOOTH",
"588 158 OFFCURVE",
"487 32 OFFCURVE",
"329 32 CURVE SMOOTH"
);
},
{
closed = 1;
nodes = (
"476 868 LINE SMOOTH",
"485 874 OFFCURVE",
"495 879 OFFCURVE",
"501 879 CURVE SMOOTH",
"507 879 OFFCURVE",
"514 874 OFFCURVE",
"521 868 CURVE",
"608 782 LINE",
"630 803 LINE",
"538 932 LINE",
"487 932 LINE",
"342 803 LINE",
"356 782 LINE"
);
}
);
width = 725;
}
);
leftKerningGroup = O;
note = Ocircumflexdotbelow;
rightKerningGroup = O;
unicode = 1ED8;
},
{
glyphname = Ocircumflexgrave;
lastChange = "2015-10-21 12:18:56 +0000";
layers = (
{
layerId = "09C3AFA4-7ACC-471D-A867-1713CECD7BC9";
name = "Regular Italic";
paths = (
{
closed = 1;
nodes = (
"536 -10 OFFCURVE",
"677 124 OFFCURVE",
"723 350 CURVE SMOOTH",
"731 389 OFFCURVE",
"735 426 OFFCURVE",
"735 459 CURVE SMOOTH",
"735 617 OFFCURVE",
"645 710 OFFCURVE",
"468 710 CURVE SMOOTH",
"253 710 OFFCURVE",
"113 574 OFFCURVE",
"67 350 CURVE SMOOTH",
"59 311 OFFCURVE",
"55 274 OFFCURVE",
"55 240 CURVE SMOOTH",
"55 81 OFFCURVE",
"145 -10 OFFCURVE",
"322 -10 CURVE SMOOTH"
);
},
{
closed = 1;
nodes = (
"207 32 OFFCURVE",
"149 110 OFFCURVE",
"149 237 CURVE SMOOTH",
"149 271 OFFCURVE",
"154 309 OFFCURVE",
"162 350 CURVE SMOOTH",
"201 541 OFFCURVE",
"303 668 OFFCURVE",
"459 668 CURVE SMOOTH",
"583 668 OFFCURVE",
"640 589 OFFCURVE",
"640 462 CURVE SMOOTH",
"640 428 OFFCURVE",
"636 390 OFFCURVE",
"628 350 CURVE SMOOTH",
"588 158 OFFCURVE",
"487 32 OFFCURVE",
"329 32 CURVE SMOOTH"
);
},
{
closed = 1;
nodes = (
"421 914 LINE",
"349 1007 LINE SMOOTH",
"342 1017 OFFCURVE",
"328 1033 OFFCURVE",
"309 1033 CURVE SMOOTH",
"285 1033 OFFCURVE",
"271 1010 OFFCURVE",
"271 996 CURVE SMOOTH",
"271 983 OFFCURVE",
"280 969 OFFCURVE",
"298 959 CURVE",
"400 892 LINE"
);
},
{
closed = 1;
nodes = (
"471 861 LINE SMOOTH",
"482 869 OFFCURVE",
"493 877 OFFCURVE",
"501 877 CURVE SMOOTH",
"507 877 OFFCURVE",
"514 872 OFFCURVE",
"521 866 CURVE",
"606 780 LINE",
"627 802 LINE",
"538 931 LINE",
"489 931 LINE",
"345 802 LINE",
"358 780 LINE"
);
}
);
width = 725;
}
);
leftKerningGroup = O;
note = Ocircumflexgrave;
rightKerningGroup = O;
unicode = 1ED2;
},
{
glyphname = Ocircumflexhookabove;
lastChange = "2015-10-21 12:18:57 +0000";
layers = (
{
layerId = "09C3AFA4-7ACC-471D-A867-1713CECD7BC9";
name = "Regular Italic";
paths = (
{
closed = 1;
nodes = (
"536 -10 OFFCURVE",
"677 124 OFFCURVE",
"723 350 CURVE SMOOTH",
"731 389 OFFCURVE",
"735 426 OFFCURVE",
"735 459 CURVE SMOOTH",
"735 617 OFFCURVE",
"645 710 OFFCURVE",
"468 710 CURVE SMOOTH",
"253 710 OFFCURVE",
"113 574 OFFCURVE",
"67 350 CURVE SMOOTH",
"59 311 OFFCURVE",
"55 274 OFFCURVE",
"55 240 CURVE SMOOTH",
"55 81 OFFCURVE",
"145 -10 OFFCURVE",
"322 -10 CURVE SMOOTH"
);
},
{
closed = 1;
nodes = (
"207 32 OFFCURVE",
"149 110 OFFCURVE",
"149 237 CURVE SMOOTH",
"149 271 OFFCURVE",
"154 309 OFFCURVE",
"162 350 CURVE SMOOTH",
"201 541 OFFCURVE",
"303 668 OFFCURVE",
"459 668 CURVE SMOOTH",
"583 668 OFFCURVE",
"640 589 OFFCURVE",
"640 462 CURVE SMOOTH",
"640 428 OFFCURVE",
"636 390 OFFCURVE",
"628 350 CURVE SMOOTH",
"588 158 OFFCURVE",
"487 32 OFFCURVE",
"329 32 CURVE SMOOTH"
);
},
{
closed = 1;
nodes = (
"467 858 LINE",
"479 868 OFFCURVE",
"492 878 OFFCURVE",
"501 878 CURVE SMOOTH",
"507 878 OFFCURVE",
"514 873 OFFCURVE",
"521 867 CURVE",
"606 781 LINE",
"627 803 LINE",
"538 932 LINE",
"489 932 LINE",
"345 803 LINE",
"358 781 LINE"
);
},
{
closed = 1;
nodes = (
"672 898 LINE",
"656 905 OFFCURVE",
"647 912 OFFCURVE",
"650 926 CURVE SMOOTH",
"656 956 OFFCURVE",
"745 966 OFFCURVE",
"745 1020 CURVE SMOOTH",
"745 1050 OFFCURVE",
"711 1063 OFFCURVE",
"675 1063 CURVE SMOOTH",
"645 1063 OFFCURVE",
"600 1053 OFFCURVE",
"594 1022 CURVE",
"591 1010 OFFCURVE",
"600 1001 OFFCURVE",
"610 1001 CURVE SMOOTH",
"636 1001 OFFCURVE",
"633 1040 OFFCURVE",
"674 1040 CURVE SMOOTH",
"692 1040 OFFCURVE",
"700 1028 OFFCURVE",
"697 1013 CURVE SMOOTH",
"688 973 OFFCURVE",
"617 965 OFFCURVE",
"610 925 CURVE SMOOTH",
"609 922 OFFCURVE",
"609 918 OFFCURVE",
"609 915 CURVE SMOOTH",
"609 895 OFFCURVE",
"622 880 OFFCURVE",
"660 880 CURVE"
);
}
);
width = 725;
}
);
leftKerningGroup = O;
note = Ocircumflexhookabove;
rightKerningGroup = O;
unicode = 1ED4;
},
{
glyphname = Ocircumflextilde;
lastChange = "2015-10-21 12:18:56 +0000";
layers = (
{
layerId = "09C3AFA4-7ACC-471D-A867-1713CECD7BC9";
name = "Regular Italic";
paths = (
{
closed = 1;
nodes = (
"536 -10 OFFCURVE",
"677 124 OFFCURVE",
"723 350 CURVE SMOOTH",
"731 389 OFFCURVE",
"735 426 OFFCURVE",
"735 459 CURVE SMOOTH",
"735 617 OFFCURVE",
"645 710 OFFCURVE",
"468 710 CURVE SMOOTH",
"253 710 OFFCURVE",
"113 574 OFFCURVE",
"67 350 CURVE SMOOTH",
"59 311 OFFCURVE",
"55 274 OFFCURVE",
"55 240 CURVE SMOOTH",
"55 81 OFFCURVE",
"145 -10 OFFCURVE",
"322 -10 CURVE SMOOTH"
);
},
{
closed = 1;
nodes = (
"207 32 OFFCURVE",
"149 110 OFFCURVE",
"149 237 CURVE SMOOTH",
"149 271 OFFCURVE",
"154 309 OFFCURVE",
"162 350 CURVE SMOOTH",
"201 541 OFFCURVE",
"303 668 OFFCURVE",
"459 668 CURVE SMOOTH",
"583 668 OFFCURVE",
"640 589 OFFCURVE",
"640 462 CURVE SMOOTH",
"640 428 OFFCURVE",
"636 390 OFFCURVE",
"628 350 CURVE SMOOTH",
"588 158 OFFCURVE",
"487 32 OFFCURVE",
"329 32 CURVE SMOOTH"
);
},
{
closed = 1;
nodes = (
"471 862 LINE SMOOTH",
"482 870 OFFCURVE",
"493 878 OFFCURVE",
"501 878 CURVE SMOOTH",
"507 878 OFFCURVE",
"514 873 OFFCURVE",
"521 867 CURVE",
"606 781 LINE",
"627 803 LINE",
"538 932 LINE",
"489 932 LINE",
"345 803 LINE",
"358 781 LINE"
);
},
{
closed = 1;
nodes = (
"405 997 OFFCURVE",
"427 1018 OFFCURVE",
"457 1018 CURVE SMOOTH",
"504 1018 OFFCURVE",
"538 964 OFFCURVE",
"585 964 CURVE SMOOTH",
"635 964 OFFCURVE",
"673 1012 OFFCURVE",
"695 1063 CURVE",
"677 1075 LINE",
"657 1035 OFFCURVE",
"636 1012 OFFCURVE",
"606 1012 CURVE SMOOTH",
"561 1012 OFFCURVE",
"524 1065 OFFCURVE",
"477 1065 CURVE SMOOTH",
"428 1065 OFFCURVE",
"389 1021 OFFCURVE",
"369 970 CURVE",
"385 958 LINE"
);
}
);
width = 725;
}
);
leftKerningGroup = O;
note = Ocircumflextilde;
rightKerningGroup = O;
unicode = 1ED6;
},
{
glyphname = Odieresis;
lastChange = "2015-10-21 12:18:57 +0000";
layers = (
{
layerId = "09C3AFA4-7ACC-471D-A867-1713CECD7BC9";
name = "Regular Italic";
paths = (
{
closed = 1;
nodes = (
"536 -10 OFFCURVE",
"677 124 OFFCURVE",
"723 350 CURVE SMOOTH",
"731 389 OFFCURVE",
"735 426 OFFCURVE",
"735 459 CURVE SMOOTH",
"735 617 OFFCURVE",
"645 710 OFFCURVE",
"468 710 CURVE SMOOTH",
"253 710 OFFCURVE",
"113 574 OFFCURVE",
"67 350 CURVE SMOOTH",
"59 311 OFFCURVE",
"55 274 OFFCURVE",
"55 240 CURVE SMOOTH",
"55 81 OFFCURVE",
"145 -10 OFFCURVE",
"322 -10 CURVE SMOOTH"
);
},
{
closed = 1;
nodes = (
"207 32 OFFCURVE",
"149 110 OFFCURVE",
"149 237 CURVE SMOOTH",
"149 271 OFFCURVE",
"154 309 OFFCURVE",
"162 350 CURVE SMOOTH",
"201 541 OFFCURVE",
"303 668 OFFCURVE",
"459 668 CURVE SMOOTH",
"583 668 OFFCURVE",
"640 589 OFFCURVE",
"640 462 CURVE SMOOTH",
"640 428 OFFCURVE",
"636 390 OFFCURVE",
"628 350 CURVE SMOOTH",
"588 158 OFFCURVE",
"487 32 OFFCURVE",
"329 32 CURVE SMOOTH"
);
},
{
closed = 1;
nodes = (
"410 781 OFFCURVE",
"433 806 OFFCURVE",
"433 840 CURVE SMOOTH",
"433 861 OFFCURVE",
"421 875 OFFCURVE",
"397 875 CURVE SMOOTH",
"368 875 OFFCURVE",
"343 850 OFFCURVE",
"343 816 CURVE SMOOTH",
"343 795 OFFCURVE",
"356 781 OFFCURVE",
"378 781 CURVE SMOOTH"
);
},
{
closed = 1;
nodes = (
"617 781 OFFCURVE",
"641 806 OFFCURVE",
"641 840 CURVE SMOOTH",
"641 861 OFFCURVE",
"628 875 OFFCURVE",
"605 875 CURVE SMOOTH",
"577 875 OFFCURVE",
"555 855 OFFCURVE",
"549 827 CURVE SMOOTH",
"548 823 OFFCURVE",
"548 820 OFFCURVE",
"548 817 CURVE SMOOTH",
"548 795 OFFCURVE",
"562 781 OFFCURVE",
"586 781 CURVE SMOOTH"
);
}
);
width = 725;
}
);
leftKerningGroup = O;
note = Odieresis;
rightKerningGroup = O;
unicode = 00D6;
},
{
glyphname = Odotbelow;
lastChange = "2015-10-21 12:18:57 +0000";
layers = (
{
layerId = "09C3AFA4-7ACC-471D-A867-1713CECD7BC9";
name = "Regular Italic";
paths = (
{
closed = 1;
nodes = (
"536 -10 OFFCURVE",
"677 124 OFFCURVE",
"723 350 CURVE SMOOTH",
"731 389 OFFCURVE",
"735 426 OFFCURVE",
"735 459 CURVE SMOOTH",
"735 617 OFFCURVE",
"645 710 OFFCURVE",
"468 710 CURVE SMOOTH",
"253 710 OFFCURVE",
"113 574 OFFCURVE",
"67 350 CURVE SMOOTH",
"59 311 OFFCURVE",
"55 274 OFFCURVE",
"55 240 CURVE SMOOTH",
"55 81 OFFCURVE",
"145 -10 OFFCURVE",
"322 -10 CURVE SMOOTH"
);
},
{
closed = 1;
nodes = (
"322 -159 OFFCURVE",
"347 -135 OFFCURVE",
"347 -101 CURVE SMOOTH",
"347 -79 OFFCURVE",
"334 -64 OFFCURVE",
"311 -64 CURVE SMOOTH",
"281 -64 OFFCURVE",
"255 -89 OFFCURVE",
"255 -123 CURVE SMOOTH",
"255 -145 OFFCURVE",
"269 -159 OFFCURVE",
"292 -159 CURVE SMOOTH"
);
},
{
closed = 1;
nodes = (
"207 32 OFFCURVE",
"149 110 OFFCURVE",
"149 237 CURVE SMOOTH",
"149 271 OFFCURVE",
"154 309 OFFCURVE",
"162 350 CURVE SMOOTH",
"201 541 OFFCURVE",
"303 668 OFFCURVE",
"459 668 CURVE SMOOTH",
"583 668 OFFCURVE",
"640 589 OFFCURVE",
"640 462 CURVE SMOOTH",
"640 428 OFFCURVE",
"636 390 OFFCURVE",
"628 350 CURVE SMOOTH",
"588 158 OFFCURVE",
"487 32 OFFCURVE",
"329 32 CURVE SMOOTH"
);
}
);
width = 725;
}
);
leftKerningGroup = O;
note = Odotbelow;
rightKerningGroup = O;
unicode = 1ECC;
},
{
glyphname = Ograve;
lastChange = "2015-10-21 12:18:57 +0000";
layers = (
{
layerId = "09C3AFA4-7ACC-471D-A867-1713CECD7BC9";
name = "Regular Italic";
paths = (
{
closed = 1;
nodes = (
"536 -10 OFFCURVE",
"677 124 OFFCURVE",
"723 350 CURVE SMOOTH",
"731 389 OFFCURVE",
"735 426 OFFCURVE",
"735 459 CURVE SMOOTH",
"735 617 OFFCURVE",
"645 710 OFFCURVE",
"468 710 CURVE SMOOTH",
"253 710 OFFCURVE",
"113 574 OFFCURVE",
"67 350 CURVE SMOOTH",
"59 311 OFFCURVE",
"55 274 OFFCURVE",
"55 240 CURVE SMOOTH",
"55 81 OFFCURVE",
"145 -10 OFFCURVE",
"322 -10 CURVE SMOOTH"
);
},
{
closed = 1;
nodes = (
"207 32 OFFCURVE",
"149 110 OFFCURVE",
"149 237 CURVE SMOOTH",
"149 271 OFFCURVE",
"154 309 OFFCURVE",
"162 350 CURVE SMOOTH",
"201 541 OFFCURVE",
"303 668 OFFCURVE",
"459 668 CURVE SMOOTH",
"583 668 OFFCURVE",
"640 589 OFFCURVE",
"640 462 CURVE SMOOTH",
"640 428 OFFCURVE",
"636 390 OFFCURVE",
"628 350 CURVE SMOOTH",
"588 158 OFFCURVE",
"487 32 OFFCURVE",
"329 32 CURVE SMOOTH"
);
},
{
closed = 1;
nodes = (
"566 807 LINE",
"478 913 LINE",
"471 922 OFFCURVE",
"459 937 OFFCURVE",
"440 937 CURVE SMOOTH",
"417 937 OFFCURVE",
"402 919 OFFCURVE",
"402 900 CURVE SMOOTH",
"402 886 OFFCURVE",
"410 874 OFFCURVE",
"423 865 CURVE SMOOTH",
"544 782 LINE"
);
}
);
width = 725;
}
);
leftKerningGroup = O;
note = Ograve;
rightKerningGroup = O;
unicode = 00D2;
},
{
glyphname = Ohookabove;
lastChange = "2015-10-21 12:18:56 +0000";
layers = (
{
layerId = "09C3AFA4-7ACC-471D-A867-1713CECD7BC9";
name = "Regular Italic";
paths = (
{
closed = 1;
nodes = (
"536 -10 OFFCURVE",
"677 124 OFFCURVE",
"723 350 CURVE SMOOTH",
"731 389 OFFCURVE",
"735 426 OFFCURVE",
"735 459 CURVE SMOOTH",
"735 617 OFFCURVE",
"645 710 OFFCURVE",
"468 710 CURVE SMOOTH",
"253 710 OFFCURVE",
"113 574 OFFCURVE",
"67 350 CURVE SMOOTH",
"59 311 OFFCURVE",
"55 274 OFFCURVE",
"55 240 CURVE SMOOTH",
"55 81 OFFCURVE",
"145 -10 OFFCURVE",
"322 -10 CURVE SMOOTH"
);
},
{
closed = 1;
nodes = (
"207 32 OFFCURVE",
"149 110 OFFCURVE",
"149 237 CURVE SMOOTH",
"149 271 OFFCURVE",
"154 309 OFFCURVE",
"162 350 CURVE SMOOTH",
"201 541 OFFCURVE",
"303 668 OFFCURVE",
"459 668 CURVE SMOOTH",
"583 668 OFFCURVE",
"640 589 OFFCURVE",
"640 462 CURVE SMOOTH",
"640 428 OFFCURVE",
"636 390 OFFCURVE",
"628 350 CURVE SMOOTH",
"588 158 OFFCURVE",
"487 32 OFFCURVE",
"329 32 CURVE SMOOTH"
);
},
{
closed = 1;
nodes = (
"516 798 LINE",
"499 805 OFFCURVE",
"489 811 OFFCURVE",
"492 828 CURVE SMOOTH",
"498 861 OFFCURVE",
"588 876 OFFCURVE",
"597 927 CURVE SMOOTH",
"598 932 OFFCURVE",
"598 936 OFFCURVE",
"598 940 CURVE SMOOTH",
"598 974 OFFCURVE",
"570 991 OFFCURVE",
"525 991 CURVE SMOOTH",
"477 991 OFFCURVE",
"429 971 OFFCURVE",
"429 932 CURVE SMOOTH",
"429 921 OFFCURVE",
"435 915 OFFCURVE",
"447 915 CURVE SMOOTH",
"469 915 OFFCURVE",
"475 934 OFFCURVE",
"480 942 CURVE",
"488 956 OFFCURVE",
"505 962 OFFCURVE",
"520 962 CURVE SMOOTH",
"537 962 OFFCURVE",
"547 951 OFFCURVE",
"547 937 CURVE SMOOTH",
"547 883 OFFCURVE",
"445 876 OFFCURVE",
"445 819 CURVE SMOOTH",
"445 796 OFFCURVE",
"460 778 OFFCURVE",
"503 778 CURVE"
);
}
);
width = 725;
}
);
leftKerningGroup = O;
note = Ohookabove;
rightKerningGroup = O;
unicode = 1ECE;
},
{
glyphname = Ohorn;
lastChange = "2015-10-21 12:18:56 +0000";
layers = (
{
layerId = "09C3AFA4-7ACC-471D-A867-1713CECD7BC9";
name = "Regular Italic";
paths = (
{
closed = 1;
nodes = (
"537 -10 OFFCURVE",
"678 124 OFFCURVE",
"724 350 CURVE SMOOTH",
"732 389 OFFCURVE",
"736 426 OFFCURVE",
"736 459 CURVE SMOOTH",
"736 617 OFFCURVE",
"646 710 OFFCURVE",
"469 710 CURVE SMOOTH",
"254 710 OFFCURVE",
"114 574 OFFCURVE",
"68 350 CURVE SMOOTH",
"60 311 OFFCURVE",
"56 274 OFFCURVE",
"56 240 CURVE SMOOTH",
"56 81 OFFCURVE",
"146 -10 OFFCURVE",
"323 -10 CURVE SMOOTH"
);
},
{
closed = 1;
nodes = (
"208 32 OFFCURVE",
"150 110 OFFCURVE",
"150 237 CURVE SMOOTH",
"150 271 OFFCURVE",
"155 309 OFFCURVE",
"163 350 CURVE SMOOTH",
"202 541 OFFCURVE",
"304 668 OFFCURVE",
"460 668 CURVE SMOOTH",
"584 668 OFFCURVE",
"641 589 OFFCURVE",
"641 462 CURVE SMOOTH",
"641 428 OFFCURVE",
"637 390 OFFCURVE",
"629 350 CURVE SMOOTH",
"589 158 OFFCURVE",
"488 32 OFFCURVE",
"330 32 CURVE SMOOTH"
);
},
{
closed = 1;
nodes = (
"759 579 OFFCURVE",
"835 644 OFFCURVE",
"850 717 CURVE SMOOTH",
"851 724 OFFCURVE",
"852 731 OFFCURVE",
"852 737 CURVE SMOOTH",
"852 770 OFFCURVE",
"833 784 OFFCURVE",
"810 784 CURVE SMOOTH",
"779 784 OFFCURVE",
"757 759 OFFCURVE",
"757 733 CURVE SMOOTH",
"757 709 OFFCURVE",
"776 699 OFFCURVE",
"776 675 CURVE SMOOTH",
"776 634 OFFCURVE",
"735 602 OFFCURVE",
"695 580 CURVE",
"690 555 LINE"
);
}
);
width = 732;
}
);
leftKerningGroup = O;
note = Ohorn;
rightKerningGroup = O;
unicode = 01A0;
},
{
glyphname = Ohornacute;
lastChange = "2015-10-21 12:18:57 +0000";
layers = (
{
layerId = "09C3AFA4-7ACC-471D-A867-1713CECD7BC9";
name = "Regular Italic";
paths = (
{
closed = 1;
nodes = (
"537 -10 OFFCURVE",
"678 124 OFFCURVE",
"724 350 CURVE SMOOTH",
"732 389 OFFCURVE",
"736 426 OFFCURVE",
"736 459 CURVE SMOOTH",
"736 617 OFFCURVE",
"646 710 OFFCURVE",
"469 710 CURVE SMOOTH",
"254 710 OFFCURVE",
"114 574 OFFCURVE",
"68 350 CURVE SMOOTH",
"60 311 OFFCURVE",
"56 274 OFFCURVE",
"56 240 CURVE SMOOTH",
"56 81 OFFCURVE",
"146 -10 OFFCURVE",
"323 -10 CURVE SMOOTH"
);
},
{
closed = 1;
nodes = (
"208 32 OFFCURVE",
"150 110 OFFCURVE",
"150 237 CURVE SMOOTH",
"150 271 OFFCURVE",
"155 309 OFFCURVE",
"163 350 CURVE SMOOTH",
"202 541 OFFCURVE",
"304 668 OFFCURVE",
"460 668 CURVE SMOOTH",
"584 668 OFFCURVE",
"641 589 OFFCURVE",
"641 462 CURVE SMOOTH",
"641 428 OFFCURVE",
"637 390 OFFCURVE",
"629 350 CURVE SMOOTH",
"589 158 OFFCURVE",
"488 32 OFFCURVE",
"330 32 CURVE SMOOTH"
);
},
{
closed = 1;
nodes = (
"544 864 LINE SMOOTH",
"568 876 OFFCURVE",
"583 889 OFFCURVE",
"586 906 CURVE",
"589 921 OFFCURVE",
"581 936 OFFCURVE",
"560 936 CURVE SMOOTH",
"540 936 OFFCURVE",
"521 920 OFFCURVE",
"513 913 CURVE SMOOTH",
"380 806 LINE",
"392 781 LINE"
);
},
{
closed = 1;
nodes = (
"747 569 OFFCURVE",
"832 645 OFFCURVE",
"832 726 CURVE SMOOTH",
"832 758 OFFCURVE",
"813 772 OFFCURVE",
"791 772 CURVE SMOOTH",
"759 772 OFFCURVE",
"738 746 OFFCURVE",
"738 719 CURVE SMOOTH",
"738 696 OFFCURVE",
"757 687 OFFCURVE",
"757 663 CURVE SMOOTH",
"757 622 OFFCURVE",
"715 590 OFFCURVE",
"676 568 CURVE",
"671 543 LINE"
);
}
);
width = 732;
}
);
leftKerningGroup = O;
note = Ohornacute;
rightKerningGroup = O;
unicode = 1EDA;
},
{
glyphname = Ohorndotbelow;
lastChange = "2015-10-21 12:18:56 +0000";
layers = (
{
layerId = "09C3AFA4-7ACC-471D-A867-1713CECD7BC9";
name = "Regular Italic";
paths = (
{
closed = 1;
nodes = (
"537 -10 OFFCURVE",
"678 124 OFFCURVE",
"724 350 CURVE SMOOTH",
"732 389 OFFCURVE",
"736 426 OFFCURVE",
"736 459 CURVE SMOOTH",
"736 617 OFFCURVE",
"646 710 OFFCURVE",
"469 710 CURVE SMOOTH",
"254 710 OFFCURVE",
"114 574 OFFCURVE",
"68 350 CURVE SMOOTH",
"60 311 OFFCURVE",
"56 274 OFFCURVE",
"56 240 CURVE SMOOTH",
"56 81 OFFCURVE",
"146 -10 OFFCURVE",
"323 -10 CURVE SMOOTH"
);
},
{
closed = 1;
nodes = (
"313 -159 OFFCURVE",
"337 -134 OFFCURVE",
"337 -100 CURVE SMOOTH",
"337 -78 OFFCURVE",
"324 -64 OFFCURVE",
"301 -64 CURVE SMOOTH",
"271 -64 OFFCURVE",
"246 -90 OFFCURVE",
"246 -124 CURVE SMOOTH",
"246 -145 OFFCURVE",
"259 -159 OFFCURVE",
"282 -159 CURVE SMOOTH"
);
},
{
closed = 1;
nodes = (
"208 32 OFFCURVE",
"150 110 OFFCURVE",
"150 237 CURVE SMOOTH",
"150 271 OFFCURVE",
"155 309 OFFCURVE",
"163 350 CURVE SMOOTH",
"202 541 OFFCURVE",
"304 668 OFFCURVE",
"460 668 CURVE SMOOTH",
"584 668 OFFCURVE",
"641 589 OFFCURVE",
"641 462 CURVE SMOOTH",
"641 428 OFFCURVE",
"637 390 OFFCURVE",
"629 350 CURVE SMOOTH",
"589 158 OFFCURVE",
"488 32 OFFCURVE",
"330 32 CURVE SMOOTH"
);
},
{
closed = 1;
nodes = (
"747 569 OFFCURVE",
"832 645 OFFCURVE",
"832 726 CURVE SMOOTH",
"832 758 OFFCURVE",
"813 772 OFFCURVE",
"791 772 CURVE SMOOTH",
"759 772 OFFCURVE",
"738 746 OFFCURVE",
"738 719 CURVE SMOOTH",
"738 696 OFFCURVE",
"757 687 OFFCURVE",
"757 663 CURVE SMOOTH",
"757 622 OFFCURVE",
"715 590 OFFCURVE",
"676 568 CURVE",
"671 543 LINE"
);
}
);
width = 732;
}
);
leftKerningGroup = O;
note = Ohorndotbelow;
rightKerningGroup = O;
unicode = 1EE2;
},
{
glyphname = Ohorngrave;
lastChange = "2015-10-21 12:18:56 +0000";
layers = (
{
layerId = "09C3AFA4-7ACC-471D-A867-1713CECD7BC9";
name = "Regular Italic";
paths = (
{
closed = 1;
nodes = (
"537 -10 OFFCURVE",
"678 124 OFFCURVE",
"724 350 CURVE SMOOTH",
"732 389 OFFCURVE",
"736 426 OFFCURVE",
"736 459 CURVE SMOOTH",
"736 617 OFFCURVE",
"646 710 OFFCURVE",
"469 710 CURVE SMOOTH",
"254 710 OFFCURVE",
"114 574 OFFCURVE",
"68 350 CURVE SMOOTH",
"60 311 OFFCURVE",
"56 274 OFFCURVE",
"56 240 CURVE SMOOTH",
"56 81 OFFCURVE",
"146 -10 OFFCURVE",
"323 -10 CURVE SMOOTH"
);
},
{
closed = 1;
nodes = (
"208 32 OFFCURVE",
"150 110 OFFCURVE",
"150 237 CURVE SMOOTH",
"150 271 OFFCURVE",
"155 309 OFFCURVE",
"163 350 CURVE SMOOTH",
"202 541 OFFCURVE",
"304 668 OFFCURVE",
"460 668 CURVE SMOOTH",
"584 668 OFFCURVE",
"641 589 OFFCURVE",
"641 462 CURVE SMOOTH",
"641 428 OFFCURVE",
"637 390 OFFCURVE",
"629 350 CURVE SMOOTH",
"589 158 OFFCURVE",
"488 32 OFFCURVE",
"330 32 CURVE SMOOTH"
);
},
{
closed = 1;
nodes = (
"573 816 LINE",
"485 922 LINE",
"478 931 OFFCURVE",
"466 946 OFFCURVE",
"446 946 CURVE SMOOTH",
"424 946 OFFCURVE",
"409 928 OFFCURVE",
"409 909 CURVE SMOOTH",
"409 895 OFFCURVE",
"417 883 OFFCURVE",
"430 874 CURVE SMOOTH",
"551 791 LINE"
);
},
{
closed = 1;
nodes = (
"747 569 OFFCURVE",
"832 645 OFFCURVE",
"832 726 CURVE SMOOTH",
"832 758 OFFCURVE",
"813 772 OFFCURVE",
"791 772 CURVE SMOOTH",
"759 772 OFFCURVE",
"738 746 OFFCURVE",
"738 719 CURVE SMOOTH",
"738 696 OFFCURVE",
"757 687 OFFCURVE",
"757 663 CURVE SMOOTH",
"757 622 OFFCURVE",
"715 590 OFFCURVE",
"676 568 CURVE",
"671 543 LINE"
);
}
);
width = 732;
}
);
leftKerningGroup = O;
note = Ohorngrave;
rightKerningGroup = O;
unicode = 1EDC;
},
{
glyphname = Ohornhookabove;
lastChange = "2015-10-21 12:18:56 +0000";
layers = (
{
layerId = "09C3AFA4-7ACC-471D-A867-1713CECD7BC9";
name = "Regular Italic";
paths = (
{
closed = 1;
nodes = (
"537 -10 OFFCURVE",
"678 124 OFFCURVE",
"724 350 CURVE SMOOTH",
"732 389 OFFCURVE",
"736 426 OFFCURVE",
"736 459 CURVE SMOOTH",
"736 617 OFFCURVE",
"646 710 OFFCURVE",
"469 710 CURVE SMOOTH",
"254 710 OFFCURVE",
"114 574 OFFCURVE",
"68 350 CURVE SMOOTH",
"60 311 OFFCURVE",
"56 274 OFFCURVE",
"56 240 CURVE SMOOTH",
"56 81 OFFCURVE",
"146 -10 OFFCURVE",
"323 -10 CURVE SMOOTH"
);
},
{
closed = 1;
nodes = (
"208 32 OFFCURVE",
"150 110 OFFCURVE",
"150 237 CURVE SMOOTH",
"150 271 OFFCURVE",
"155 309 OFFCURVE",
"163 350 CURVE SMOOTH",
"202 541 OFFCURVE",
"304 668 OFFCURVE",
"460 668 CURVE SMOOTH",
"584 668 OFFCURVE",
"641 589 OFFCURVE",
"641 462 CURVE SMOOTH",
"641 428 OFFCURVE",
"637 390 OFFCURVE",
"629 350 CURVE SMOOTH",
"589 158 OFFCURVE",
"488 32 OFFCURVE",
"330 32 CURVE SMOOTH"
);
},
{
closed = 1;
nodes = (
"522 809 LINE",
"506 816 OFFCURVE",
"495 822 OFFCURVE",
"498 839 CURVE SMOOTH",
"505 872 OFFCURVE",
"594 887 OFFCURVE",
"604 938 CURVE SMOOTH",
"605 943 OFFCURVE",
"605 947 OFFCURVE",
"605 951 CURVE SMOOTH",
"605 985 OFFCURVE",
"577 1002 OFFCURVE",
"532 1002 CURVE SMOOTH",
"484 1002 OFFCURVE",
"436 982 OFFCURVE",
"436 943 CURVE SMOOTH",
"436 932 OFFCURVE",
"442 926 OFFCURVE",
"454 926 CURVE SMOOTH",
"476 926 OFFCURVE",
"482 945 OFFCURVE",
"487 953 CURVE",
"494 967 OFFCURVE",
"512 973 OFFCURVE",
"527 973 CURVE SMOOTH",
"547 973 OFFCURVE",
"557 958 OFFCURVE",
"553 941 CURVE SMOOTH",
"543 893 OFFCURVE",
"452 884 OFFCURVE",
"452 829 CURVE SMOOTH",
"452 806 OFFCURVE",
"467 789 OFFCURVE",
"510 789 CURVE"
);
},
{
closed = 1;
nodes = (
"747 569 OFFCURVE",
"832 645 OFFCURVE",
"832 726 CURVE SMOOTH",
"832 758 OFFCURVE",
"813 772 OFFCURVE",
"791 772 CURVE SMOOTH",
"759 772 OFFCURVE",
"738 746 OFFCURVE",
"738 719 CURVE SMOOTH",
"738 696 OFFCURVE",
"757 687 OFFCURVE",
"757 663 CURVE SMOOTH",
"757 622 OFFCURVE",
"715 590 OFFCURVE",
"676 568 CURVE",
"671 543 LINE"
);
}
);
width = 732;
}
);
leftKerningGroup = O;
note = Ohornhookabove;
rightKerningGroup = O;
unicode = 1EDE;
},
{
glyphname = Ohorntilde;
lastChange = "2015-10-21 12:18:57 +0000";
layers = (
{
layerId = "09C3AFA4-7ACC-471D-A867-1713CECD7BC9";
name = "Regular Italic";
paths = (
{
closed = 1;
nodes = (
"537 -10 OFFCURVE",
"678 124 OFFCURVE",
"724 350 CURVE SMOOTH",
"732 389 OFFCURVE",
"736 426 OFFCURVE",
"736 459 CURVE SMOOTH",
"736 617 OFFCURVE",
"646 710 OFFCURVE",
"469 710 CURVE SMOOTH",
"254 710 OFFCURVE",
"114 574 OFFCURVE",
"68 350 CURVE SMOOTH",
"60 311 OFFCURVE",
"56 274 OFFCURVE",
"56 240 CURVE SMOOTH",
"56 81 OFFCURVE",
"146 -10 OFFCURVE",
"323 -10 CURVE SMOOTH"
);
},
{
closed = 1;
nodes = (
"208 32 OFFCURVE",
"150 110 OFFCURVE",
"150 237 CURVE SMOOTH",
"150 271 OFFCURVE",
"155 309 OFFCURVE",
"163 350 CURVE SMOOTH",
"202 541 OFFCURVE",
"304 668 OFFCURVE",
"460 668 CURVE SMOOTH",
"584 668 OFFCURVE",
"641 589 OFFCURVE",
"641 462 CURVE SMOOTH",
"641 428 OFFCURVE",
"637 390 OFFCURVE",
"629 350 CURVE SMOOTH",
"589 158 OFFCURVE",
"488 32 OFFCURVE",
"330 32 CURVE SMOOTH"
);
},
{
closed = 1;
nodes = (
"355 828 OFFCURVE",
"377 849 OFFCURVE",
"409 849 CURVE SMOOTH",
"458 849 OFFCURVE",
"493 795 OFFCURVE",
"542 795 CURVE SMOOTH",
"598 795 OFFCURVE",
"636 843 OFFCURVE",
"659 895 CURVE",
"640 906 LINE",
"618 866 OFFCURVE",
"598 844 OFFCURVE",
"565 844 CURVE SMOOTH",
"518 844 OFFCURVE",
"479 897 OFFCURVE",
"430 897 CURVE SMOOTH",
"378 897 OFFCURVE",
"338 853 OFFCURVE",
"316 801 CURVE",
"334 790 LINE"
);
},
{
closed = 1;
nodes = (
"747 569 OFFCURVE",
"832 645 OFFCURVE",
"832 726 CURVE SMOOTH",
"832 758 OFFCURVE",
"813 772 OFFCURVE",
"791 772 CURVE SMOOTH",
"759 772 OFFCURVE",
"738 746 OFFCURVE",
"738 719 CURVE SMOOTH",
"738 696 OFFCURVE",
"757 687 OFFCURVE",
"757 663 CURVE SMOOTH",
"757 622 OFFCURVE",
"715 590 OFFCURVE",
"676 568 CURVE",
"671 543 LINE"
);
}
);
width = 732;
}
);
leftKerningGroup = O;
note = Ohorntilde;
rightKerningGroup = O;
unicode = 1EE0;
},
{
glyphname = Ohungarumlaut;
lastChange = "2015-10-21 12:18:57 +0000";
layers = (
{
layerId = "09C3AFA4-7ACC-471D-A867-1713CECD7BC9";
name = "Regular Italic";
paths = (
{
closed = 1;
nodes = (
"536 -10 OFFCURVE",
"677 124 OFFCURVE",
"723 350 CURVE SMOOTH",
"731 389 OFFCURVE",
"735 426 OFFCURVE",
"735 459 CURVE SMOOTH",
"735 617 OFFCURVE",
"645 710 OFFCURVE",
"468 710 CURVE SMOOTH",
"253 710 OFFCURVE",
"113 574 OFFCURVE",
"67 350 CURVE SMOOTH",
"59 311 OFFCURVE",
"55 274 OFFCURVE",
"55 240 CURVE SMOOTH",
"55 81 OFFCURVE",
"145 -10 OFFCURVE",
"322 -10 CURVE SMOOTH"
);
},
{
closed = 1;
nodes = (
"207 32 OFFCURVE",
"149 110 OFFCURVE",
"149 237 CURVE SMOOTH",
"149 271 OFFCURVE",
"154 309 OFFCURVE",
"162 350 CURVE SMOOTH",
"201 541 OFFCURVE",
"303 668 OFFCURVE",
"459 668 CURVE SMOOTH",
"583 668 OFFCURVE",
"640 589 OFFCURVE",
"640 462 CURVE SMOOTH",
"640 428 OFFCURVE",
"636 390 OFFCURVE",
"628 350 CURVE SMOOTH",
"588 158 OFFCURVE",
"487 32 OFFCURVE",
"329 32 CURVE SMOOTH"
);
},
{
closed = 1;
nodes = (
"516 864 LINE SMOOTH",
"543 879 OFFCURVE",
"559 895 OFFCURVE",
"559 915 CURVE SMOOTH",
"559 927 OFFCURVE",
"552 937 OFFCURVE",
"535 937 CURVE SMOOTH",
"515 937 OFFCURVE",
"491 919 OFFCURVE",
"483 913 CURVE SMOOTH",
"352 807 LINE",
"364 782 LINE"
);
},
{
closed = 1;
nodes = (
"670 864 LINE SMOOTH",
"696 879 OFFCURVE",
"712 894 OFFCURVE",
"712 914 CURVE SMOOTH",
"712 926 OFFCURVE",
"704 937 OFFCURVE",
"685 937 CURVE SMOOTH",
"664 937 OFFCURVE",
"644 919 OFFCURVE",
"636 913 CURVE SMOOTH",
"505 807 LINE",
"517 782 LINE"
);
}
);
width = 725;
}
);
leftKerningGroup = O;
note = Ohungarumlaut;
rightKerningGroup = O;
unicode = 0150;
},
{
glyphname = Omacron;
lastChange = "2015-10-21 12:18:56 +0000";
layers = (
{
layerId = "09C3AFA4-7ACC-471D-A867-1713CECD7BC9";
name = "Regular Italic";
paths = (
{
closed = 1;
nodes = (
"536 -10 OFFCURVE",
"677 124 OFFCURVE",
"723 350 CURVE SMOOTH",
"731 389 OFFCURVE",
"735 426 OFFCURVE",
"735 459 CURVE SMOOTH",
"735 617 OFFCURVE",
"645 710 OFFCURVE",
"468 710 CURVE SMOOTH",
"253 710 OFFCURVE",
"113 574 OFFCURVE",
"67 350 CURVE SMOOTH",
"59 311 OFFCURVE",
"55 274 OFFCURVE",
"55 240 CURVE SMOOTH",
"55 81 OFFCURVE",
"145 -10 OFFCURVE",
"322 -10 CURVE SMOOTH"
);
},
{
closed = 1;
nodes = (
"207 32 OFFCURVE",
"149 110 OFFCURVE",
"149 237 CURVE SMOOTH",
"149 271 OFFCURVE",
"154 309 OFFCURVE",
"162 350 CURVE SMOOTH",
"201 541 OFFCURVE",
"303 668 OFFCURVE",
"459 668 CURVE SMOOTH",
"583 668 OFFCURVE",
"640 589 OFFCURVE",
"640 462 CURVE SMOOTH",
"640 428 OFFCURVE",
"636 390 OFFCURVE",
"628 350 CURVE SMOOTH",
"588 158 OFFCURVE",
"487 32 OFFCURVE",
"329 32 CURVE SMOOTH"
);
},
{
closed = 1;
nodes = (
"644 793 LINE",
"653 835 LINE",
"334 835 LINE",
"325 793 LINE"
);
}
);
width = 725;
}
);
leftKerningGroup = O;
note = Omacron;
rightKerningGroup = O;
unicode = 014C;
},
{
glyphname = Oslash;
lastChange = "2015-10-21 12:18:56 +0000";
layers = (
{
layerId = "09C3AFA4-7ACC-471D-A867-1713CECD7BC9";
name = "Regular Italic";
paths = (
{
closed = 1;
nodes = (
"748 699 LINE",
"716 725 LINE",
"18 4 LINE",
"50 -22 LINE"
);
},
{
closed = 1;
nodes = (
"536 -10 OFFCURVE",
"677 124 OFFCURVE",
"723 350 CURVE SMOOTH",
"731 389 OFFCURVE",
"735 426 OFFCURVE",
"735 459 CURVE SMOOTH",
"735 617 OFFCURVE",
"645 710 OFFCURVE",
"468 710 CURVE SMOOTH",
"253 710 OFFCURVE",
"113 574 OFFCURVE",
"67 350 CURVE SMOOTH",
"59 311 OFFCURVE",
"55 274 OFFCURVE",
"55 240 CURVE SMOOTH",
"55 81 OFFCURVE",
"145 -10 OFFCURVE",
"322 -10 CURVE SMOOTH"
);
},
{
closed = 1;
nodes = (
"207 32 OFFCURVE",
"149 110 OFFCURVE",
"149 237 CURVE SMOOTH",
"149 271 OFFCURVE",
"154 309 OFFCURVE",
"162 350 CURVE SMOOTH",
"201 541 OFFCURVE",
"303 668 OFFCURVE",
"459 668 CURVE SMOOTH",
"583 668 OFFCURVE",
"640 589 OFFCURVE",
"640 462 CURVE SMOOTH",
"640 428 OFFCURVE",
"636 390 OFFCURVE",
"628 350 CURVE SMOOTH",
"588 158 OFFCURVE",
"487 32 OFFCURVE",
"329 32 CURVE SMOOTH"
);
}
);
width = 725;
}
);
leftKerningGroup = O;
note = Oslash;
rightKerningGroup = O;
unicode = 00D8;
},
{
glyphname = Oslashacute;
lastChange = "2015-10-21 12:18:57 +0000";
layers = (
{
layerId = "09C3AFA4-7ACC-471D-A867-1713CECD7BC9";
name = "Regular Italic";
paths = (
{
closed = 1;
nodes = (
"748 699 LINE",
"716 725 LINE",
"18 4 LINE",
"50 -22 LINE"
);
},
{
closed = 1;
nodes = (
"536 -10 OFFCURVE",
"677 124 OFFCURVE",
"723 350 CURVE SMOOTH",
"731 389 OFFCURVE",
"735 426 OFFCURVE",
"735 459 CURVE SMOOTH",
"735 617 OFFCURVE",
"645 710 OFFCURVE",
"468 710 CURVE SMOOTH",
"253 710 OFFCURVE",
"113 574 OFFCURVE",
"67 350 CURVE SMOOTH",
"59 311 OFFCURVE",
"55 274 OFFCURVE",
"55 240 CURVE SMOOTH",
"55 81 OFFCURVE",
"145 -10 OFFCURVE",
"322 -10 CURVE SMOOTH"
);
},
{
closed = 1;
nodes = (
"207 32 OFFCURVE",
"149 110 OFFCURVE",
"149 237 CURVE SMOOTH",
"149 271 OFFCURVE",
"154 309 OFFCURVE",
"162 350 CURVE SMOOTH",
"201 541 OFFCURVE",
"303 668 OFFCURVE",
"459 668 CURVE SMOOTH",
"583 668 OFFCURVE",
"640 589 OFFCURVE",
"640 462 CURVE SMOOTH",
"640 428 OFFCURVE",
"636 390 OFFCURVE",
"628 350 CURVE SMOOTH",
"588 158 OFFCURVE",
"487 32 OFFCURVE",
"329 32 CURVE SMOOTH"
);
},
{
closed = 1;
nodes = (
"564 865 LINE SMOOTH",
"588 877 OFFCURVE",
"603 890 OFFCURVE",
"606 907 CURVE",
"610 922 OFFCURVE",
"601 937 OFFCURVE",
"580 937 CURVE SMOOTH",
"560 937 OFFCURVE",
"541 921 OFFCURVE",
"533 914 CURVE SMOOTH",
"400 807 LINE",
"412 782 LINE"
);
}
);
width = 725;
}
);
leftKerningGroup = O;
note = Oslashacute;
rightKerningGroup = O;
unicode = 01FE;
},
{
glyphname = Otilde;
lastChange = "2015-10-21 12:18:56 +0000";
layers = (
{
layerId = "09C3AFA4-7ACC-471D-A867-1713CECD7BC9";
name = "Regular Italic";
paths = (
{
closed = 1;
nodes = (
"536 -10 OFFCURVE",
"677 124 OFFCURVE",
"723 350 CURVE SMOOTH",
"731 389 OFFCURVE",
"735 426 OFFCURVE",
"735 459 CURVE SMOOTH",
"735 617 OFFCURVE",
"645 710 OFFCURVE",
"468 710 CURVE SMOOTH",
"253 710 OFFCURVE",
"113 574 OFFCURVE",
"67 350 CURVE SMOOTH",
"59 311 OFFCURVE",
"55 274 OFFCURVE",
"55 240 CURVE SMOOTH",
"55 81 OFFCURVE",
"145 -10 OFFCURVE",
"322 -10 CURVE SMOOTH"
);
},
{
closed = 1;
nodes = (
"207 32 OFFCURVE",
"149 110 OFFCURVE",
"149 237 CURVE SMOOTH",
"149 271 OFFCURVE",
"154 309 OFFCURVE",
"162 350 CURVE SMOOTH",
"201 541 OFFCURVE",
"303 668 OFFCURVE",
"459 668 CURVE SMOOTH",
"583 668 OFFCURVE",
"640 589 OFFCURVE",
"640 462 CURVE SMOOTH",
"640 428 OFFCURVE",
"636 390 OFFCURVE",
"628 350 CURVE SMOOTH",
"588 158 OFFCURVE",
"487 32 OFFCURVE",
"329 32 CURVE SMOOTH"
);
},
{
closed = 1;
nodes = (
"359 818 OFFCURVE",
"381 839 OFFCURVE",
"413 839 CURVE SMOOTH",
"462 839 OFFCURVE",
"497 785 OFFCURVE",
"546 785 CURVE SMOOTH",
"602 785 OFFCURVE",
"640 833 OFFCURVE",
"662 885 CURVE",
"644 896 LINE",
"622 856 OFFCURVE",
"602 834 OFFCURVE",
"569 834 CURVE SMOOTH",
"522 834 OFFCURVE",
"483 887 OFFCURVE",
"434 887 CURVE SMOOTH",
"382 887 OFFCURVE",
"342 843 OFFCURVE",
"320 791 CURVE",
"338 780 LINE"
);
}
);
width = 725;
}
);
leftKerningGroup = O;
note = Otilde;
rightKerningGroup = O;
unicode = 00D5;
},
{
glyphname = OE;
lastChange = "2015-10-21 12:18:56 +0000";
layers = (
{
layerId = "09C3AFA4-7ACC-471D-A867-1713CECD7BC9";
name = "Regular Italic";
paths = (
{
closed = 1;
nodes = (
"418 -10 OFFCURVE",
"503 32 OFFCURVE",
"565 99 CURVE",
"541 142 LINE",
"489 71 OFFCURVE",
"418 31 OFFCURVE",
"332 31 CURVE SMOOTH",
"209 31 OFFCURVE",
"150 110 OFFCURVE",
"150 239 CURVE SMOOTH",
"150 272 OFFCURVE",
"154 310 OFFCURVE",
"162 350 CURVE SMOOTH",
"201 541 OFFCURVE",
"305 668 OFFCURVE",
"462 668 CURVE SMOOTH",
"546 668 OFFCURVE",
"602 628 OFFCURVE",
"625 558 CURVE",
"665 603 LINE",
"631 669 OFFCURVE",
"564 710 OFFCURVE",
"462 710 CURVE SMOOTH",
"256 710 OFFCURVE",
"113 574 OFFCURVE",
"67 350 CURVE SMOOTH",
"59 311 OFFCURVE",
"55 274 OFFCURVE",
"55 241 CURVE SMOOTH",
"55 82 OFFCURVE",
"145 -10 OFFCURVE",
"315 -10 CURVE SMOOTH"
);
},
{
closed = 1;
nodes = (
"913 0 LINE",
"966 179 LINE",
"941 179 LINE",
"923 124 OFFCURVE",
"887 40 OFFCURVE",
"826 40 CURVE SMOOTH",
"599 40 LINE",
"726 659 LINE",
"939 659 LINE SMOOTH",
"989 659 OFFCURVE",
"999 614 OFFCURVE",
"999 574 CURVE SMOOTH",
"999 556 OFFCURVE",
"997 539 OFFCURVE",
"996 527 CURVE",
"1020 527 LINE",
"1055 700 LINE",
"639 700 LINE",
"497 0 LINE"
);
},
{
closed = 1;
nodes = (
"881 251 LINE",
"929 485 LINE",
"907 485 LINE",
"893 436 OFFCURVE",
"879 388 OFFCURVE",
"837 388 CURVE SMOOTH",
"647 388 LINE",
"638 348 LINE",
"828 348 LINE SMOOTH",
"856 348 OFFCURVE",
"863 328 OFFCURVE",
"863 300 CURVE SMOOTH",
"863 285 OFFCURVE",
"861 268 OFFCURVE",
"859 251 CURVE"
);
}
);
width = 1002;
}
);
leftKerningGroup = O;
note = OE;
rightKerningGroup = E;
unicode = 0152;
},
{
glyphname = P;
lastChange = "2015-10-21 12:18:56 +0000";
layers = (
{
layerId = "09C3AFA4-7ACC-471D-A867-1713CECD7BC9";
name = "Regular Italic";
paths = (
{
closed = 1;
nodes = (
"245 0 LINE",
"250 26 LINE",
"221 26 LINE SMOOTH",
"189 26 OFFCURVE",
"172 34 OFFCURVE",
"172 53 CURVE SMOOTH",
"172 56 OFFCURVE",
"172 59 OFFCURVE",
"173 62 CURVE SMOOTH",
"216 274 LINE",
"367 274 LINE SMOOTH",
"521 274 OFFCURVE",
"592 363 OFFCURVE",
"617 487 CURVE SMOOTH",
"622 511 OFFCURVE",
"625 534 OFFCURVE",
"625 555 CURVE SMOOTH",
"625 643 OFFCURVE",
"578 700 OFFCURVE",
"453 700 CURVE SMOOTH",
"125 700 LINE",
"120 673 LINE",
"148 673 LINE SMOOTH",
"181 673 OFFCURVE",
"197 664 OFFCURVE",
"197 645 CURVE SMOOTH",
"197 643 OFFCURVE",
"197 640 OFFCURVE",
"196 637 CURVE SMOOTH",
"79 62 LINE SMOOTH",
"73 37 OFFCURVE",
"53 26 OFFCURVE",
"15 26 CURVE SMOOTH",
"-12 26 LINE",
"-17 0 LINE"
);
},
{
closed = 1;
nodes = (
"295 659 LINE",
"428 659 LINE SMOOTH",
"502 659 OFFCURVE",
"532 619 OFFCURVE",
"532 551 CURVE SMOOTH",
"532 532 OFFCURVE",
"530 510 OFFCURVE",
"525 487 CURVE SMOOTH",
"504 383 OFFCURVE",
"452 314 OFFCURVE",
"357 314 CURVE SMOOTH",
"224 314 LINE"
);
}
);
width = 575;
}
);
note = P;
unicode = 0050;
},
{
glyphname = Thorn;
lastChange = "2015-10-21 12:18:56 +0000";
layers = (
{
layerId = "09C3AFA4-7ACC-471D-A867-1713CECD7BC9";
name = "Regular Italic";
paths = (
{
closed = 1;
nodes = (
"245 0 LINE",
"250 26 LINE",
"221 26 LINE SMOOTH",
"189 26 OFFCURVE",
"172 34 OFFCURVE",
"172 53 CURVE SMOOTH",
"172 56 OFFCURVE",
"172 59 OFFCURVE",
"173 62 CURVE SMOOTH",
"193 162 LINE",
"344 162 LINE SMOOTH",
"498 162 OFFCURVE",
"569 251 OFFCURVE",
"594 375 CURVE SMOOTH",
"599 400 OFFCURVE",
"602 423 OFFCURVE",
"602 444 CURVE SMOOTH",
"602 532 OFFCURVE",
"555 588 OFFCURVE",
"430 588 CURVE SMOOTH",
"279 588 LINE",
"302 700 LINE",
"125 700 LINE",
"120 673 LINE",
"148 673 LINE SMOOTH",
"181 673 OFFCURVE",
"197 664 OFFCURVE",
"197 645 CURVE SMOOTH",
"197 643 OFFCURVE",
"197 640 OFFCURVE",
"196 637 CURVE SMOOTH",
"79 62 LINE SMOOTH",
"73 37 OFFCURVE",
"53 26 OFFCURVE",
"15 26 CURVE SMOOTH",
"-12 26 LINE",
"-17 0 LINE"
);
},
{
closed = 1;
nodes = (
"272 548 LINE",
"405 548 LINE SMOOTH",
"479 548 OFFCURVE",
"510 507 OFFCURVE",
"510 440 CURVE SMOOTH",
"510 420 OFFCURVE",
"507 399 OFFCURVE",
"502 375 CURVE SMOOTH",
"481 271 OFFCURVE",
"430 203 OFFCURVE",
"335 203 CURVE SMOOTH",
"202 203 LINE"
);
}
);
width = 575;
}
);
note = Thorn;
unicode = 00DE;
},
{
glyphname = Q;
lastChange = "2015-10-21 12:18:56 +0000";
layers = (
{
layerId = "09C3AFA4-7ACC-471D-A867-1713CECD7BC9";
name = "Regular Italic";
paths = (
{
closed = 1;
nodes = (
"536 -10 OFFCURVE",
"677 124 OFFCURVE",
"723 350 CURVE SMOOTH",
"731 389 OFFCURVE",
"735 426 OFFCURVE",
"735 459 CURVE SMOOTH",
"735 617 OFFCURVE",
"645 710 OFFCURVE",
"468 710 CURVE SMOOTH",
"253 710 OFFCURVE",
"113 574 OFFCURVE",
"67 350 CURVE SMOOTH",
"59 311 OFFCURVE",
"55 274 OFFCURVE",
"55 240 CURVE SMOOTH",
"55 81 OFFCURVE",
"145 -10 OFFCURVE",
"322 -10 CURVE SMOOTH"
);
},
{
closed = 1;
nodes = (
"526 -169 OFFCURVE",
"593 -113 OFFCURVE",
"608 -47 CURVE",
"609 -41 OFFCURVE",
"610 -35 OFFCURVE",
"610 -29 CURVE",
"591 -29 LINE",
"567 -80 OFFCURVE",
"537 -105 OFFCURVE",
"492 -105 CURVE SMOOTH",
"410 -105 OFFCURVE",
"350 -35 OFFCURVE",
"266 -35 CURVE SMOOTH",
"254 -35 LINE",
"280 -17 OFFCURVE",
"300 -9 OFFCURVE",
"320 -1 CURVE",
"321 3 LINE",
"274 3 LINE",
"212 -20 OFFCURVE",
"168 -50 OFFCURVE",
"127 -81 CURVE",
"132 -95 LINE",
"172 -72 OFFCURVE",
"202 -66 OFFCURVE",
"228 -66 CURVE SMOOTH",
"301 -66 OFFCURVE",
"351 -169 OFFCURVE",
"457 -169 CURVE SMOOTH"
);
},
{
closed = 1;
nodes = (
"207 32 OFFCURVE",
"149 110 OFFCURVE",
"149 237 CURVE SMOOTH",
"149 271 OFFCURVE",
"154 309 OFFCURVE",
"162 350 CURVE SMOOTH",
"201 541 OFFCURVE",
"303 668 OFFCURVE",
"459 668 CURVE SMOOTH",
"583 668 OFFCURVE",
"640 589 OFFCURVE",
"640 462 CURVE SMOOTH",
"640 428 OFFCURVE",
"636 390 OFFCURVE",
"628 350 CURVE SMOOTH",
"588 158 OFFCURVE",
"487 32 OFFCURVE",
"329 32 CURVE SMOOTH"
);
}
);
width = 725;
}
);
leftKerningGroup = O;
note = Q;
rightKerningGroup = O;
unicode = 0051;
},
